<svg width="32" height="32" viewBox="0 0 32 32" fill="none" xmlns="http://www.w3.org/2000/svg">
<path fill-rule="evenodd" clip-rule="evenodd" d="M16 32C24.8366 32 32 24.8366 32 16C32 7.16344 24.8366 0 16 0C7.16344 0 0 7.16344 0 16C0 24.8366 7.16344 32 16 32Z" fill="#1F0040"/>
<path d="M9.98318 18.3633L9.04685 21.9071C9.02315 22.0019 8.98759 22.0375 8.86907 22.0375H7.12678C7.00826 22.0375 6.98456 22.0019 7.00826 21.8597L10.3743 10.0904C10.4336 9.87707 10.4691 9.71114 10.4928 9.11852C10.4928 9.03556 10.5284 9 10.5876 9H13.0766C13.1596 9 13.1951 9.0237 13.2188 9.11852L16.9879 21.8834C17.0116 21.9782 16.9879 22.0375 16.893 22.0375H14.9374C14.8426 22.0375 14.7833 22.0019 14.7596 21.919L13.7759 18.3633H9.98318ZM13.3137 16.4432C12.9818 15.1276 12.1758 12.2594 11.8795 10.8727H11.8558C11.6069 12.2594 10.9551 14.6061 10.4691 16.4432C10.481 16.4432 13.3137 16.4432 13.3137 16.4432ZM19.6665 17.6522C19.6902 19.2522 20.4487 20.3308 22.2503 20.3308C22.9496 20.3308 23.554 20.2359 24.1822 19.9633C24.2652 19.9278 24.3244 19.9396 24.3244 20.0463V21.5278C24.3244 21.6464 24.2889 21.7056 24.2059 21.7649C23.5777 22.0731 22.7955 22.2153 21.8236 22.2153C18.6946 22.2153 17.5212 19.9041 17.5212 17.3203C17.5212 14.5232 18.9672 12.2357 21.5154 12.2357C24.0992 12.2357 25 14.4046 25 16.1706C25 16.7395 24.9644 17.2018 24.9052 17.427C24.8815 17.5218 24.8459 17.5573 24.7511 17.581C24.5141 17.6166 23.8148 17.664 22.7718 17.664L19.6665 17.6522ZM22.0725 16.0165C22.677 16.0165 22.8903 16.0165 22.9496 15.9928C22.9496 15.9099 22.9733 15.8506 22.9733 15.7913C22.9733 15.1513 22.6651 13.9661 21.4325 13.9661C20.2946 13.9661 19.8087 14.9617 19.6902 16.0165H22.0725Z" fill="#D291FF"/>
</svg>
