<svg width="136" height="44" viewBox="0 0 136 44" fill="none" xmlns="http://www.w3.org/2000/svg">
<path fill-rule="evenodd" clip-rule="evenodd" d="M38.667 30.2548C38.7374 30.4317 38.8077 30.6086 38.878 30.7808C39.426 32.3734 39.595 33.8799 39.258 35.3865C38.794 38.5716 36.727 41.3264 33.775 42.5316C32.721 43.0051 31.54 43.2203 30.359 43.2203C30.022 43.2203 29.6 43.1772 29.263 43.1342C27.871 42.962 26.437 42.4886 25.045 41.6707C23.358 40.6807 21.671 39.2603 19.816 37.1943C17.96 39.2603 16.315 40.6807 14.586 41.6707C13.195 42.4886 11.761 42.962 10.369 43.1342C10.032 43.1772 9.61002 43.2203 9.27202 43.2203C8.09202 43.2203 6.95302 43.0051 5.85602 42.5316C2.94602 41.3264 0.838025 38.6147 0.374025 35.3865C0.163025 33.8369 0.332025 32.3304 0.880025 30.7378C1.09102 30.1782 1.30202 29.6617 1.51302 29.1883C1.67121 28.8246 1.82939 28.4704 1.98333 28.1257C2.15736 27.736 2.32596 27.3585 2.48302 26.9931L2.52502 26.907C5.43502 20.4505 8.59803 13.908 11.845 7.45149L11.971 7.19329C12.2944 6.57554 12.6168 5.91844 12.9401 5.25963L12.984 5.17019C13.405 4.39549 13.869 3.57764 14.502 2.80286C15.894 1.16723 17.791 0.220276 19.9 0.220276C21.967 0.220276 23.907 1.16723 25.256 2.88895C25.8807 3.60596 26.2887 4.3598 26.6797 5.08232L26.774 5.25629L26.8198 5.34951L26.8199 5.34985C27.1425 6.00728 27.4643 6.66292 27.786 7.27929L27.913 7.53759C31.202 13.9941 34.323 20.5366 37.233 26.9931L37.275 27.0361C37.4322 27.4018 37.601 27.7797 37.7751 28.1697C37.929 28.5141 38.087 28.8679 38.245 29.2313C38.3857 29.547 38.5264 29.9009 38.667 30.2548ZM71.436 11.0241C71.436 12.5736 70.213 13.8219 68.694 13.8219C67.176 13.8219 65.953 12.5736 65.953 11.0241C65.953 9.47449 67.134 8.22629 68.694 8.22629C70.255 8.26929 71.436 9.51759 71.436 11.0241ZM60.133 16.6627V17.3514C60.133 17.3514 58.826 15.6297 56.043 15.6297C51.446 15.6297 47.861 19.2023 47.861 24.1522C47.861 29.0591 51.403 32.6747 56.043 32.6747C58.868 32.6747 60.133 30.91 60.133 30.91V31.6417C60.133 31.9861 60.386 32.2443 60.724 32.2443H64.14V16.0601H60.724C60.386 16.0601 60.133 16.3614 60.133 16.6627ZM56.717 28.8009C58.236 28.8009 59.501 27.9831 60.133 27.0361V21.2683C59.543 20.3644 58.193 19.5036 56.717 19.5036C54.018 19.5036 51.952 21.2253 51.952 24.1522C51.952 27.0791 54.018 28.8009 56.717 28.8009ZM66.67 16.0601H70.719V32.2443H66.67V16.0601ZM123.056 17.3514C123.056 17.3514 124.363 15.6297 127.147 15.6297C131.701 15.6297 135.286 19.2453 135.286 24.1522C135.286 29.0591 131.701 32.6747 127.104 32.6747C124.321 32.6747 123.014 30.91 123.014 30.91V31.6417C123.014 31.943 122.761 32.2443 122.423 32.2443H119.007V8.26929H123.056V17.3514ZM126.472 28.7578C124.911 28.7578 123.688 27.94 123.056 26.9931V21.2253C123.688 20.3644 125.038 19.4605 126.472 19.4605C129.171 19.4605 131.237 21.1823 131.237 24.1092C131.237 27.0361 129.171 28.7578 126.472 28.7578ZM116.898 32.2874V22.6457C116.898 19.934 116.35 18.3845 114.916 17.1792C113.735 16.1462 112.259 15.6297 110.488 15.6297C108.928 15.6297 107.367 16.1032 106.186 17.3514V16.6627C106.186 16.3614 105.933 16.0601 105.596 16.0601H102.391V32.2443H106.44V20.967C107.241 20.0201 108.506 19.3744 109.729 19.3744C112.006 19.3744 112.85 20.4505 112.85 23.1192V32.2874H116.898ZM92.565 15.6297C89.781 15.6297 88.474 17.3514 88.474 17.3514V8.26929H84.425V32.2443H87.841C88.179 32.2443 88.432 31.943 88.432 31.6417V30.91C88.432 30.91 89.739 32.6747 92.522 32.6747C97.119 32.6747 100.704 29.0591 100.704 24.1522C100.746 19.2453 97.161 15.6297 92.565 15.6297ZM88.474 26.9931C89.106 27.94 90.329 28.7578 91.89 28.7578C94.589 28.7578 96.655 27.0361 96.655 24.1092C96.655 21.1823 94.589 19.4605 91.89 19.4605C90.456 19.4605 89.106 20.3644 88.474 21.2253V26.9931ZM80.925 15.6297C82.148 15.6297 82.78 15.8449 82.78 15.8449V19.6757C82.78 19.6757 79.406 18.5136 77.298 20.967V32.2874H73.249V16.0601H76.665C77.003 16.0601 77.256 16.3614 77.256 16.6627V17.3514C78.015 16.4475 79.66 15.6297 80.925 15.6297ZM19.858 33.0191C17.581 30.0922 16.104 27.3374 15.598 25.0131C15.388 24.0231 15.345 23.1622 15.472 22.3875C15.556 21.6988 15.809 21.0962 16.147 20.5796C16.948 19.4175 18.297 18.6858 19.858 18.6858C21.418 18.6858 22.81 19.3744 23.569 20.5796C23.907 21.0962 24.16 21.6988 24.244 22.3875C24.37 23.1622 24.328 24.0661 24.117 25.0131C23.611 27.2944 22.135 30.0491 19.858 33.0191ZM32.847 40.0781C34.914 39.2173 36.39 37.2803 36.685 35.0421C36.854 33.923 36.727 32.8469 36.39 31.7278C36.3025 31.4313 36.1752 31.1348 36.0358 30.8102C35.9728 30.6635 35.9074 30.5111 35.842 30.3504C35.672 30.0039 35.5128 29.6356 35.3537 29.2674C35.1965 28.9039 35.0395 28.5405 34.872 28.1983V28.1552C31.962 21.7418 28.841 15.1993 25.636 8.78589L25.509 8.52759C25.3405 8.20474 25.1718 7.87116 25.003 7.53759C24.8343 7.20401 24.6655 6.87044 24.497 6.54759C24.16 5.85889 23.78 5.21329 23.316 4.65369C22.43 3.62068 21.25 3.06112 19.942 3.06112C18.635 3.06112 17.454 3.62068 16.568 4.65369C16.104 5.21329 15.725 5.85889 15.388 6.54759C15.219 6.87044 15.0503 7.20403 14.8815 7.53761C14.7128 7.87118 14.544 8.20474 14.375 8.52759L14.249 8.78589C11.002 15.1562 7.88102 21.6988 4.97102 28.1122L4.92902 28.1983C4.59102 28.93 4.25402 29.6617 3.95902 30.3504C3.89446 30.5084 3.82989 30.6584 3.76773 30.8028C3.62676 31.1303 3.49816 31.4291 3.41002 31.7278C2.98902 32.933 2.90402 34.0091 3.03102 35.0852C3.32602 37.3234 4.80202 39.2603 6.86902 40.1212C7.83902 40.5086 8.93502 40.6807 10.074 40.5516C11.128 40.4225 12.182 40.0781 13.279 39.4325C14.797 38.5716 16.358 37.2373 18.087 35.2573C15.345 31.7708 13.616 28.5426 12.984 25.7018C12.646 24.4105 12.604 23.1622 12.773 22.0431C12.941 20.967 13.321 19.977 13.911 19.1162C15.219 17.2223 17.412 16.0601 19.858 16.0601C22.304 16.0601 24.497 17.1792 25.804 19.1162C26.395 19.977 26.774 20.967 26.943 22.0431C27.07 23.1622 27.027 24.3674 26.732 25.7018C26.1 28.5426 24.413 31.7278 21.629 35.2143C23.4 37.1943 24.919 38.5286 26.437 39.3895C27.533 40.0351 28.588 40.3794 29.642 40.5086C30.739 40.6377 31.835 40.5086 32.847 40.0781Z" fill="black"/>
</svg>
