<svg width="24" height="25" viewBox="0 0 24 25" fill="none" xmlns="http://www.w3.org/2000/svg">
<path d="M16 12.5L12 5.5L8 12.5L3 5.5L4 18.5H20L21 5.5L16 12.5Z" fill="#00CFFD" stroke="black" stroke-width="1.2" stroke-miterlimit="10" stroke-linecap="round" stroke-linejoin="round"/>
<path fill-rule="evenodd" clip-rule="evenodd" d="M21.5 21.5H2.5C2.22 21.5 2 21.28 2 21V19C2 18.72 2.22 18.5 2.5 18.5H21.5C21.78 18.5 22 18.72 22 19V21C22 21.28 21.78 21.5 21.5 21.5Z" fill="white" stroke="black" stroke-width="1.2" stroke-miterlimit="10" stroke-linecap="round" stroke-linejoin="round"/>
<path d="M3 5.5C3.55228 5.5 4 5.05228 4 4.5C4 3.94772 3.55228 3.5 3 3.5C2.44772 3.5 2 3.94772 2 4.5C2 5.05228 2.44772 5.5 3 5.5Z" stroke="black" stroke-width="1.2" stroke-miterlimit="10" stroke-linecap="round" stroke-linejoin="round"/>
<path d="M21 5.5C21.5523 5.5 22 5.05228 22 4.5C22 3.94772 21.5523 3.5 21 3.5C20.4477 3.5 20 3.94772 20 4.5C20 5.05228 20.4477 5.5 21 5.5Z" stroke="black" stroke-width="1.2" stroke-miterlimit="10" stroke-linecap="round" stroke-linejoin="round"/>
<path d="M12 5.5C12.5523 5.5 13 5.05228 13 4.5C13 3.94772 12.5523 3.5 12 3.5C11.4477 3.5 11 3.94772 11 4.5C11 5.05228 11.4477 5.5 12 5.5Z" stroke="black" stroke-width="1.2" stroke-miterlimit="10" stroke-linecap="round" stroke-linejoin="round"/>
</svg>
