<svg width="600" height="451" viewBox="0 0 600 451" fill="none" xmlns="http://www.w3.org/2000/svg">
<g filter="url(#filter0_b)">
<rect width="320" height="220" rx="30" transform="matrix(0.994522 -0.104528 0.109387 0.993999 111.705 35.4491)" fill="url(#paint0_linear)"/>
</g>
<g filter="url(#filter1_b)">
<rect width="360" height="240" rx="30" transform="matrix(0.99863 -0.052336 0.0572155 0.998362 108.821 40.774)" fill="url(#paint1_linear)"/>
</g>
<g filter="url(#filter2_bd)">
<rect x="100" y="50.6073" width="400" height="250" rx="30" fill="url(#paint2_linear)" fill-opacity="0.6"/>
</g>
<mask id="mask0" mask-type="alpha" maskUnits="userSpaceOnUse" x="100" y="50" width="400" height="251">
<rect x="100" y="50.6073" width="400" height="250" rx="30" fill="white"/>
</mask>
<g mask="url(#mask0)">
<rect opacity="0.0416667" width="212.655" height="277.818" rx="106.328" transform="matrix(-0.905282 0.424811 -0.592038 -0.80591 263.178 455.508)" stroke="url(#paint3_linear)" stroke-width="2" stroke-linecap="round" stroke-dasharray="50 10"/>
<rect opacity="0.0833333" width="215.106" height="273.757" rx="107.553" transform="matrix(-0.935483 0.353371 -0.512997 -0.858391 260.754 453.488)" stroke="url(#paint4_linear)" stroke-width="2" stroke-linecap="round" stroke-dasharray="50 10"/>
<rect opacity="0.125" width="217.187" height="270.149" rx="108.593" transform="matrix(-0.959602 0.281361 -0.426895 -0.904301 258.331 451.468)" stroke="url(#paint5_linear)" stroke-width="2" stroke-linecap="round" stroke-dasharray="50 10"/>
<rect opacity="0.166667" width="218.844" height="267.124" rx="109.422" transform="matrix(-0.977916 0.209 -0.334437 -0.942418 255.907 449.449)" stroke="url(#paint6_linear)" stroke-width="2" stroke-linecap="round" stroke-dasharray="50 10"/>
<rect opacity="0.208333" width="220.037" height="264.796" rx="110.019" transform="matrix(-0.990649 0.136435 -0.236663 -0.971592 253.483 447.429)" stroke="url(#paint7_linear)" stroke-width="2" stroke-linecap="round" stroke-dasharray="50 10"/>
<rect opacity="0.25" width="220.739" height="263.253" rx="110.37" transform="matrix(-0.997965 0.0637619 -0.134932 -0.990855 251.06 445.409)" stroke="url(#paint8_linear)" stroke-width="2" stroke-linecap="round" stroke-dasharray="50 10"/>
<rect opacity="0.291667" width="220.933" height="262.558" rx="110.466" transform="matrix(-0.99996 -0.00895489 -0.0308699 -0.999523 248.636 443.389)" stroke="url(#paint9_linear)" stroke-width="2" stroke-linecap="round" stroke-dasharray="50 10"/>
<rect opacity="0.333333" width="220.613" height="262.738" rx="110.307" transform="matrix(-0.99666 -0.0816658 0.073734 -0.997278 246.213 441.37)" stroke="url(#paint10_linear)" stroke-width="2" stroke-linecap="round" stroke-dasharray="50 10"/>
<rect opacity="0.375" width="219.788" height="263.786" rx="109.894" transform="matrix(-0.988021 -0.154319 0.177049 -0.984202 243.789 439.35)" stroke="url(#paint11_linear)" stroke-width="2" stroke-linecap="round" stroke-dasharray="50 10"/>
<rect opacity="0.416667" width="218.477" height="265.66" rx="109.239" transform="matrix(-0.973931 -0.226845 0.27734 -0.960772 241.365 437.33)" stroke="url(#paint12_linear)" stroke-width="2" stroke-linecap="round" stroke-dasharray="50 10"/>
<rect opacity="0.458333" width="216.712" height="268.287" rx="108.356" transform="matrix(-0.954211 -0.299135 0.37308 -0.927799 238.942 435.311)" stroke="url(#paint13_linear)" stroke-width="2" stroke-linecap="round" stroke-dasharray="50 10"/>
<rect opacity="0.5" width="214.535" height="271.566" rx="107.267" transform="matrix(-0.928622 -0.371028 0.463037 -0.886339 236.518 433.291)" stroke="url(#paint14_linear)" stroke-width="2" stroke-linecap="round" stroke-dasharray="50 10"/>
<rect opacity="0.541667" width="212.001" height="275.376" rx="106.001" transform="matrix(-0.896875 -0.442285 0.546309 -0.837584 234.094 431.271)" stroke="url(#paint15_linear)" stroke-width="2" stroke-linecap="round" stroke-dasharray="50 10"/>
<rect opacity="0.583333" width="209.177" height="279.583" rx="104.588" transform="matrix(-0.858645 -0.512571 0.622323 -0.78276 231.671 429.251)" stroke="url(#paint16_linear)" stroke-width="2" stroke-linecap="round" stroke-dasharray="50 10"/>
<rect opacity="0.625" width="206.137" height="284.044" rx="103.068" transform="matrix(-0.813594 -0.581434 0.6908 -0.723046 229.247 427.232)" stroke="url(#paint17_linear)" stroke-width="2" stroke-linecap="round" stroke-dasharray="50 10"/>
<rect opacity="0.666667" width="202.966" height="288.615" rx="101.483" transform="matrix(-0.761399 -0.648284 0.751696 -0.65951 226.823 425.212)" stroke="url(#paint18_linear)" stroke-width="2" stroke-linecap="round" stroke-dasharray="50 10"/>
<rect opacity="0.708333" width="199.757" height="293.155" rx="99.8786" transform="matrix(-0.701794 -0.71238 0.805147 -0.593075 224.4 423.192)" stroke="url(#paint19_linear)" stroke-width="2" stroke-linecap="round" stroke-dasharray="50 10"/>
<rect opacity="0.75" width="196.608" height="297.53" rx="98.3042" transform="matrix(-0.634622 -0.772823 0.851403 -0.524512 221.976 421.173)" stroke="url(#paint20_linear)" stroke-width="2" stroke-linecap="round" stroke-dasharray="50 10"/>
<rect opacity="0.791667" width="193.62" height="301.619" rx="96.8101" transform="matrix(-0.55989 -0.828567 0.89078 -0.454435 219.553 419.153)" stroke="url(#paint21_linear)" stroke-width="2" stroke-linecap="round" stroke-dasharray="50 10"/>
<rect opacity="0.833333" width="190.893" height="305.309" rx="95.4466" transform="matrix(-0.477832 -0.878451 0.923617 -0.383318 217.129 417.133)" stroke="url(#paint22_linear)" stroke-width="2" stroke-linecap="round" stroke-dasharray="50 10"/>
<rect opacity="0.875" width="188.523" height="308.506" rx="94.2616" transform="matrix(-0.388968 -0.921251 0.950241 -0.311515 214.705 415.113)" stroke="url(#paint23_linear)" stroke-width="2" stroke-linecap="round" stroke-dasharray="50 10"/>
<rect opacity="0.916667" width="186.597" height="311.129" rx="93.2985" transform="matrix(-0.294143 -0.955762 0.970951 -0.239279 212.282 413.094)" stroke="url(#paint24_linear)" stroke-width="2" stroke-linecap="round" stroke-dasharray="50 10"/>
<rect opacity="0.958333" width="185.188" height="313.114" rx="92.5938" transform="matrix(-0.194532 -0.980896 0.985993 -0.166785 209.858 411.074)" stroke="url(#paint25_linear)" stroke-width="2" stroke-linecap="round" stroke-dasharray="50 10"/>
<rect width="184.35" height="314.411" rx="92.1752" transform="matrix(-0.0916174 -0.995794 0.995558 -0.0941478 207.434 409.054)" stroke="url(#paint26_linear)" stroke-width="2" stroke-linecap="round" stroke-dasharray="50 10"/>
</g>
<path fill-rule="evenodd" clip-rule="evenodd" d="M459.269 112.485C470.315 112.485 479.269 103.53 479.269 92.4847C479.269 81.439 470.315 72.4847 459.269 72.4847C448.223 72.4847 439.269 81.439 439.269 92.4847C439.269 103.53 448.223 112.485 459.269 112.485Z" fill="#18204D"/>
<path d="M465.437 91.5099L458.295 98.6516L461.22 101.576L468.361 94.4347L465.437 91.5099Z" fill="#FFE458"/>
<path fill-rule="evenodd" clip-rule="evenodd" d="M450.376 84.4403L456.604 90.6682C456.593 90.7296 456.587 90.7928 456.587 90.8574C456.587 91.4398 457.059 91.9119 457.642 91.9119C458.224 91.9119 458.696 91.4398 458.696 90.8574C458.696 90.275 458.224 89.8028 457.642 89.8028C457.577 89.8028 457.514 89.8086 457.452 89.8197L451.225 83.5918L462.187 85.6665H462.196L464.142 92.8119L459.596 97.3574L452.451 95.4028L450.376 84.4403Z" fill="#B5CDFB"/>
<g clip-path="url(#clip0)">
<path d="M135.451 81.8623H131.027V95.5293C131.027 100.188 134.469 103.352 139.889 103.352C145.294 103.352 148.737 100.188 148.737 95.5293V81.8623H144.313V95.0898C144.313 97.7998 142.716 99.5723 139.889 99.5723C137.047 99.5723 135.451 97.7998 135.451 95.0898V81.8623ZM156.691 103V81.8623H152.267V103H156.691ZM166.154 81.8623V103H174.225C180.568 103 184.303 99.0596 184.303 92.3506C184.303 85.6416 180.568 81.8623 174.225 81.8623H166.154ZM170.578 85.5098H173.698C177.594 85.5098 179.792 87.9414 179.792 92.3652C179.792 96.9355 177.653 99.3379 173.698 99.3379H170.578V85.5098ZM197.194 98.1953C196.798 99.3965 195.597 100.173 194.03 100.173C191.847 100.173 190.426 98.6348 190.426 96.3936V96.1299H201.251V94.8262C201.251 90.0508 198.366 86.96 193.795 86.96C189.152 86.96 186.222 90.2119 186.222 95.2217C186.222 100.246 189.123 103.337 193.957 103.337C197.838 103.337 200.651 101.271 201.12 98.1953H197.194ZM193.839 90.124C195.744 90.124 197.047 91.501 197.135 93.5078H190.47C190.617 91.5449 191.964 90.124 193.839 90.124ZM203.2 91.9111C203.2 94.2695 204.738 95.793 207.77 96.4375L210.451 96.9941C211.989 97.3457 212.531 97.8145 212.531 98.6494C212.531 99.6748 211.535 100.334 209.923 100.334C208.224 100.334 207.243 99.6016 206.979 98.2246H202.804C203.083 101.315 205.587 103.337 209.923 103.337C213.966 103.337 216.793 101.301 216.793 98.21C216.793 95.9102 215.446 94.6211 212.165 93.9326L209.484 93.3613C207.902 93.0244 207.316 92.4824 207.316 91.6768C207.316 90.6367 208.297 89.9629 209.777 89.9629C211.359 89.9629 212.311 90.8271 212.443 92.1016H216.383C216.295 89.0254 213.805 86.96 209.777 86.96C205.778 86.96 203.2 88.9229 203.2 91.9111ZM221.1 85.1729C222.345 85.1729 223.327 84.1768 223.327 82.9756C223.327 81.7598 222.345 80.7783 221.1 80.7783C219.855 80.7783 218.874 81.7598 218.874 82.9756C218.874 84.1768 219.855 85.1729 221.1 85.1729ZM218.976 103H223.253V87.2969H218.976V103ZM233.288 108.918C237.99 108.918 241.125 106.516 241.125 102.78V87.2969H236.906V90.0361H236.833C236.012 88.2344 234.24 87.0479 231.984 87.0479C228 87.0479 225.539 90.1094 225.539 95.0898C225.539 99.9971 228.073 102.956 231.911 102.956C234.181 102.956 236.027 101.813 236.759 100.144H236.847V102.897C236.847 104.714 235.617 105.93 233.405 105.93C231.779 105.93 230.548 105.197 230.211 104.113H226.022C226.359 106.911 229.157 108.918 233.288 108.918ZM233.361 99.6602C231.237 99.6602 229.918 97.9902 229.918 95.1191C229.918 92.2627 231.251 90.4756 233.361 90.4756C235.5 90.4756 236.862 92.292 236.862 95.1191C236.862 97.9609 235.5 99.6602 233.361 99.6602ZM243.922 103H248.2V93.9912C248.2 91.9551 249.416 90.5488 251.334 90.5488C253.253 90.5488 254.22 91.7207 254.22 93.7715V103H258.498V92.8779C258.498 89.2012 256.535 87.0039 253.048 87.0039C250.631 87.0039 248.976 88.1465 248.141 90.0947H248.053V87.2969H243.922V103Z" fill="white"/>
<path d="M136.583 133.234C139.914 133.234 142.218 131.408 142.658 128.391H140.187C139.796 130.09 138.458 131.096 136.593 131.096C134.152 131.096 132.609 129.113 132.609 125.949C132.609 122.805 134.162 120.812 136.583 120.812C138.41 120.812 139.845 121.975 140.177 123.742H142.658C142.345 120.715 139.855 118.674 136.583 118.674C132.58 118.674 130.031 121.457 130.031 125.949C130.031 130.471 132.56 133.234 136.583 133.234ZM151.183 129.904C150.919 130.764 150.06 131.33 148.927 131.33C147.335 131.33 146.32 130.217 146.32 128.557V128.41H153.556V127.619C153.556 124.475 151.72 122.434 148.781 122.434C145.792 122.434 143.898 124.592 143.898 127.863C143.898 131.164 145.773 133.205 148.878 133.205C151.33 133.205 153.146 131.857 153.458 129.904H151.183ZM148.791 124.318C150.187 124.318 151.125 125.344 151.173 126.809H146.339C146.437 125.363 147.423 124.318 148.791 124.318ZM155.128 133H157.56V126.975C157.56 125.52 158.39 124.631 159.767 124.631C160.177 124.631 160.548 124.689 160.753 124.768V122.57C160.578 122.531 160.304 122.473 159.992 122.473C158.771 122.473 157.863 123.195 157.511 124.455H157.462V122.648H155.128V133ZM163.048 120.227V122.648H161.564V124.523H163.048V130.246C163.048 132.258 163.927 133.049 166.164 133.049C166.681 133.049 167.16 133.01 167.423 132.951V131.096C167.267 131.125 166.955 131.145 166.73 131.145C165.871 131.145 165.48 130.754 165.48 129.904V124.523H167.433V122.648H165.48V120.227H163.048ZM170.363 121.086C171.105 121.086 171.691 120.49 171.691 119.768C171.691 119.035 171.105 118.449 170.363 118.449C169.621 118.449 169.025 119.035 169.025 119.768C169.025 120.49 169.621 121.086 170.363 121.086ZM169.152 133H171.583V122.648H169.152V133ZM174.298 133H176.73V124.523H178.761V122.678H176.691V121.828C176.691 120.988 177.111 120.549 178.039 120.549C178.322 120.549 178.605 120.578 178.81 120.607V118.908C178.507 118.85 177.98 118.801 177.501 118.801C175.255 118.801 174.298 119.748 174.298 121.76V122.678H172.882V124.523H174.298V133ZM181.632 121.086C182.375 121.086 182.96 120.49 182.96 119.768C182.96 119.035 182.375 118.449 181.632 118.449C180.89 118.449 180.294 119.035 180.294 119.768C180.294 120.49 180.89 121.086 181.632 121.086ZM180.421 133H182.853V122.648H180.421V133ZM194.015 126.34C193.849 124.162 192.16 122.434 189.425 122.434C186.417 122.434 184.464 124.514 184.464 127.824C184.464 131.184 186.417 133.205 189.445 133.205C192.042 133.205 193.83 131.682 194.025 129.367H191.73C191.505 130.539 190.705 131.242 189.474 131.242C187.931 131.242 186.935 129.992 186.935 127.824C186.935 125.695 187.921 124.406 189.455 124.406C190.753 124.406 191.525 125.236 191.72 126.34H194.015ZM198.527 133.166C199.855 133.166 201.154 132.473 201.75 131.35H201.798V133H204.142V125.871C204.142 123.791 202.472 122.434 199.904 122.434C197.267 122.434 195.617 123.82 195.509 125.754H197.765C197.921 124.895 198.654 124.338 199.806 124.338C201.007 124.338 201.74 124.963 201.74 126.047V126.789L199.005 126.945C196.486 127.102 195.07 128.205 195.07 130.041C195.07 131.906 196.525 133.166 198.527 133.166ZM199.259 131.33C198.205 131.33 197.501 130.793 197.501 129.943C197.501 129.123 198.175 128.596 199.347 128.518L201.74 128.371V129.162C201.74 130.412 200.636 131.33 199.259 131.33ZM206.779 120.227V122.648H205.294V124.523H206.779V130.246C206.779 132.258 207.658 133.049 209.894 133.049C210.412 133.049 210.89 133.01 211.154 132.951V131.096C210.998 131.125 210.685 131.145 210.46 131.145C209.601 131.145 209.21 130.754 209.21 129.904V124.523H211.164V122.648H209.21V120.227H206.779ZM219.484 129.904C219.22 130.764 218.361 131.33 217.228 131.33C215.636 131.33 214.621 130.217 214.621 128.557V128.41H221.857V127.619C221.857 124.475 220.021 122.434 217.082 122.434C214.093 122.434 212.199 124.592 212.199 127.863C212.199 131.164 214.074 133.205 217.179 133.205C219.63 133.205 221.447 131.857 221.759 129.904H219.484ZM217.091 124.318C218.488 124.318 219.425 125.344 219.474 126.809H214.64C214.738 125.363 215.724 124.318 217.091 124.318Z" fill="white"/>
<g clip-path="url(#clip1)">
<g filter="url(#filter3_f)">
<path d="M133.617 178V169.869H136.505V168.84H129.586V169.869H132.475V178H133.617ZM137.597 178H138.702V174.153C138.702 173.011 139.381 172.262 140.479 172.262C141.514 172.262 142.041 172.89 142.041 173.938V178H143.145V173.734C143.145 172.262 142.269 171.284 140.822 171.284C139.819 171.284 139.095 171.716 138.727 172.452H138.702V168.84H137.597V178ZM145.157 170.224C145.544 170.224 145.849 169.913 145.849 169.532C145.849 169.145 145.544 168.84 145.157 168.84C144.776 168.84 144.465 169.145 144.465 169.532C144.465 169.913 144.776 170.224 145.157 170.224ZM144.605 178H145.709V171.398H144.605V178ZM147.087 173.22C147.087 174.172 147.69 174.75 148.934 175.048L149.981 175.302C150.737 175.486 150.997 175.759 150.997 176.235C150.997 176.832 150.445 177.213 149.55 177.213C148.655 177.213 148.147 176.851 148.014 176.096H146.909C147.036 177.333 148.001 178.114 149.55 178.114C151.022 178.114 152.108 177.302 152.108 176.153C152.108 175.207 151.625 174.687 150.292 174.363L149.245 174.109C148.509 173.931 148.172 173.62 148.172 173.163C148.172 172.585 148.706 172.186 149.512 172.186C150.324 172.186 150.832 172.611 150.915 173.303H151.968C151.924 172.135 150.959 171.284 149.512 171.284C148.083 171.284 147.087 172.09 147.087 173.22ZM156.532 170.224C156.919 170.224 157.224 169.913 157.224 169.532C157.224 169.145 156.919 168.84 156.532 168.84C156.151 168.84 155.84 169.145 155.84 169.532C155.84 169.913 156.151 170.224 156.532 170.224ZM155.98 178H157.084V171.398H155.98V178ZM158.462 173.22C158.462 174.172 159.065 174.75 160.309 175.048L161.356 175.302C162.112 175.486 162.372 175.759 162.372 176.235C162.372 176.832 161.82 177.213 160.925 177.213C160.03 177.213 159.522 176.851 159.389 176.096H158.284C158.411 177.333 159.376 178.114 160.925 178.114C162.397 178.114 163.483 177.302 163.483 176.153C163.483 175.207 163 174.687 161.667 174.363L160.62 174.109C159.884 173.931 159.547 173.62 159.547 173.163C159.547 172.585 160.081 172.186 160.887 172.186C161.699 172.186 162.207 172.611 162.29 173.303H163.343C163.299 172.135 162.334 171.284 160.887 171.284C159.458 171.284 158.462 172.09 158.462 173.22ZM167.653 169.805V171.398H166.669V172.306H167.653V176.286C167.653 177.556 168.123 178.051 169.335 178.051C169.596 178.051 169.9 178.032 170.034 178V177.073C169.958 177.086 169.704 177.105 169.577 177.105C169.012 177.105 168.758 176.832 168.758 176.229V172.306H170.04V171.398H168.758V169.805H167.653ZM173.766 178.114C175.588 178.114 176.819 176.8 176.819 174.699C176.819 172.592 175.588 171.284 173.766 171.284C171.938 171.284 170.707 172.592 170.707 174.699C170.707 176.8 171.938 178.114 173.766 178.114ZM173.766 177.143C172.598 177.143 171.83 176.254 171.83 174.699C171.83 173.144 172.598 172.255 173.766 172.255C174.934 172.255 175.696 173.144 175.696 174.699C175.696 176.254 174.934 177.143 173.766 177.143ZM186.087 173.563C185.947 172.376 184.963 171.284 183.313 171.284C181.491 171.284 180.279 172.617 180.279 174.699C180.279 176.826 181.498 178.114 183.326 178.114C184.824 178.114 185.928 177.188 186.1 175.874H185.014C184.824 176.667 184.233 177.143 183.332 177.143C182.189 177.143 181.402 176.235 181.402 174.699C181.402 173.201 182.177 172.255 183.319 172.255C184.291 172.255 184.849 172.846 185.008 173.563H186.087ZM191.495 176.108C191.311 176.73 190.695 177.156 189.857 177.156C188.67 177.156 187.928 176.324 187.928 175.061V174.998H192.663V174.579C192.663 172.579 191.565 171.284 189.781 171.284C187.959 171.284 186.792 172.674 186.792 174.725C186.792 176.8 187.94 178.114 189.832 178.114C191.273 178.114 192.39 177.264 192.581 176.108H191.495ZM189.762 172.243C190.803 172.243 191.495 173.03 191.521 174.134H187.934C188.004 173.036 188.728 172.243 189.762 172.243ZM193.78 178H194.885V173.887C194.885 172.954 195.443 172.338 196.3 172.338C196.567 172.338 196.802 172.37 196.891 172.401V171.329C196.802 171.316 196.637 171.284 196.446 171.284C195.672 171.284 195.062 171.748 194.847 172.478H194.821V171.398H193.78V178ZM198.401 169.805V171.398H197.417V172.306H198.401V176.286C198.401 177.556 198.871 178.051 200.083 178.051C200.344 178.051 200.648 178.032 200.782 178V177.073C200.706 177.086 200.452 177.105 200.325 177.105C199.76 177.105 199.506 176.832 199.506 176.229V172.306H200.788V171.398H199.506V169.805H198.401ZM202.578 170.224C202.965 170.224 203.27 169.913 203.27 169.532C203.27 169.145 202.965 168.84 202.578 168.84C202.197 168.84 201.886 169.145 201.886 169.532C201.886 169.913 202.197 170.224 202.578 170.224ZM202.026 178H203.13V171.398H202.026V178ZM204.978 178H206.082V172.306H207.428V171.398H206.076V170.668C206.076 170.015 206.361 169.697 206.958 169.697C207.142 169.697 207.326 169.716 207.459 169.735V168.84C207.301 168.815 207.034 168.79 206.787 168.79C205.568 168.79 204.978 169.393 204.978 170.662V171.398H204.057V172.306H204.978V178ZM209.123 180.469C210.316 180.469 210.862 180.006 211.427 178.463L214.023 171.398H212.861L211.033 176.896H211.014L209.186 171.398H208.005L210.443 178.006L210.291 178.47C210.037 179.238 209.694 179.536 209.078 179.536C208.938 179.536 208.767 179.53 208.646 179.504V180.431C208.767 180.457 208.989 180.469 209.123 180.469ZM217.914 169.805V171.398H216.93V172.306H217.914V176.286C217.914 177.556 218.384 178.051 219.596 178.051C219.856 178.051 220.161 178.032 220.294 178V177.073C220.218 177.086 219.964 177.105 219.837 177.105C219.272 177.105 219.019 176.832 219.019 176.229V172.306H220.301V171.398H219.019V169.805H217.914ZM221.539 178H222.643V174.153C222.643 173.011 223.322 172.262 224.42 172.262C225.455 172.262 225.982 172.89 225.982 173.938V178H227.086V173.734C227.086 172.262 226.21 171.284 224.763 171.284C223.76 171.284 223.037 171.716 222.668 172.452H222.643V168.84H221.539V178ZM230.419 178.114C231.308 178.114 232.146 177.619 232.539 176.864H232.564V178H233.612V173.436C233.612 172.122 232.634 171.284 231.085 171.284C229.524 171.284 228.546 172.16 228.47 173.303H229.537C229.676 172.655 230.209 172.255 231.06 172.255C231.974 172.255 232.507 172.738 232.507 173.544V174.096L230.616 174.204C229.092 174.293 228.223 175.004 228.223 176.134C228.223 177.321 229.105 178.114 230.419 178.114ZM230.667 177.175C229.873 177.175 229.346 176.762 229.346 176.134C229.346 175.512 229.854 175.118 230.743 175.061L232.507 174.953V175.493C232.507 176.445 231.708 177.175 230.667 177.175ZM235.37 169.805V171.398H234.386V172.306H235.37V176.286C235.37 177.556 235.84 178.051 237.052 178.051C237.312 178.051 237.617 178.032 237.75 178V177.073C237.674 177.086 237.42 177.105 237.293 177.105C236.729 177.105 236.475 176.832 236.475 176.229V172.306H237.757V171.398H236.475V169.805H235.37ZM250.801 178V168.84H249.475L246.313 176.546H246.263L243.102 168.84H241.775V178H242.841V170.941H242.886L245.806 178H246.771L249.69 170.941H249.735V178H250.801ZM256.787 176.108C256.603 176.73 255.987 177.156 255.149 177.156C253.962 177.156 253.22 176.324 253.22 175.061V174.998H257.955V174.579C257.955 172.579 256.857 171.284 255.073 171.284C253.251 171.284 252.083 172.674 252.083 174.725C252.083 176.8 253.232 178.114 255.124 178.114C256.565 178.114 257.682 177.264 257.873 176.108H256.787ZM255.054 172.243C256.095 172.243 256.787 173.03 256.812 174.134H253.226C253.296 173.036 254.02 172.243 255.054 172.243ZM259.072 178H260.177V174.115C260.177 172.998 260.856 172.262 261.897 172.262C262.913 172.262 263.414 172.846 263.414 173.912V178H264.519V173.715C264.519 172.217 263.681 171.284 262.233 171.284C261.211 171.284 260.507 171.741 260.139 172.452H260.113V171.398H259.072V178ZM268.651 180.488C270.473 180.488 271.634 179.441 271.634 177.867V171.398H270.581V172.509H270.562C270.124 171.741 269.349 171.284 268.416 171.284C266.708 171.284 265.604 172.604 265.604 174.674C265.604 176.724 266.708 178.051 268.391 178.051C269.317 178.051 270.098 177.581 270.504 176.864H270.53V177.905C270.53 178.889 269.838 179.549 268.695 179.549C267.87 179.549 267.216 179.149 267 178.546H265.864C266.048 179.669 267.197 180.488 268.651 180.488ZM268.613 177.08C267.477 177.08 266.734 176.153 266.734 174.674C266.734 173.195 267.477 172.255 268.613 172.255C269.762 172.255 270.53 173.22 270.53 174.674C270.53 176.127 269.762 177.08 268.613 177.08ZM279.372 178V169.869H282.26V168.84H275.341V169.869H278.229V178H279.372ZM284.317 178.114C286.139 178.114 287.37 176.8 287.37 174.699C287.37 172.592 286.139 171.284 284.317 171.284C282.489 171.284 281.257 172.592 281.257 174.699C281.257 176.8 282.489 178.114 284.317 178.114ZM284.317 177.143C283.149 177.143 282.381 176.254 282.381 174.699C282.381 173.144 283.149 172.255 284.317 172.255C285.485 172.255 286.247 173.144 286.247 174.699C286.247 176.254 285.485 177.143 284.317 177.143ZM135.471 189.563C135.331 188.376 134.347 187.284 132.697 187.284C130.875 187.284 129.663 188.617 129.663 190.699C129.663 192.826 130.881 194.114 132.709 194.114C134.208 194.114 135.312 193.188 135.483 191.874H134.398C134.208 192.667 133.617 193.143 132.716 193.143C131.573 193.143 130.786 192.235 130.786 190.699C130.786 189.201 131.561 188.255 132.703 188.255C133.674 188.255 134.233 188.846 134.392 189.563H135.471ZM139.235 194.114C141.057 194.114 142.288 192.8 142.288 190.699C142.288 188.592 141.057 187.284 139.235 187.284C137.407 187.284 136.175 188.592 136.175 190.699C136.175 192.8 137.407 194.114 139.235 194.114ZM139.235 193.143C138.067 193.143 137.299 192.254 137.299 190.699C137.299 189.144 138.067 188.255 139.235 188.255C140.403 188.255 141.165 189.144 141.165 190.699C141.165 192.254 140.403 193.143 139.235 193.143ZM143.405 194H144.51V189.861C144.51 188.947 145.145 188.262 146.021 188.262C146.839 188.262 147.373 188.782 147.373 189.576V194H148.477V189.804C148.477 188.909 149.093 188.262 149.969 188.262C150.838 188.262 151.34 188.795 151.34 189.696V194H152.444V189.442C152.444 188.135 151.6 187.284 150.292 187.284C149.366 187.284 148.591 187.754 148.223 188.541H148.198C147.912 187.741 147.246 187.284 146.344 187.284C145.456 187.284 144.783 187.754 144.472 188.452H144.446V187.398H143.405V194ZM157.059 187.284C156.101 187.284 155.333 187.773 154.926 188.516H154.901V187.398H153.854V196.203H154.958V192.927H154.983C155.377 193.651 156.139 194.114 157.084 194.114C158.748 194.114 159.884 192.769 159.884 190.699C159.884 188.63 158.741 187.284 157.059 187.284ZM156.843 193.143C155.713 193.143 154.952 192.172 154.952 190.699C154.952 189.233 155.713 188.255 156.843 188.255C158.018 188.255 158.754 189.208 158.754 190.699C158.754 192.197 158.018 193.143 156.843 193.143ZM161.058 194H162.163V184.84H161.058V194ZM168.034 192.108C167.85 192.73 167.234 193.156 166.396 193.156C165.209 193.156 164.467 192.324 164.467 191.061V190.998H169.202V190.579C169.202 188.579 168.104 187.284 166.32 187.284C164.499 187.284 163.331 188.674 163.331 190.725C163.331 192.8 164.479 194.114 166.371 194.114C167.812 194.114 168.929 193.264 169.12 192.108H168.034ZM166.301 188.243C167.342 188.243 168.034 189.03 168.06 190.134H164.473C164.543 189.036 165.267 188.243 166.301 188.243ZM170.675 185.805V187.398H169.691V188.306H170.675V192.286C170.675 193.556 171.145 194.051 172.357 194.051C172.617 194.051 172.922 194.032 173.055 194V193.073C172.979 193.086 172.725 193.105 172.598 193.105C172.033 193.105 171.779 192.832 171.779 192.229V188.306H173.062V187.398H171.779V185.805H170.675ZM178.432 192.108C178.248 192.73 177.632 193.156 176.794 193.156C175.607 193.156 174.864 192.324 174.864 191.061V190.998H179.6V190.579C179.6 188.579 178.501 187.284 176.718 187.284C174.896 187.284 173.728 188.674 173.728 190.725C173.728 192.8 174.877 194.114 176.769 194.114C178.209 194.114 179.327 193.264 179.517 192.108H178.432ZM176.699 188.243C177.74 188.243 178.432 189.03 178.457 190.134H174.871C174.94 189.036 175.664 188.243 176.699 188.243ZM183.218 194.114C184.17 194.114 184.925 193.645 185.351 192.883H185.37V194H186.423V184.84H185.319V188.471H185.293C184.9 187.748 184.138 187.284 183.192 187.284C181.529 187.284 180.393 188.63 180.393 190.699C180.393 192.769 181.536 194.114 183.218 194.114ZM183.427 188.255C184.563 188.255 185.325 189.227 185.325 190.699C185.325 192.178 184.563 193.143 183.427 193.143C182.259 193.143 181.523 192.197 181.523 190.699C181.523 189.208 182.259 188.255 183.427 188.255ZM190.937 185.805V187.398H189.953V188.306H190.937V192.286C190.937 193.556 191.406 194.051 192.619 194.051C192.879 194.051 193.184 194.032 193.317 194V193.073C193.241 193.086 192.987 193.105 192.86 193.105C192.295 193.105 192.041 192.832 192.041 192.229V188.306H193.323V187.398H192.041V185.805H190.937ZM194.561 194H195.666V190.153C195.666 189.011 196.345 188.262 197.443 188.262C198.478 188.262 199.004 188.89 199.004 189.938V194H200.109V189.734C200.109 188.262 199.233 187.284 197.786 187.284C196.783 187.284 196.059 187.716 195.691 188.452H195.666V184.84H194.561V194ZM205.892 192.108C205.708 192.73 205.092 193.156 204.254 193.156C203.067 193.156 202.324 192.324 202.324 191.061V190.998H207.06V190.579C207.06 188.579 205.961 187.284 204.178 187.284C202.356 187.284 201.188 188.674 201.188 190.725C201.188 192.8 202.337 194.114 204.229 194.114C205.669 194.114 206.787 193.264 206.977 192.108H205.892ZM204.159 188.243C205.2 188.243 205.892 189.03 205.917 190.134H202.331C202.4 189.036 203.124 188.243 204.159 188.243ZM212.157 184.84H211.014V190.788C211.014 192.743 212.379 194.152 214.651 194.152C216.924 194.152 218.289 192.743 218.289 190.788V184.84H217.146V190.712C217.146 192.096 216.238 193.099 214.651 193.099C213.064 193.099 212.157 192.096 212.157 190.712V184.84ZM221.208 194V184.84H220.066V194H221.208ZM227.981 194.114C228.934 194.114 229.689 193.645 230.114 192.883H230.133V194H231.187V184.84H230.083V188.471H230.057C229.664 187.748 228.902 187.284 227.956 187.284C226.293 187.284 225.157 188.63 225.157 190.699C225.157 192.769 226.299 194.114 227.981 194.114ZM228.191 188.255C229.327 188.255 230.089 189.227 230.089 190.699C230.089 192.178 229.327 193.143 228.191 193.143C227.023 193.143 226.287 192.197 226.287 190.699C226.287 189.208 227.023 188.255 228.191 188.255ZM237.059 192.108C236.875 192.73 236.259 193.156 235.421 193.156C234.234 193.156 233.491 192.324 233.491 191.061V190.998H238.227V190.579C238.227 188.579 237.128 187.284 235.345 187.284C233.523 187.284 232.355 188.674 232.355 190.725C232.355 192.8 233.504 194.114 235.396 194.114C236.836 194.114 237.954 193.264 238.144 192.108H237.059ZM235.326 188.243C236.367 188.243 237.059 189.03 237.084 190.134H233.498C233.567 189.036 234.291 188.243 235.326 188.243ZM239.229 189.22C239.229 190.172 239.833 190.75 241.077 191.048L242.124 191.302C242.879 191.486 243.14 191.759 243.14 192.235C243.14 192.832 242.587 193.213 241.692 193.213C240.797 193.213 240.29 192.851 240.156 192.096H239.052C239.179 193.333 240.144 194.114 241.692 194.114C243.165 194.114 244.25 193.302 244.25 192.153C244.25 191.207 243.768 190.687 242.435 190.363L241.388 190.109C240.651 189.931 240.315 189.62 240.315 189.163C240.315 188.585 240.848 188.186 241.654 188.186C242.467 188.186 242.975 188.611 243.057 189.303H244.111C244.066 188.135 243.102 187.284 241.654 187.284C240.226 187.284 239.229 188.09 239.229 189.22ZM246.009 186.224C246.396 186.224 246.701 185.913 246.701 185.532C246.701 185.145 246.396 184.84 246.009 184.84C245.628 184.84 245.317 185.145 245.317 185.532C245.317 185.913 245.628 186.224 246.009 186.224ZM245.457 194H246.561V187.398H245.457V194ZM250.776 196.488C252.598 196.488 253.759 195.441 253.759 193.867V187.398H252.706V188.509H252.687C252.249 187.741 251.474 187.284 250.541 187.284C248.833 187.284 247.729 188.604 247.729 190.674C247.729 192.724 248.833 194.051 250.516 194.051C251.442 194.051 252.223 193.581 252.629 192.864H252.655V193.905C252.655 194.889 251.963 195.549 250.82 195.549C249.995 195.549 249.341 195.149 249.125 194.546H247.989C248.173 195.669 249.322 196.488 250.776 196.488ZM250.738 193.08C249.602 193.08 248.859 192.153 248.859 190.674C248.859 189.195 249.602 188.255 250.738 188.255C251.887 188.255 252.655 189.22 252.655 190.674C252.655 192.127 251.887 193.08 250.738 193.08ZM255.2 194H256.305V190.115C256.305 188.998 256.984 188.262 258.025 188.262C259.041 188.262 259.542 188.846 259.542 189.912V194H260.646V189.715C260.646 188.217 259.809 187.284 258.361 187.284C257.339 187.284 256.635 187.741 256.267 188.452H256.241V187.398H255.2V194ZM270.206 189.563C270.066 188.376 269.083 187.284 267.432 187.284C265.61 187.284 264.398 188.617 264.398 190.699C264.398 192.826 265.617 194.114 267.445 194.114C268.943 194.114 270.047 193.188 270.219 191.874H269.133C268.943 192.667 268.353 193.143 267.451 193.143C266.309 193.143 265.521 192.235 265.521 190.699C265.521 189.201 266.296 188.255 267.438 188.255C268.41 188.255 268.968 188.846 269.127 189.563H270.206ZM273.97 194.114C275.792 194.114 277.023 192.8 277.023 190.699C277.023 188.592 275.792 187.284 273.97 187.284C272.142 187.284 270.911 188.592 270.911 190.699C270.911 192.8 272.142 194.114 273.97 194.114ZM273.97 193.143C272.802 193.143 272.034 192.254 272.034 190.699C272.034 189.144 272.802 188.255 273.97 188.255C275.138 188.255 275.9 189.144 275.9 190.699C275.9 192.254 275.138 193.143 273.97 193.143ZM283.562 187.398H282.457V191.277C282.457 192.4 281.81 193.137 280.737 193.137C279.715 193.137 279.213 192.559 279.213 191.486V187.398H278.109V191.683C278.109 193.181 278.953 194.114 280.394 194.114C281.41 194.114 282.095 193.689 282.489 192.927H282.514V194H283.562V187.398ZM284.996 194H286.101V189.887C286.101 188.954 286.659 188.338 287.516 188.338C287.783 188.338 288.018 188.37 288.106 188.401V187.329C288.018 187.316 287.853 187.284 287.662 187.284C286.888 187.284 286.278 187.748 286.062 188.478H286.037V187.398H284.996V194ZM288.894 189.22C288.894 190.172 289.497 190.75 290.741 191.048L291.788 191.302C292.543 191.486 292.804 191.759 292.804 192.235C292.804 192.832 292.251 193.213 291.356 193.213C290.461 193.213 289.954 192.851 289.82 192.096H288.716C288.843 193.333 289.808 194.114 291.356 194.114C292.829 194.114 293.915 193.302 293.915 192.153C293.915 191.207 293.432 190.687 292.099 190.363L291.052 190.109C290.315 189.931 289.979 189.62 289.979 189.163C289.979 188.585 290.512 188.186 291.318 188.186C292.131 188.186 292.639 188.611 292.721 189.303H293.775C293.73 188.135 292.766 187.284 291.318 187.284C289.89 187.284 288.894 188.09 288.894 189.22ZM299.443 192.108C299.259 192.73 298.644 193.156 297.806 193.156C296.619 193.156 295.876 192.324 295.876 191.061V190.998H300.611V190.579C300.611 188.579 299.513 187.284 297.729 187.284C295.908 187.284 294.74 188.674 294.74 190.725C294.74 192.8 295.889 194.114 297.78 194.114C299.221 194.114 300.338 193.264 300.529 192.108H299.443ZM297.71 188.243C298.751 188.243 299.443 189.03 299.469 190.134H295.882C295.952 189.036 296.676 188.243 297.71 188.243ZM307.13 194.114C308.952 194.114 310.184 192.8 310.184 190.699C310.184 188.592 308.952 187.284 307.13 187.284C305.302 187.284 304.071 188.592 304.071 190.699C304.071 192.8 305.302 194.114 307.13 194.114ZM307.13 193.143C305.962 193.143 305.194 192.254 305.194 190.699C305.194 189.144 305.962 188.255 307.13 188.255C308.298 188.255 309.06 189.144 309.06 190.699C309.06 192.254 308.298 193.143 307.13 193.143ZM311.301 194H312.405V190.115C312.405 188.998 313.084 188.262 314.125 188.262C315.141 188.262 315.643 188.846 315.643 189.912V194H316.747V189.715C316.747 188.217 315.909 187.284 314.462 187.284C313.44 187.284 312.735 187.741 312.367 188.452H312.342V187.398H311.301V194ZM330.02 194V184.84H328.693L325.532 192.546H325.481L322.32 184.84H320.994V194H322.06V186.941H322.104L325.024 194H325.989L328.909 186.941H328.954V194H330.02ZM333.365 194.114C334.254 194.114 335.092 193.619 335.485 192.864H335.511V194H336.558V189.436C336.558 188.122 335.581 187.284 334.032 187.284C332.47 187.284 331.493 188.16 331.417 189.303H332.483C332.623 188.655 333.156 188.255 334.006 188.255C334.92 188.255 335.454 188.738 335.454 189.544V190.096L333.562 190.204C332.039 190.293 331.169 191.004 331.169 192.134C331.169 193.321 332.051 194.114 333.365 194.114ZM333.613 193.175C332.819 193.175 332.292 192.762 332.292 192.134C332.292 191.512 332.8 191.118 333.689 191.061L335.454 190.953V191.493C335.454 192.445 334.654 193.175 333.613 193.175ZM338.513 196.469C339.707 196.469 340.252 196.006 340.817 194.463L343.414 187.398H342.252L340.424 192.896H340.405L338.577 187.398H337.396L339.833 194.006L339.681 194.47C339.427 195.238 339.084 195.536 338.469 195.536C338.329 195.536 338.158 195.53 338.037 195.504V196.431C338.158 196.457 338.38 196.469 338.513 196.469ZM129.955 203.487H131.059C131.059 202.459 131.91 201.685 133.04 201.685C134.087 201.685 134.76 202.402 134.76 203.303C134.76 204.065 134.474 204.56 133.236 205.849L130.012 209.213V210H136.055V208.984H131.58V208.959L133.757 206.725C135.439 204.998 135.902 204.243 135.902 203.233C135.902 201.843 134.734 200.688 133.04 200.688C131.275 200.688 129.955 201.881 129.955 203.487ZM140.581 210.152C142.713 210.152 143.945 208.305 143.945 205.411C143.945 202.535 142.707 200.688 140.581 200.688C138.454 200.688 137.204 202.548 137.204 205.417C137.204 208.312 138.441 210.152 140.581 210.152ZM140.581 209.156C139.146 209.156 138.353 207.696 138.353 205.411C138.353 203.176 139.165 201.691 140.581 201.691C141.996 201.691 142.796 203.164 142.796 205.417C142.796 207.702 142.009 209.156 140.581 209.156ZM145.589 201.805V203.398H144.605V204.306H145.589V208.286C145.589 209.556 146.059 210.051 147.271 210.051C147.531 210.051 147.836 210.032 147.969 210V209.073C147.893 209.086 147.639 209.105 147.512 209.105C146.947 209.105 146.693 208.832 146.693 208.229V204.306H147.976V203.398H146.693V201.805H145.589ZM149.213 210H150.318V206.153C150.318 205.011 150.997 204.262 152.095 204.262C153.13 204.262 153.657 204.89 153.657 205.938V210H154.761V205.734C154.761 204.262 153.885 203.284 152.438 203.284C151.435 203.284 150.711 203.716 150.343 204.452H150.318V200.84H149.213V210ZM156.919 211.822L157.789 208.591H156.615L155.999 211.822H156.919ZM161.464 203.487H162.569C162.569 202.459 163.419 201.685 164.549 201.685C165.597 201.685 166.27 202.402 166.27 203.303C166.27 204.065 165.984 204.56 164.746 205.849L161.521 209.213V210H167.564V208.984H163.089V208.959L165.267 206.725C166.949 204.998 167.412 204.243 167.412 203.233C167.412 201.843 166.244 200.688 164.549 200.688C162.785 200.688 161.464 201.881 161.464 203.487ZM172.09 210.152C174.223 210.152 175.455 208.305 175.455 205.411C175.455 202.535 174.217 200.688 172.09 200.688C169.964 200.688 168.713 202.548 168.713 205.417C168.713 208.312 169.951 210.152 172.09 210.152ZM172.09 209.156C170.656 209.156 169.862 207.696 169.862 205.411C169.862 203.176 170.675 201.691 172.09 201.691C173.506 201.691 174.306 203.164 174.306 205.417C174.306 207.702 173.519 209.156 172.09 209.156ZM176.584 203.487H177.689C177.689 202.459 178.54 201.685 179.669 201.685C180.717 201.685 181.39 202.402 181.39 203.303C181.39 204.065 181.104 204.56 179.866 205.849L176.642 209.213V210H182.685V208.984H178.209V208.959L180.387 206.725C182.069 204.998 182.532 204.243 182.532 203.233C182.532 201.843 181.364 200.688 179.669 200.688C177.905 200.688 176.584 201.881 176.584 203.487ZM187.21 210.152C189.343 210.152 190.575 208.305 190.575 205.411C190.575 202.535 189.337 200.688 187.21 200.688C185.084 200.688 183.833 202.548 183.833 205.417C183.833 208.312 185.071 210.152 187.21 210.152ZM187.21 209.156C185.776 209.156 184.982 207.696 184.982 205.411C184.982 203.176 185.795 201.691 187.21 201.691C188.626 201.691 189.426 203.164 189.426 205.417C189.426 207.702 188.639 209.156 187.21 209.156ZM192.542 210.063C192.949 210.063 193.266 209.746 193.266 209.34C193.266 208.934 192.949 208.616 192.542 208.616C192.136 208.616 191.819 208.934 191.819 209.34C191.819 209.746 192.136 210.063 192.542 210.063Z" fill="white"/>
</g>
<g filter="url(#filter4_f)">
<path d="M141.959 240.77C141.479 241.51 141.239 241.99 141.239 242.21C141.239 242.43 141.329 242.59 141.509 242.69C141.509 242.71 141.329 242.86 140.969 243.14C140.649 243.3 140.289 243.38 139.889 243.38C139.489 243.38 139.199 243.33 139.019 243.23C138.839 243.15 138.779 243.01 138.839 242.81C139.119 241.91 140.169 240.11 141.989 237.41C143.809 234.69 145.029 232.77 145.649 231.65C146.989 229.23 147.659 227.3 147.659 225.86C147.659 225.26 147.559 224.75 147.359 224.33C146.959 223.51 146.009 223.1 144.509 223.1C142.169 223.1 139.749 224.11 137.249 226.13C135.249 227.75 133.719 229.47 132.659 231.29C131.599 233.09 131.069 234.7 131.069 236.12C131.069 238.16 131.969 239.2 133.769 239.24C133.849 239.24 133.929 239.24 134.009 239.24C136.309 239.24 138.089 238.41 139.349 236.75C139.829 236.09 140.069 235.53 140.069 235.07C140.069 234.61 139.969 234.32 139.769 234.2C139.749 234.18 139.739 234.14 139.739 234.08C139.739 234.02 139.799 233.99 139.919 233.99C140.439 233.99 140.699 234.33 140.699 235.01C140.699 235.43 140.489 236 140.069 236.72C139.669 237.44 138.949 238.12 137.909 238.76C136.869 239.4 135.659 239.72 134.279 239.72C132.899 239.72 131.799 239.29 130.979 238.43C130.159 237.57 129.749 236.44 129.749 235.04C129.749 231.88 131.809 228.65 135.929 225.35C136.989 224.51 138.379 223.82 140.099 223.28C141.839 222.74 143.499 222.47 145.079 222.47C146.659 222.47 147.729 222.75 148.289 223.31C148.869 223.85 149.159 224.58 149.159 225.5C149.159 226.9 148.589 228.79 147.449 231.17C147.089 231.91 146.279 233.26 145.019 235.22L147.329 232.28C148.449 230.82 150.389 228.74 153.149 226.04C153.749 225.46 154.409 224.98 155.129 224.6C155.869 224.2 156.499 224 157.019 224C157.739 224 158.099 224.38 158.099 225.14C158.099 225.8 157.779 226.8 157.139 228.14C156.519 229.46 155.889 230.72 155.249 231.92C154.609 233.1 154.219 233.88 154.079 234.26C153.939 234.62 153.839 234.91 153.779 235.13C153.719 235.35 153.679 235.47 153.659 235.49C153.719 235.39 154.379 234.63 155.639 233.21C156.899 231.77 158.759 229.98 161.219 227.84L166.019 223.88C166.399 223.56 166.739 223.4 167.039 223.4C167.339 223.4 167.579 223.65 167.759 224.15C167.959 224.65 168.059 225.06 168.059 225.38C168.059 225.68 167.579 226.32 166.619 227.3C164.119 229.86 161.999 232.66 160.259 235.7C158.519 238.74 157.649 240.91 157.649 242.21C157.649 242.55 157.709 242.78 157.829 242.9C157.949 243.04 158.139 243.08 158.399 243.02C158.659 242.98 159.199 242.78 160.019 242.42C160.859 242.06 161.409 241.85 161.669 241.79C161.769 241.83 161.819 241.88 161.819 241.94C161.819 242.24 161.289 242.66 160.229 243.2C159.189 243.74 158.399 244.01 157.859 244.01C157.339 244.01 157.019 243.92 156.899 243.74C156.539 243.22 156.359 242.59 156.359 241.85C156.359 240.13 157.279 237.66 159.119 234.44C160.299 232.42 162.119 229.7 164.579 226.28C162.659 227.84 160.059 230.23 156.779 233.45C153.499 236.67 151.349 239.19 150.329 241.01C149.809 241.95 149.179 242.42 148.439 242.42C148.099 242.42 147.929 242.3 147.929 242.06C147.929 241.98 148.129 241.62 148.529 240.98C148.949 240.34 149.859 238.84 151.259 236.48C154.699 230.5 156.419 226.9 156.419 225.68C156.419 225.36 156.309 225.2 156.089 225.2C155.769 225.2 155.299 225.47 154.679 226.01C152.459 227.87 150.099 230.3 147.599 233.3C145.099 236.3 143.219 238.79 141.959 240.77ZM164.871 242.39C164.651 242.39 164.451 242.36 164.271 242.3C162.991 241.94 162.351 241.22 162.351 240.14C162.351 238.74 163.231 237.12 164.991 235.28C166.751 233.44 168.331 232.52 169.731 232.52C170.191 232.52 170.561 232.65 170.841 232.91C171.141 233.15 171.291 233.45 171.291 233.81C171.291 234.93 170.441 236 168.741 237.02C167.061 238.04 165.691 238.55 164.631 238.55C164.471 238.55 164.331 238.53 164.211 238.49C163.911 239.03 163.761 239.6 163.761 240.2C163.761 241.24 164.251 241.76 165.231 241.76C166.231 241.76 167.521 241.09 169.101 239.75C170.321 238.77 171.361 237.73 172.221 236.63C172.401 236.39 172.551 236.27 172.671 236.27C172.811 236.27 172.881 236.33 172.881 236.45C172.881 236.57 172.801 236.74 172.641 236.96C171.561 238.38 170.261 239.64 168.741 240.74C167.221 241.84 165.931 242.39 164.871 242.39ZM170.541 233.75C170.541 233.51 170.281 233.39 169.761 233.39C169.261 233.39 168.541 233.78 167.601 234.56C166.341 235.6 165.361 236.69 164.661 237.83C164.781 237.87 164.911 237.89 165.051 237.89C165.811 237.89 166.821 237.49 168.081 236.69C169.361 235.87 170.161 234.98 170.481 234.02C170.521 233.92 170.541 233.83 170.541 233.75ZM175.876 232.52C176.416 232.52 176.686 232.73 176.686 233.15C176.686 233.27 176.656 233.39 176.596 233.51C174.796 236.01 173.716 237.9 173.356 239.18C178.016 234.52 180.846 232.19 181.846 232.19C181.946 232.17 182.036 232.16 182.116 232.16C182.676 232.16 182.956 232.41 182.956 232.91C182.956 233.01 182.936 233.11 182.896 233.21C182.856 233.31 182.456 233.85 181.696 234.83C180.816 235.87 180.066 236.87 179.446 237.83C178.846 238.79 178.546 239.59 178.546 240.23C178.546 240.87 178.686 241.19 178.966 241.19C179.846 241.19 181.376 239.98 183.556 237.56C183.596 237.52 183.666 237.43 183.766 237.29C184.066 236.93 184.246 236.75 184.306 236.75C184.366 236.75 184.396 236.85 184.396 237.05C184.396 237.25 184.256 237.51 183.976 237.83C181.496 240.65 179.736 242.06 178.696 242.06C177.716 242.06 177.226 241.52 177.226 240.44C177.226 239.36 177.626 238.12 178.426 236.72L180.346 233.6C178.986 234.6 177.776 235.7 176.716 236.9C175.656 238.08 174.686 239.23 173.806 240.35C172.946 241.47 172.446 242.03 172.306 242.03C172.006 242.03 171.766 241.91 171.586 241.67C171.426 241.41 171.346 241.1 171.346 240.74C171.346 240.36 171.476 239.86 171.736 239.24C171.996 238.62 172.326 237.87 172.726 236.99L170.926 238.88C170.486 239.32 170.216 239.54 170.116 239.54C169.996 239.54 169.936 239.48 169.936 239.36C169.936 239.22 170.016 239.07 170.176 238.91C170.916 238.17 171.556 237.46 172.096 236.78C172.616 236.1 173.686 234.8 175.306 232.88C175.486 232.64 175.676 232.52 175.876 232.52ZM193.166 232.85L193.586 232.76C193.846 232.76 194.046 232.84 194.186 233C194.346 233.16 194.426 233.29 194.426 233.39C194.426 233.47 194.416 233.57 194.396 233.69C194.376 233.79 194.086 234.29 193.526 235.19C192.826 236.41 192.246 237.44 191.786 238.28C190.166 241.3 188.926 243.37 188.066 244.49C186.226 246.93 184.476 248.15 182.816 248.15C182.236 248.15 181.736 247.9 181.316 247.4C180.876 246.92 180.646 246.38 180.626 245.78C180.686 245.54 180.776 245.42 180.896 245.42C180.956 245.42 181.006 245.49 181.046 245.63C181.146 246.15 181.336 246.55 181.616 246.83C181.896 247.11 182.176 247.25 182.456 247.25C183.596 247.25 184.816 246.5 186.116 245C186.976 244 187.926 242.54 188.966 240.62L190.466 237.65L188.216 239.93C186.776 241.31 185.786 242 185.246 242C184.726 242 184.226 241.82 183.746 241.46C183.206 241.06 182.936 240.53 182.936 239.87C182.936 238.41 183.956 236.67 185.996 234.65C188.056 232.63 189.926 231.62 191.606 231.62C192.286 231.62 192.726 231.84 192.926 232.28C192.986 232.44 193.036 232.58 193.076 232.7C193.116 232.8 193.146 232.85 193.166 232.85ZM184.196 240.23C184.196 240.95 184.446 241.31 184.946 241.31C186.106 241.31 187.686 240.04 189.686 237.5L192.866 233.12C192.746 232.84 192.496 232.7 192.116 232.7C190.876 232.7 189.246 233.66 187.226 235.58C185.206 237.48 184.196 239.03 184.196 240.23ZM201.037 239.99C201.037 237.83 201.677 235.69 202.957 233.57C201.477 232.63 200.737 231.24 200.737 229.4C200.737 227.18 201.717 225.21 203.677 223.49C205.877 221.55 208.717 220.58 212.197 220.58C213.797 220.58 215.517 220.81 217.357 221.27C217.777 221.37 219.567 222.15 222.727 223.61C225.887 225.05 228.157 225.77 229.537 225.77C230.457 225.77 231.147 225.51 231.607 224.99C231.847 224.73 231.967 224.45 231.967 224.15C231.967 223.85 231.837 223.58 231.577 223.34C231.437 223.14 231.367 223.01 231.367 222.95C231.367 222.89 231.417 222.86 231.517 222.86C231.637 222.86 231.827 223.04 232.087 223.4C232.367 223.74 232.507 224.15 232.507 224.63C232.507 225.09 232.187 225.54 231.547 225.98C230.927 226.4 230.137 226.61 229.177 226.61C227.677 226.61 225.347 225.89 222.187 224.45C219.027 222.99 217.037 222.18 216.217 222.02C215.417 221.86 214.497 221.78 213.457 221.78C209.317 221.78 206.057 223.12 203.677 225.8C203.397 226.1 203.067 226.71 202.687 227.63C202.307 228.53 202.117 229.4 202.117 230.24C202.117 231.4 202.527 232.3 203.347 232.94C204.387 231.42 205.617 230.21 207.037 229.31C208.457 228.41 209.897 227.96 211.357 227.96C213.157 227.96 214.057 228.66 214.057 230.06C214.057 231.74 213.067 233.57 211.087 235.55C209.127 237.51 207.307 238.49 205.627 238.49C204.547 238.49 204.007 238.03 204.007 237.11C204.007 236.79 204.087 236.51 204.247 236.27C204.427 236.03 204.637 235.94 204.877 236L204.817 236.69C204.817 236.99 205.277 237.14 206.197 237.14C207.557 237.14 208.987 236.44 210.487 235.04C212.007 233.64 212.927 232.27 213.247 230.93C213.327 230.63 213.367 230.36 213.367 230.12C213.367 229.22 212.787 228.77 211.627 228.77C210.487 228.77 209.297 229.21 208.057 230.09C206.837 230.97 205.687 232.13 204.607 233.57C204.687 233.61 204.997 233.69 205.537 233.81L207.337 233.87C208.217 233.91 208.657 234.01 208.657 234.17C208.657 234.45 208.237 234.59 207.397 234.59C207.337 234.59 207.277 234.59 207.217 234.59C205.997 234.59 204.997 234.44 204.217 234.14C202.677 236.5 201.907 238.67 201.907 240.65C201.907 243.21 202.897 244.49 204.877 244.49C207.117 244.49 209.447 242.93 211.867 239.81L217.747 231.05C219.947 227.85 221.857 226.21 223.477 226.13L224.617 226.4C224.977 226.6 225.157 226.9 225.157 227.3C225.157 227.7 225.057 227.9 224.857 227.9L223.897 227.75C222.517 227.75 220.747 229.24 218.587 232.22L212.617 240.56C210.057 243.54 207.607 245.03 205.267 245.03C203.667 245.03 202.557 244.6 201.937 243.74C201.337 242.88 201.037 241.63 201.037 239.99ZM227.861 235.64C227.861 236.34 227.191 237.51 225.851 239.15C224.271 241.09 222.921 242.06 221.801 242.06H221.321C220.801 242.06 220.391 241.79 220.091 241.25C219.851 240.87 219.731 240.45 219.731 239.99C219.731 238.79 220.601 237.11 222.341 234.95C224.101 232.77 225.521 231.68 226.601 231.68C227.621 231.68 228.131 232.22 228.131 233.3C228.131 233.58 228.081 233.94 227.981 234.38C228.001 234.44 228.191 234.47 228.551 234.47C228.911 234.47 229.461 234.28 230.201 233.9C230.181 234.24 229.391 234.73 227.831 235.37C227.851 235.45 227.861 235.54 227.861 235.64ZM225.911 234.08C225.231 234.08 224.261 234.88 223.001 236.48C221.761 238.08 221.141 239.26 221.141 240.02C221.141 240.78 221.381 241.16 221.861 241.16C222.721 241.16 223.811 240.38 225.131 238.82C226.451 237.26 227.111 236.14 227.111 235.46C226.791 235.28 226.391 234.82 225.911 234.08Z" fill="white"/>
</g>
<g filter="url(#filter5_f)">
<path d="M138.679 270V261.545H137.455L134.56 268.6H134.466L131.572 261.545H130.347V270H131.332V263.543H131.402L134.068 270H134.958L137.625 263.543H137.695V270H138.679ZM144.89 268.365C144.626 268.922 144.076 269.221 143.261 269.221C142.189 269.221 141.492 268.43 141.439 267.182V267.135H145.98V266.748C145.98 264.785 144.943 263.572 143.238 263.572C141.503 263.572 140.39 264.861 140.39 266.848C140.39 268.846 141.486 270.111 143.238 270.111C144.621 270.111 145.605 269.443 145.898 268.365H144.89ZM143.226 264.463C144.228 264.463 144.896 265.201 144.919 266.32H141.439C141.515 265.201 142.218 264.463 143.226 264.463ZM147.562 270H148.57V266.262C148.57 265.154 149.22 264.48 150.228 264.48C151.236 264.48 151.716 265.02 151.716 266.156V270H152.724V265.91C152.724 264.41 151.933 263.572 150.515 263.572C149.548 263.572 148.933 263.982 148.617 264.68H148.523V263.684H147.562V270ZM157.171 272.426C158.894 272.426 159.984 271.523 159.984 270.111V263.684H159.023V264.686H158.929C158.566 264.006 157.787 263.572 156.902 263.572C155.279 263.572 154.253 264.855 154.253 266.748C154.253 268.641 155.267 269.906 156.902 269.906C157.769 269.906 158.484 269.514 158.882 268.816H158.976V270.059C158.976 270.99 158.302 271.547 157.171 271.547C156.263 271.547 155.701 271.213 155.589 270.697H154.523C154.675 271.74 155.648 272.426 157.171 272.426ZM157.125 269.016C155.953 269.016 155.296 268.125 155.296 266.748C155.296 265.371 155.953 264.48 157.125 264.48C158.291 264.48 159 265.371 159 266.748C159 268.125 158.296 269.016 157.125 269.016ZM168.65 270V262.494H171.375V261.545H164.871V262.494H167.595V270H168.65ZM174.298 270.111C176.097 270.111 177.21 268.869 177.21 266.842C177.21 264.809 176.097 263.572 174.298 263.572C172.5 263.572 171.386 264.809 171.386 266.842C171.386 268.869 172.5 270.111 174.298 270.111ZM174.298 269.203C173.103 269.203 172.429 268.336 172.429 266.842C172.429 265.342 173.103 264.48 174.298 264.48C175.494 264.48 176.167 265.342 176.167 266.842C176.167 268.336 175.494 269.203 174.298 269.203ZM179.314 272.15L180.234 268.816H179.115L178.558 272.15H179.314ZM186.808 270V261.545H185.753V270H186.808ZM188.835 270H189.843V266.262C189.843 265.154 190.494 264.48 191.501 264.48C192.509 264.48 192.99 265.02 192.99 266.156V270H193.998V265.91C193.998 264.41 193.207 263.572 191.789 263.572C190.822 263.572 190.207 263.982 189.89 264.68H189.796V263.684H188.835V270ZM195.697 265.412C195.697 266.326 196.236 266.836 197.419 267.123L198.503 267.387C199.177 267.551 199.505 267.844 199.505 268.277C199.505 268.857 198.896 269.262 198.046 269.262C197.238 269.262 196.734 268.922 196.564 268.389H195.527C195.638 269.438 196.605 270.111 198.011 270.111C199.447 270.111 200.542 269.332 200.542 268.201C200.542 267.293 199.968 266.777 198.779 266.49L197.806 266.256C197.062 266.074 196.71 265.805 196.71 265.371C196.71 264.809 197.296 264.428 198.046 264.428C198.808 264.428 199.3 264.762 199.435 265.266H200.431C200.296 264.229 199.376 263.572 198.052 263.572C196.71 263.572 195.697 264.363 195.697 265.412ZM202.488 262.049V263.684H201.468V264.527H202.488V268.359C202.488 269.566 203.009 270.047 204.31 270.047C204.509 270.047 204.703 270.023 204.902 269.988V269.139C204.714 269.156 204.615 269.162 204.433 269.162C203.777 269.162 203.496 268.846 203.496 268.102V264.527H204.902V263.684H203.496V262.049H202.488ZM206.425 270H207.433V266.086C207.433 265.195 208.13 264.551 209.091 264.551C209.291 264.551 209.654 264.586 209.736 264.609V263.602C209.607 263.584 209.396 263.572 209.232 263.572C208.394 263.572 207.667 264.006 207.48 264.621H207.386V263.684H206.425V270ZM216.105 263.684H215.097V267.422C215.097 268.529 214.488 269.191 213.375 269.191C212.367 269.191 211.945 268.664 211.945 267.527V263.684H210.937V267.773C210.937 269.268 211.675 270.111 213.093 270.111C214.06 270.111 214.734 269.713 215.05 269.01H215.144V270H216.105V263.684ZM223.23 265.617C223.054 264.492 222.117 263.572 220.582 263.572C218.812 263.572 217.687 264.85 217.687 266.818C217.687 268.828 218.818 270.111 220.587 270.111C222.105 270.111 223.048 269.256 223.23 268.096H222.21C222.023 268.811 221.431 269.203 220.582 269.203C219.457 269.203 218.73 268.277 218.73 266.818C218.73 265.389 219.445 264.48 220.582 264.48C221.49 264.48 222.046 264.99 222.21 265.617H223.23ZM225.257 262.049V263.684H224.238V264.527H225.257V268.359C225.257 269.566 225.779 270.047 227.08 270.047C227.279 270.047 227.472 270.023 227.671 269.988V269.139C227.484 269.156 227.384 269.162 227.203 269.162C226.546 269.162 226.265 268.846 226.265 268.102V264.527H227.671V263.684H226.265V262.049H225.257ZM231.697 270.111C233.496 270.111 234.609 268.869 234.609 266.842C234.609 264.809 233.496 263.572 231.697 263.572C229.898 263.572 228.785 264.809 228.785 266.842C228.785 268.869 229.898 270.111 231.697 270.111ZM231.697 269.203C230.501 269.203 229.828 268.336 229.828 266.842C229.828 265.342 230.501 264.48 231.697 264.48C232.892 264.48 233.566 265.342 233.566 266.842C233.566 268.336 232.892 269.203 231.697 269.203ZM236.191 270H237.199V266.086C237.199 265.195 237.896 264.551 238.857 264.551C239.056 264.551 239.419 264.586 239.501 264.609V263.602C239.373 263.584 239.162 263.572 238.998 263.572C238.16 263.572 237.433 264.006 237.246 264.621H237.152V263.684H236.191V270Z" fill="white"/>
</g>
</g>
</g>
<defs>
<filter id="filter0_b" x="74.8042" y="-35.031" width="416.114" height="326.191" filterUnits="userSpaceOnUse" color-interpolation-filters="sRGB">
<feFlood flood-opacity="0" result="BackgroundImageFix"/>
<feGaussianBlur in="BackgroundImage" stdDeviation="20"/>
<feComposite in2="SourceAlpha" operator="in" result="effect1_backgroundBlur"/>
<feBlend mode="normal" in="SourceGraphic" in2="effect1_backgroundBlur" result="shape"/>
</filter>
<filter id="filter1_b" x="70.4873" y="-16.5387" width="449.905" height="335.391" filterUnits="userSpaceOnUse" color-interpolation-filters="sRGB">
<feFlood flood-opacity="0" result="BackgroundImageFix"/>
<feGaussianBlur in="BackgroundImage" stdDeviation="20"/>
<feComposite in2="SourceAlpha" operator="in" result="effect1_backgroundBlur"/>
<feBlend mode="normal" in="SourceGraphic" in2="effect1_backgroundBlur" result="shape"/>
</filter>
<filter id="filter2_bd" x="0" y="0.607315" width="600" height="450" filterUnits="userSpaceOnUse" color-interpolation-filters="sRGB">
<feFlood flood-opacity="0" result="BackgroundImageFix"/>
<feGaussianBlur in="BackgroundImage" stdDeviation="20"/>
<feComposite in2="SourceAlpha" operator="in" result="effect1_backgroundBlur"/>
<feColorMatrix in="SourceAlpha" type="matrix" values="0 0 0 0 0 0 0 0 0 0 0 0 0 0 0 0 0 0 127 0"/>
<feOffset dy="50"/>
<feGaussianBlur stdDeviation="50"/>
<feColorMatrix type="matrix" values="0 0 0 0 0 0 0 0 0 0 0 0 0 0 0 0 0 0 0.25 0"/>
<feBlend mode="normal" in2="effect1_backgroundBlur" result="effect2_dropShadow"/>
<feBlend mode="normal" in="SourceGraphic" in2="effect2_dropShadow" result="shape"/>
</filter>
<filter id="filter3_f" x="126.586" y="165.79" width="219.827" height="49.0322" filterUnits="userSpaceOnUse" color-interpolation-filters="sRGB">
<feFlood flood-opacity="0" result="BackgroundImageFix"/>
<feBlend mode="normal" in="SourceGraphic" in2="BackgroundImageFix" result="shape"/>
<feGaussianBlur stdDeviation="1.5" result="effect1_foregroundBlur"/>
</filter>
<filter id="filter4_f" x="126.749" y="217.58" width="108.758" height="33.57" filterUnits="userSpaceOnUse" color-interpolation-filters="sRGB">
<feFlood flood-opacity="0" result="BackgroundImageFix"/>
<feBlend mode="normal" in="SourceGraphic" in2="BackgroundImageFix" result="shape"/>
<feGaussianBlur stdDeviation="1.5" result="effect1_foregroundBlur"/>
</filter>
<filter id="filter5_f" x="127.347" y="258.545" width="115.154" height="16.8809" filterUnits="userSpaceOnUse" color-interpolation-filters="sRGB">
<feFlood flood-opacity="0" result="BackgroundImageFix"/>
<feBlend mode="normal" in="SourceGraphic" in2="BackgroundImageFix" result="shape"/>
<feGaussianBlur stdDeviation="1.5" result="effect1_foregroundBlur"/>
</filter>
<linearGradient id="paint0_linear" x1="160" y1="0" x2="160" y2="220" gradientUnits="userSpaceOnUse">
<stop stop-color="#3913B8"/>
<stop offset="1" stop-color="#E95960"/>
</linearGradient>
<linearGradient id="paint1_linear" x1="180" y1="0" x2="180" y2="240" gradientUnits="userSpaceOnUse">
<stop stop-color="#2FB8FF"/>
<stop offset="1" stop-color="#E95960"/>
</linearGradient>
<linearGradient id="paint2_linear" x1="500" y1="37.9999" x2="100" y2="301" gradientUnits="userSpaceOnUse">
<stop stop-color="#FD7463"/>
<stop offset="1" stop-color="#3B00FF"/>
</linearGradient>
<linearGradient id="paint3_linear" x1="106.328" y1="0" x2="106.328" y2="277.818" gradientUnits="userSpaceOnUse">
<stop stop-color="#BA75FF"/>
<stop offset="0.458333" stop-color="#76F7FF"/>
<stop offset="1" stop-color="#FF5A6D"/>
</linearGradient>
<linearGradient id="paint4_linear" x1="107.553" y1="0" x2="107.553" y2="273.757" gradientUnits="userSpaceOnUse">
<stop stop-color="#BA75FF"/>
<stop offset="0.458333" stop-color="#76F7FF"/>
<stop offset="1" stop-color="#FF5A6D"/>
</linearGradient>
<linearGradient id="paint5_linear" x1="108.593" y1="0" x2="108.593" y2="270.149" gradientUnits="userSpaceOnUse">
<stop stop-color="#BA75FF"/>
<stop offset="0.458333" stop-color="#76F7FF"/>
<stop offset="1" stop-color="#FF5A6D"/>
</linearGradient>
<linearGradient id="paint6_linear" x1="109.422" y1="0" x2="109.422" y2="267.124" gradientUnits="userSpaceOnUse">
<stop stop-color="#BA75FF"/>
<stop offset="0.458333" stop-color="#76F7FF"/>
<stop offset="1" stop-color="#FF5A6D"/>
</linearGradient>
<linearGradient id="paint7_linear" x1="110.019" y1="0" x2="110.019" y2="264.796" gradientUnits="userSpaceOnUse">
<stop stop-color="#BA75FF"/>
<stop offset="0.458333" stop-color="#76F7FF"/>
<stop offset="1" stop-color="#FF5A6D"/>
</linearGradient>
<linearGradient id="paint8_linear" x1="110.37" y1="0" x2="110.37" y2="263.253" gradientUnits="userSpaceOnUse">
<stop stop-color="#BA75FF"/>
<stop offset="0.458333" stop-color="#76F7FF"/>
<stop offset="1" stop-color="#FF5A6D"/>
</linearGradient>
<linearGradient id="paint9_linear" x1="110.466" y1="0" x2="110.466" y2="262.558" gradientUnits="userSpaceOnUse">
<stop stop-color="#BA75FF"/>
<stop offset="0.458333" stop-color="#76F7FF"/>
<stop offset="1" stop-color="#FF5A6D"/>
</linearGradient>
<linearGradient id="paint10_linear" x1="110.307" y1="0" x2="110.307" y2="262.738" gradientUnits="userSpaceOnUse">
<stop stop-color="#BA75FF"/>
<stop offset="0.458333" stop-color="#76F7FF"/>
<stop offset="1" stop-color="#FF5A6D"/>
</linearGradient>
<linearGradient id="paint11_linear" x1="109.894" y1="0" x2="109.894" y2="263.786" gradientUnits="userSpaceOnUse">
<stop stop-color="#BA75FF"/>
<stop offset="0.458333" stop-color="#76F7FF"/>
<stop offset="1" stop-color="#FF5A6D"/>
</linearGradient>
<linearGradient id="paint12_linear" x1="109.239" y1="0" x2="109.239" y2="265.66" gradientUnits="userSpaceOnUse">
<stop stop-color="#BA75FF"/>
<stop offset="0.458333" stop-color="#76F7FF"/>
<stop offset="1" stop-color="#FF5A6D"/>
</linearGradient>
<linearGradient id="paint13_linear" x1="108.356" y1="0" x2="108.356" y2="268.287" gradientUnits="userSpaceOnUse">
<stop stop-color="#BA75FF"/>
<stop offset="0.458333" stop-color="#76F7FF"/>
<stop offset="1" stop-color="#FF5A6D"/>
</linearGradient>
<linearGradient id="paint14_linear" x1="107.267" y1="0" x2="107.267" y2="271.566" gradientUnits="userSpaceOnUse">
<stop stop-color="#BA75FF"/>
<stop offset="0.458333" stop-color="#76F7FF"/>
<stop offset="1" stop-color="#FF5A6D"/>
</linearGradient>
<linearGradient id="paint15_linear" x1="106.001" y1="0" x2="106.001" y2="275.376" gradientUnits="userSpaceOnUse">
<stop stop-color="#BA75FF"/>
<stop offset="0.458333" stop-color="#76F7FF"/>
<stop offset="1" stop-color="#FF5A6D"/>
</linearGradient>
<linearGradient id="paint16_linear" x1="104.588" y1="0" x2="104.588" y2="279.583" gradientUnits="userSpaceOnUse">
<stop stop-color="#BA75FF"/>
<stop offset="0.458333" stop-color="#76F7FF"/>
<stop offset="1" stop-color="#FF5A6D"/>
</linearGradient>
<linearGradient id="paint17_linear" x1="103.068" y1="0" x2="103.068" y2="284.044" gradientUnits="userSpaceOnUse">
<stop stop-color="#BA75FF"/>
<stop offset="0.458333" stop-color="#76F7FF"/>
<stop offset="1" stop-color="#FF5A6D"/>
</linearGradient>
<linearGradient id="paint18_linear" x1="101.483" y1="0" x2="101.483" y2="288.615" gradientUnits="userSpaceOnUse">
<stop stop-color="#BA75FF"/>
<stop offset="0.458333" stop-color="#76F7FF"/>
<stop offset="1" stop-color="#FF5A6D"/>
</linearGradient>
<linearGradient id="paint19_linear" x1="99.8786" y1="0" x2="99.8786" y2="293.155" gradientUnits="userSpaceOnUse">
<stop stop-color="#BA75FF"/>
<stop offset="0.458333" stop-color="#76F7FF"/>
<stop offset="1" stop-color="#FF5A6D"/>
</linearGradient>
<linearGradient id="paint20_linear" x1="98.3042" y1="0" x2="98.3042" y2="297.53" gradientUnits="userSpaceOnUse">
<stop stop-color="#BA75FF"/>
<stop offset="0.458333" stop-color="#76F7FF"/>
<stop offset="1" stop-color="#FF5A6D"/>
</linearGradient>
<linearGradient id="paint21_linear" x1="96.8101" y1="0" x2="96.8101" y2="301.619" gradientUnits="userSpaceOnUse">
<stop stop-color="#BA75FF"/>
<stop offset="0.458333" stop-color="#76F7FF"/>
<stop offset="1" stop-color="#FF5A6D"/>
</linearGradient>
<linearGradient id="paint22_linear" x1="95.4466" y1="0" x2="95.4466" y2="305.309" gradientUnits="userSpaceOnUse">
<stop stop-color="#BA75FF"/>
<stop offset="0.458333" stop-color="#76F7FF"/>
<stop offset="1" stop-color="#FF5A6D"/>
</linearGradient>
<linearGradient id="paint23_linear" x1="94.2616" y1="0" x2="94.2616" y2="308.506" gradientUnits="userSpaceOnUse">
<stop stop-color="#BA75FF"/>
<stop offset="0.458333" stop-color="#76F7FF"/>
<stop offset="1" stop-color="#FF5A6D"/>
</linearGradient>
<linearGradient id="paint24_linear" x1="93.2985" y1="0" x2="93.2985" y2="311.129" gradientUnits="userSpaceOnUse">
<stop stop-color="#BA75FF"/>
<stop offset="0.458333" stop-color="#76F7FF"/>
<stop offset="1" stop-color="#FF5A6D"/>
</linearGradient>
<linearGradient id="paint25_linear" x1="92.5938" y1="0" x2="92.5938" y2="313.114" gradientUnits="userSpaceOnUse">
<stop stop-color="#BA75FF"/>
<stop offset="0.458333" stop-color="#76F7FF"/>
<stop offset="1" stop-color="#FF5A6D"/>
</linearGradient>
<linearGradient id="paint26_linear" x1="92.1752" y1="0" x2="92.1752" y2="314.411" gradientUnits="userSpaceOnUse">
<stop stop-color="#BA75FF"/>
<stop offset="0.458333" stop-color="#76F7FF"/>
<stop offset="1" stop-color="#FF5A6D"/>
</linearGradient>
<clipPath id="clip0">
<rect width="220" height="199" fill="white" transform="translate(129.269 74)"/>
</clipPath>
<clipPath id="clip1">
<rect width="220" height="108" fill="white" transform="translate(129.269 165)"/>
</clipPath>
</defs>
</svg>
