<svg width="1440" height="1271" viewBox="0 0 1440 1271" fill="none" xmlns="http://www.w3.org/2000/svg">
<g filter="url(#filter0_d)">
<path fill-rule="evenodd" clip-rule="evenodd" d="M1600.82 -173.304C1598.44 -39.8651 1313.93 -47.8765 1299.18 84.7667C1284.34 218.212 1546.52 272.163 1536.41 406.05C1528.76 507.372 1365.99 528.593 1264.9 538.826C1165.57 548.881 1068.15 419.923 977.889 462.586C874.286 511.555 906.814 703.922 804.871 756.259C725.906 796.8 618.74 739.557 551.681 681.401C482.397 621.315 513.147 482.243 434.504 435.064C325.912 369.918 140.241 485.697 60.9165 386.986C-6.86236 302.643 146.302 184.948 146.556 76.7455C146.649 36.9515 132.035 -17.7363 114.535 -68.8847C84.924 -155.435 105.757 -253.565 173.857 -314.64C204.227 -341.878 235.73 -371.08 261.992 -397.472C307.626 -443.333 367.139 -508.314 406.948 -552.396C435.321 -583.814 472.643 -605.825 514.115 -614.321C569.257 -625.616 649.45 -641.211 710.161 -649.552C810.712 -663.367 818.812 -687.952 919.04 -671.957C1020.44 -655.776 1149.28 -632.095 1210.38 -568.213C1272.26 -503.518 1243.46 -383.504 1306.4 -319.842C1384.14 -241.218 1602.79 -283.851 1600.82 -173.304Z" fill="url(#paint0_linear)"/>
</g>
<g filter="url(#filter1_d)">
<path fill-rule="evenodd" clip-rule="evenodd" d="M1346.5 589.772C1230.8 656.169 1091.56 407.876 970.195 463.253C848.095 518.965 936.458 771.649 816.408 831.645C725.556 877.048 623.759 748.237 563.061 666.72C503.422 586.627 564.022 436.876 481.066 381.29C385.849 317.488 237.527 444.072 140.273 383.424C64.94 336.445 59.0094 215.108 74.4602 127.725C78.9547 102.306 92.9001 73.2125 110.618 44.5285C165.359 -44.0927 171.224 -159.376 120.448 -250.327C83.4092 -316.671 55.3281 -391.375 74.988 -444.487C97.8261 -506.184 207.623 -524.505 290.142 -529.39C350.196 -532.946 408.694 -555.869 449.312 -600.246L522.635 -680.354C561.389 -722.695 616.442 -746.567 673.752 -743.385C736.522 -739.899 817.922 -733.221 869.571 -720.757C958.91 -699.199 1035.7 -679.115 1122.47 -616.911C1206.38 -556.761 1242 -488.222 1297.65 -418.916C1352.36 -350.767 1418.07 -289.748 1450.34 -208.536C1482.98 -126.374 1508.19 -33.0858 1484.77 52.1198C1461.04 138.412 1343.3 175.251 1321.01 261.925C1293.48 368.968 1442.35 534.765 1346.5 589.772Z" fill="url(#paint1_linear)"/>
</g>
<g opacity="0.0714286" filter="url(#filter2_d)">
<path fill-rule="evenodd" clip-rule="evenodd" d="M944.029 -197.203C1000.05 -179.798 965.442 -47.3409 1019.77 -24.2343C1074.43 -0.987879 1125.97 -117.362 1181.34 -96.2786C1223.24 -80.3234 1214.32 -1.39605 1207.54 47.2662C1200.88 95.0787 1135.79 125.026 1143.87 172.566C1153.16 227.133 1237.87 235.358 1248.76 289.557C1257.19 331.54 1221.28 374.814 1189.38 399.166C1156.43 424.326 1101.15 392.929 1072.61 424.055C1033.21 467.033 1061.67 568.244 1011.32 593.398C968.303 614.892 935.471 528.692 889.858 515.366C848.174 503.188 801.126 539.956 761.746 520.484C723.292 501.47 704.096 452.92 682.433 412.802C661.815 374.619 643.885 334.111 637.38 290.165C631.09 247.674 640.834 205.152 645.366 162.385C649.821 120.332 648.696 76.9006 664.079 38.1643C679.642 -1.02485 700.935 -41.4297 734.589 -62.2886C768.671 -83.4134 816.133 -55.2583 849.897 -77.0077C891.596 -103.868 897.616 -211.622 944.029 -197.203Z" stroke="#34AEFF" stroke-width="1.28571" stroke-linecap="round" stroke-dasharray="200 10"/>
</g>
<g opacity="0.142857" filter="url(#filter3_d)">
<path fill-rule="evenodd" clip-rule="evenodd" d="M944.114 -215.935C1003.57 -197.708 966.836 -58.9903 1024.49 -34.7917C1082.49 -10.4466 1137.18 -132.32 1195.94 -110.241C1240.4 -93.5316 1230.93 -10.874 1223.74 40.088C1216.67 90.1602 1147.6 121.523 1156.18 171.31C1166.03 228.455 1255.92 237.069 1267.48 293.829C1276.42 337.796 1238.32 383.115 1204.47 408.619C1169.51 434.968 1110.84 402.087 1080.56 434.684C1038.75 479.693 1068.94 585.687 1015.52 612.031C969.872 634.54 935.032 544.267 886.629 530.311C842.397 517.557 792.472 556.063 750.684 535.671C709.878 515.758 689.508 464.914 666.52 422.9C644.641 382.911 625.615 340.489 618.712 294.467C612.038 249.967 622.378 205.436 627.186 160.648C631.914 116.607 630.72 71.1229 647.044 30.556C663.559 -10.4853 686.154 -52.7997 721.866 -74.6444C758.033 -96.7676 808.397 -67.2819 844.225 -90.0591C888.474 -118.189 894.862 -231.035 944.114 -215.935Z" stroke="#38A4FE" stroke-width="1.57143" stroke-linecap="round" stroke-dasharray="200 10"/>
</g>
<g opacity="0.214286" filter="url(#filter4_d)">
<path fill-rule="evenodd" clip-rule="evenodd" d="M944.197 -234.667C1007.07 -215.617 968.228 -70.6397 1029.21 -45.349C1090.55 -19.9053 1148.39 -147.279 1210.53 -124.203C1257.55 -106.74 1247.55 -20.352 1239.94 32.9099C1232.46 85.2417 1159.41 118.02 1168.48 170.054C1178.9 229.778 1273.98 238.78 1286.19 298.102C1295.66 344.053 1255.35 391.417 1219.56 418.072C1182.58 445.61 1120.53 411.246 1088.51 445.313C1044.29 492.353 1076.22 603.131 1019.72 630.663C971.439 654.188 934.592 559.841 883.4 545.255C836.618 531.926 783.816 572.17 739.62 550.857C696.463 530.046 674.918 476.907 650.606 432.997C627.466 391.204 607.343 346.868 600.043 298.768C592.984 252.261 603.92 205.719 609.005 158.91C614.006 112.882 612.743 65.3453 630.007 22.9476C647.474 -19.9457 671.371 -64.1697 709.141 -87.0002C747.392 -110.122 800.659 -79.3055 838.552 -103.111C885.35 -132.51 892.107 -250.449 944.197 -234.667Z" stroke="#3D9BFE" stroke-width="1.85714" stroke-linecap="round" stroke-dasharray="200 10"/>
</g>
<g opacity="0.285714" filter="url(#filter5_d)">
<path fill-rule="evenodd" clip-rule="evenodd" d="M944.281 -253.399C1010.58 -233.527 969.622 -82.2891 1033.92 -55.9063C1098.61 -29.364 1159.6 -162.238 1225.13 -138.165C1274.71 -119.948 1264.16 -29.83 1256.13 25.7317C1248.25 80.3232 1171.22 114.517 1180.79 168.797C1191.77 231.1 1292.03 240.491 1304.91 302.375C1314.89 350.31 1272.39 399.719 1234.65 427.524C1195.65 456.252 1130.22 420.404 1096.45 455.942C1049.82 505.014 1083.5 620.574 1023.92 649.296C973.007 673.837 934.152 575.415 880.171 560.2C830.84 546.295 775.161 588.276 728.557 566.044C683.048 544.334 660.329 488.9 634.693 443.094C610.292 399.497 589.073 353.246 581.374 303.069C573.931 254.554 585.463 206.003 590.825 157.172C596.098 109.157 594.766 59.5677 612.971 15.3393C631.389 -29.4062 656.589 -75.5397 696.417 -99.356C736.752 -123.476 792.921 -91.329 832.879 -116.162C882.227 -146.831 889.352 -269.862 944.281 -253.399Z" stroke="#4191FD" stroke-width="2.14286" stroke-linecap="round" stroke-dasharray="200 10"/>
</g>
<g opacity="0.357143" filter="url(#filter6_d)">
<path fill-rule="evenodd" clip-rule="evenodd" d="M944.364 -272.131C1014.09 -251.436 971.015 -93.9382 1038.64 -66.4634C1106.67 -38.8224 1170.81 -177.196 1239.72 -152.127C1291.87 -133.156 1280.77 -39.3078 1272.33 18.5538C1264.04 75.4049 1183.03 111.014 1193.09 167.541C1204.64 232.423 1310.08 242.203 1323.63 306.648C1334.12 356.567 1289.43 408.022 1249.74 436.978C1208.72 466.894 1139.91 429.562 1104.4 466.571C1055.36 517.674 1090.78 638.018 1028.12 667.929C974.575 693.485 933.712 590.99 876.941 575.145C825.062 560.665 766.506 604.383 717.493 581.231C669.633 558.622 645.741 500.894 618.779 453.192C593.117 407.79 570.802 359.624 562.706 307.371C554.878 256.847 567.005 206.287 572.645 155.435C578.19 105.432 576.79 53.7903 595.935 7.73121C615.305 -38.8664 641.807 -86.9095 683.693 -111.712C726.112 -136.83 785.184 -103.352 827.206 -129.213C879.104 -161.152 886.597 -289.275 944.364 -272.131Z" stroke="#4687FD" stroke-width="2.42857" stroke-linecap="round" stroke-dasharray="200 10"/>
</g>
<g opacity="0.428571" filter="url(#filter7_d)">
<path fill-rule="evenodd" clip-rule="evenodd" d="M944.448 -290.863C1017.6 -269.345 972.408 -105.588 1043.35 -77.0208C1114.73 -48.2812 1182.02 -192.155 1254.32 -166.089C1309.03 -146.364 1297.38 -48.7858 1288.53 11.3756C1279.83 70.4864 1194.84 107.511 1205.4 166.285C1217.52 233.746 1328.13 243.914 1342.35 310.92C1353.36 362.824 1306.47 416.324 1264.82 446.43C1221.8 477.536 1149.61 438.72 1112.35 477.2C1060.9 530.334 1098.05 655.462 1032.31 686.561C976.143 713.133 933.273 606.564 873.713 590.089C819.284 575.034 757.851 620.49 706.43 596.417C656.218 572.91 631.152 512.887 602.866 463.289C575.943 416.083 552.531 366.003 544.037 311.672C535.825 259.141 548.548 206.571 554.465 153.698C560.283 101.707 558.813 48.0126 578.9 0.122865C599.221 -48.3269 627.025 -98.2795 670.969 -124.067C715.473 -150.184 777.446 -115.376 821.534 -142.265C875.982 -175.473 883.843 -308.689 944.448 -290.863Z" stroke="#4A7DFC" stroke-width="2.71429" stroke-linecap="round" stroke-dasharray="200 10"/>
</g>
<g opacity="0.5" filter="url(#filter8_d)">
<path fill-rule="evenodd" clip-rule="evenodd" d="M944.531 -309.594C1021.11 -287.255 973.8 -117.237 1048.07 -87.5779C1122.78 -57.7396 1193.23 -207.113 1268.91 -180.051C1326.18 -159.572 1314 -58.2635 1304.73 4.19766C1295.62 65.5681 1206.65 104.008 1217.7 165.029C1230.39 235.068 1346.19 245.625 1361.06 315.193C1372.59 369.081 1323.5 424.626 1279.91 455.884C1234.87 488.179 1159.3 447.879 1120.29 487.83C1066.44 542.995 1105.33 672.906 1036.51 705.194C977.71 732.782 932.832 622.139 870.483 605.034C813.505 589.403 749.195 636.597 695.366 611.604C642.803 587.198 616.563 524.881 586.952 473.387C558.768 424.376 534.26 372.381 525.368 315.974C516.771 261.434 530.09 206.854 536.284 151.96C542.374 97.9819 540.836 42.2353 561.863 -7.48522C583.136 -57.787 612.242 -109.649 658.244 -136.423C704.832 -163.538 769.708 -127.399 815.86 -155.316C872.858 -189.793 881.088 -328.102 944.531 -309.594Z" stroke="#4F74FC" stroke-width="3" stroke-linecap="round" stroke-dasharray="200 10"/>
</g>
<g opacity="0.571429" filter="url(#filter9_d)">
<path fill-rule="evenodd" clip-rule="evenodd" d="M944.614 -328.326C1024.62 -305.164 975.193 -128.886 1052.78 -98.1352C1130.84 -67.1983 1204.44 -222.072 1283.51 -194.014C1343.34 -172.78 1330.61 -67.7415 1320.92 -2.98053C1311.41 60.6496 1218.46 100.505 1230 163.772C1243.26 236.391 1364.24 247.336 1379.78 319.466C1391.82 375.338 1340.54 432.928 1295 465.336C1247.94 498.821 1168.99 457.037 1128.24 498.459C1071.97 555.655 1112.61 690.349 1040.71 723.826C979.277 752.43 932.392 637.713 867.253 619.979C807.727 603.772 740.539 652.704 684.302 626.79C629.387 601.486 601.973 536.874 571.037 483.484C541.593 432.668 515.988 378.76 506.699 320.276C497.717 263.727 511.632 207.138 518.103 150.223C524.466 94.2569 522.859 36.4576 544.827 -15.0936C567.051 -67.2475 597.459 -121.019 645.519 -148.779C694.191 -176.892 761.97 -139.423 810.187 -168.367C869.735 -204.114 878.332 -347.515 944.614 -328.326Z" stroke="#546AFC" stroke-width="3.28571" stroke-linecap="round" stroke-dasharray="200 10"/>
</g>
<g opacity="0.642857" filter="url(#filter10_d)">
<path fill-rule="evenodd" clip-rule="evenodd" d="M944.698 -347.058C1028.13 -323.073 976.586 -140.536 1057.5 -108.693C1138.9 -76.657 1215.65 -237.03 1298.1 -207.976C1360.5 -185.988 1347.22 -77.2195 1337.12 -10.1587C1327.2 55.7311 1230.27 97.0014 1242.31 162.516C1256.13 237.713 1382.29 249.048 1398.5 323.739C1411.06 381.595 1357.58 441.23 1310.09 474.789C1261.01 509.463 1178.68 466.195 1136.19 509.088C1077.51 568.316 1119.88 707.793 1044.91 742.459C980.846 772.078 931.953 653.288 864.025 634.923C801.949 618.141 731.884 668.811 673.24 641.977C615.973 615.774 587.385 548.868 555.125 493.582C524.419 440.961 497.718 385.138 488.031 324.577C478.664 266.021 493.176 207.422 499.923 148.485C506.558 90.5318 504.883 30.68 527.791 -22.7019C550.968 -76.7079 582.678 -132.389 632.796 -161.135C683.552 -190.247 754.233 -151.446 804.515 -181.419C866.613 -218.435 875.578 -366.929 944.698 -347.058Z" stroke="#5860FB" stroke-width="3.57143" stroke-linecap="round" stroke-dasharray="200 10"/>
</g>
<g opacity="0.714286" filter="url(#filter11_d)">
<path fill-rule="evenodd" clip-rule="evenodd" d="M944.781 -365.79C1031.64 -340.983 977.979 -152.185 1062.21 -119.25C1146.96 -86.1154 1226.86 -251.989 1312.7 -221.938C1377.66 -199.196 1363.83 -86.6972 1353.32 -17.3366C1342.99 50.8129 1242.08 93.4985 1254.61 161.26C1269 239.036 1400.34 250.759 1417.22 328.012C1430.29 387.852 1374.62 449.532 1325.17 484.242C1274.09 520.105 1188.37 475.353 1144.13 519.718C1083.05 580.976 1127.16 725.237 1049.11 761.091C982.413 791.727 931.512 668.863 860.795 649.868C796.17 632.511 723.228 684.918 662.175 657.164C602.557 630.062 572.795 560.861 539.21 503.679C507.244 449.254 479.447 391.517 469.361 328.879C459.61 268.314 474.717 207.706 481.742 146.748C488.65 86.8071 486.905 24.9027 510.755 -30.3099C534.883 -86.1681 567.895 -143.759 620.071 -173.49C672.912 -203.6 746.495 -163.47 798.841 -194.47C863.489 -232.756 872.823 -386.342 944.781 -365.79Z" stroke="#5D56FB" stroke-width="3.85714" stroke-linecap="round" stroke-dasharray="200 10"/>
</g>
<g opacity="0.785714" filter="url(#filter12_d)">
<path fill-rule="evenodd" clip-rule="evenodd" d="M944.865 -384.522C1035.15 -358.892 979.372 -163.834 1066.93 -129.807C1155.02 -95.5742 1238.07 -266.947 1327.29 -235.9C1394.82 -212.404 1380.45 -96.1752 1369.52 -24.5148C1358.78 45.8943 1253.89 89.9953 1266.92 160.003C1281.88 240.358 1418.4 252.47 1435.94 332.284C1449.53 394.109 1391.66 457.834 1340.26 493.695C1287.16 530.747 1198.06 484.511 1152.08 530.347C1088.58 593.637 1134.44 742.681 1053.31 779.724C983.981 811.375 931.073 684.437 857.566 664.813C790.393 646.879 714.573 701.024 651.112 672.35C589.143 644.35 558.207 572.855 523.297 513.777C490.07 457.547 461.176 397.895 450.693 333.18C440.557 270.607 456.26 207.989 463.562 145.01C470.742 83.082 468.929 19.125 493.719 -37.9183C518.799 -95.6286 553.114 -155.129 607.347 -185.846C662.272 -216.955 738.758 -175.493 793.169 -207.521C860.367 -247.077 870.068 -405.755 944.865 -384.522Z" stroke="#614CFA" stroke-width="4.14286" stroke-linecap="round" stroke-dasharray="200 10"/>
</g>
<g opacity="0.857143" filter="url(#filter13_d)">
<path fill-rule="evenodd" clip-rule="evenodd" d="M944.947 -403.254C1038.66 -376.801 980.764 -175.483 1071.64 -140.364C1163.07 -105.033 1249.28 -281.906 1341.89 -249.862C1411.97 -225.612 1397.06 -105.653 1385.71 -31.693C1374.57 40.9758 1265.69 86.4921 1279.22 158.747C1294.75 241.681 1436.45 254.181 1454.65 336.557C1468.76 400.365 1408.69 466.136 1355.35 503.148C1300.23 541.389 1207.75 493.67 1160.02 540.976C1094.12 606.297 1141.72 760.124 1057.5 798.356C985.548 831.024 930.632 700.011 854.336 679.757C784.614 661.249 705.917 717.131 640.048 687.537C575.727 658.638 543.617 584.848 507.383 523.874C472.895 465.84 442.904 404.273 432.024 337.482C421.503 272.901 437.802 208.273 445.381 143.273C452.834 79.357 450.951 13.3474 476.682 -45.5266C502.714 -105.089 538.33 -166.499 594.622 -198.202C651.631 -230.309 731.019 -187.517 787.495 -220.573C857.243 -261.398 867.313 -425.169 944.947 -403.254Z" stroke="#6643FA" stroke-width="4.42857" stroke-linecap="round" stroke-dasharray="200 10"/>
</g>
<g opacity="0.928571" filter="url(#filter14_d)">
<path fill-rule="evenodd" clip-rule="evenodd" d="M945.032 -421.986C1042.17 -394.711 982.158 -187.133 1076.36 -150.921C1171.13 -114.491 1260.49 -296.864 1356.48 -263.824C1429.13 -238.82 1413.67 -115.131 1401.91 -38.8709C1390.36 36.0575 1277.51 82.9892 1291.53 157.491C1307.62 243.004 1454.5 255.893 1473.37 340.83C1487.99 406.622 1425.73 474.438 1370.43 512.601C1313.3 552.031 1217.45 502.828 1167.97 551.605C1099.66 618.957 1148.99 777.568 1061.7 816.989C987.117 850.672 930.193 715.586 851.108 694.702C778.836 675.618 697.263 733.238 628.986 702.723C562.313 672.926 529.029 596.842 491.47 533.972C455.722 474.133 424.634 410.652 413.356 341.783C402.451 275.194 419.346 208.557 427.202 141.535C434.927 75.6322 432.976 7.56997 459.647 -53.1348C486.631 -114.549 523.549 -177.869 581.899 -210.557C640.992 -243.663 723.283 -199.54 781.823 -233.624C854.121 -275.718 864.559 -444.582 945.032 -421.986Z" stroke="#6A39F9" stroke-width="4.71429" stroke-linecap="round" stroke-dasharray="200 10"/>
</g>
<g filter="url(#filter15_d)">
<path fill-rule="evenodd" clip-rule="evenodd" d="M945.115 -440.718C1045.68 -412.62 983.55 -198.782 1081.07 -161.479C1179.19 -123.95 1271.7 -311.823 1371.08 -277.786C1446.29 -252.029 1430.28 -124.609 1418.11 -46.0491C1406.15 31.139 1289.31 79.486 1303.83 156.234C1320.49 244.326 1472.55 257.604 1492.09 345.102C1507.23 412.879 1442.77 482.74 1385.52 522.054C1326.38 562.673 1227.14 511.986 1175.92 562.234C1105.2 631.618 1156.27 795.012 1065.9 835.621C988.685 870.32 929.753 731.16 847.878 709.647C773.058 689.987 688.607 749.345 617.922 717.91C548.897 687.214 514.44 608.835 475.556 544.069C438.546 482.425 406.363 417.03 394.687 346.085C383.397 277.488 400.888 208.84 409.021 139.798C417.018 71.9071 414.999 1.79236 442.611 -60.7431C470.546 -124.01 508.767 -189.239 569.174 -222.913C630.352 -257.017 715.545 -211.564 776.15 -246.676C850.997 -290.039 861.804 -463.995 945.115 -440.718Z" stroke="#6F2FF9" stroke-width="5" stroke-linecap="round" stroke-dasharray="200 10"/>
</g>
<defs>
<filter id="filter0_d" x="-340.048" y="-1030.91" width="2299.06" height="2128.38" filterUnits="userSpaceOnUse" color-interpolation-filters="sRGB">
<feFlood flood-opacity="0" result="BackgroundImageFix"/>
<feColorMatrix in="SourceAlpha" type="matrix" values="0 0 0 0 0 0 0 0 0 0 0 0 0 0 0 0 0 0 127 0" result="hardAlpha"/>
<feOffset/>
<feGaussianBlur stdDeviation="89.3737"/>
<feColorMatrix type="matrix" values="0 0 0 0 0.129427 0 0 0 0 0.224219 0 0 0 0 0.4375 0 0 0 0.3 0"/>
<feBlend mode="normal" in2="BackgroundImageFix" result="effect1_dropShadow"/>
<feBlend mode="normal" in="SourceGraphic" in2="effect1_dropShadow" result="shape"/>
</filter>
<filter id="filter1_d" x="-492.034" y="-1242.75" width="2516.07" height="2513.37" filterUnits="userSpaceOnUse" color-interpolation-filters="sRGB">
<feFlood flood-opacity="0" result="BackgroundImageFix"/>
<feColorMatrix in="SourceAlpha" type="matrix" values="0 0 0 0 0 0 0 0 0 0 0 0 0 0 0 0 0 0 127 0" result="hardAlpha"/>
<feOffset/>
<feGaussianBlur stdDeviation="89.3737"/>
<feColorMatrix type="matrix" values="0 0 0 0 0.129427 0 0 0 0 0.224219 0 0 0 0 0.4375 0 0 0 0.3 0"/>
<feBlend mode="normal" in2="BackgroundImageFix" result="effect1_dropShadow"/>
<feBlend mode="normal" in="SourceGraphic" in2="effect1_dropShadow" result="shape"/>
</filter>
<filter id="filter2_d" x="455.936" y="-377.915" width="973.458" height="1154.13" filterUnits="userSpaceOnUse" color-interpolation-filters="sRGB">
<feFlood flood-opacity="0" result="BackgroundImageFix"/>
<feColorMatrix in="SourceAlpha" type="matrix" values="0 0 0 0 0 0 0 0 0 0 0 0 0 0 0 0 0 0 127 0" result="hardAlpha"/>
<feOffset/>
<feGaussianBlur stdDeviation="89.3737"/>
<feColorMatrix type="matrix" values="0 0 0 0 0.129427 0 0 0 0 0.224219 0 0 0 0 0.4375 0 0 0 0.3 0"/>
<feBlend mode="normal" in2="BackgroundImageFix" result="effect1_dropShadow"/>
<feBlend mode="normal" in="SourceGraphic" in2="effect1_dropShadow" result="shape"/>
</filter>
<filter id="filter3_d" x="437" y="-396.852" width="1011.33" height="1192" filterUnits="userSpaceOnUse" color-interpolation-filters="sRGB">
<feFlood flood-opacity="0" result="BackgroundImageFix"/>
<feColorMatrix in="SourceAlpha" type="matrix" values="0 0 0 0 0 0 0 0 0 0 0 0 0 0 0 0 0 0 127 0" result="hardAlpha"/>
<feOffset/>
<feGaussianBlur stdDeviation="89.3737"/>
<feColorMatrix type="matrix" values="0 0 0 0 0.129427 0 0 0 0 0.224219 0 0 0 0 0.4375 0 0 0 0.3 0"/>
<feBlend mode="normal" in2="BackgroundImageFix" result="effect1_dropShadow"/>
<feBlend mode="normal" in="SourceGraphic" in2="effect1_dropShadow" result="shape"/>
</filter>
<filter id="filter4_d" x="418.062" y="-415.789" width="1049.21" height="1229.88" filterUnits="userSpaceOnUse" color-interpolation-filters="sRGB">
<feFlood flood-opacity="0" result="BackgroundImageFix"/>
<feColorMatrix in="SourceAlpha" type="matrix" values="0 0 0 0 0 0 0 0 0 0 0 0 0 0 0 0 0 0 127 0" result="hardAlpha"/>
<feOffset/>
<feGaussianBlur stdDeviation="89.3737"/>
<feColorMatrix type="matrix" values="0 0 0 0 0.129427 0 0 0 0 0.224219 0 0 0 0 0.4375 0 0 0 0.3 0"/>
<feBlend mode="normal" in2="BackgroundImageFix" result="effect1_dropShadow"/>
<feBlend mode="normal" in="SourceGraphic" in2="effect1_dropShadow" result="shape"/>
</filter>
<filter id="filter5_d" x="399.125" y="-434.727" width="1087.08" height="1267.75" filterUnits="userSpaceOnUse" color-interpolation-filters="sRGB">
<feFlood flood-opacity="0" result="BackgroundImageFix"/>
<feColorMatrix in="SourceAlpha" type="matrix" values="0 0 0 0 0 0 0 0 0 0 0 0 0 0 0 0 0 0 127 0" result="hardAlpha"/>
<feOffset/>
<feGaussianBlur stdDeviation="89.3737"/>
<feColorMatrix type="matrix" values="0 0 0 0 0.129427 0 0 0 0 0.224219 0 0 0 0 0.4375 0 0 0 0.3 0"/>
<feBlend mode="normal" in2="BackgroundImageFix" result="effect1_dropShadow"/>
<feBlend mode="normal" in="SourceGraphic" in2="effect1_dropShadow" result="shape"/>
</filter>
<filter id="filter6_d" x="380.188" y="-453.664" width="1124.96" height="1305.63" filterUnits="userSpaceOnUse" color-interpolation-filters="sRGB">
<feFlood flood-opacity="0" result="BackgroundImageFix"/>
<feColorMatrix in="SourceAlpha" type="matrix" values="0 0 0 0 0 0 0 0 0 0 0 0 0 0 0 0 0 0 127 0" result="hardAlpha"/>
<feOffset/>
<feGaussianBlur stdDeviation="89.3737"/>
<feColorMatrix type="matrix" values="0 0 0 0 0.129427 0 0 0 0 0.224219 0 0 0 0 0.4375 0 0 0 0.3 0"/>
<feBlend mode="normal" in2="BackgroundImageFix" result="effect1_dropShadow"/>
<feBlend mode="normal" in="SourceGraphic" in2="effect1_dropShadow" result="shape"/>
</filter>
<filter id="filter7_d" x="361.251" y="-472.601" width="1162.83" height="1343.5" filterUnits="userSpaceOnUse" color-interpolation-filters="sRGB">
<feFlood flood-opacity="0" result="BackgroundImageFix"/>
<feColorMatrix in="SourceAlpha" type="matrix" values="0 0 0 0 0 0 0 0 0 0 0 0 0 0 0 0 0 0 127 0" result="hardAlpha"/>
<feOffset/>
<feGaussianBlur stdDeviation="89.3737"/>
<feColorMatrix type="matrix" values="0 0 0 0 0.129427 0 0 0 0 0.224219 0 0 0 0 0.4375 0 0 0 0.3 0"/>
<feBlend mode="normal" in2="BackgroundImageFix" result="effect1_dropShadow"/>
<feBlend mode="normal" in="SourceGraphic" in2="effect1_dropShadow" result="shape"/>
</filter>
<filter id="filter8_d" x="342.313" y="-491.538" width="1200.71" height="1381.37" filterUnits="userSpaceOnUse" color-interpolation-filters="sRGB">
<feFlood flood-opacity="0" result="BackgroundImageFix"/>
<feColorMatrix in="SourceAlpha" type="matrix" values="0 0 0 0 0 0 0 0 0 0 0 0 0 0 0 0 0 0 127 0" result="hardAlpha"/>
<feOffset/>
<feGaussianBlur stdDeviation="89.3737"/>
<feColorMatrix type="matrix" values="0 0 0 0 0.129427 0 0 0 0 0.224219 0 0 0 0 0.4375 0 0 0 0.3 0"/>
<feBlend mode="normal" in2="BackgroundImageFix" result="effect1_dropShadow"/>
<feBlend mode="normal" in="SourceGraphic" in2="effect1_dropShadow" result="shape"/>
</filter>
<filter id="filter9_d" x="323.375" y="-510.475" width="1238.58" height="1419.25" filterUnits="userSpaceOnUse" color-interpolation-filters="sRGB">
<feFlood flood-opacity="0" result="BackgroundImageFix"/>
<feColorMatrix in="SourceAlpha" type="matrix" values="0 0 0 0 0 0 0 0 0 0 0 0 0 0 0 0 0 0 127 0" result="hardAlpha"/>
<feOffset/>
<feGaussianBlur stdDeviation="89.3737"/>
<feColorMatrix type="matrix" values="0 0 0 0 0.129427 0 0 0 0 0.224219 0 0 0 0 0.4375 0 0 0 0.3 0"/>
<feBlend mode="normal" in2="BackgroundImageFix" result="effect1_dropShadow"/>
<feBlend mode="normal" in="SourceGraphic" in2="effect1_dropShadow" result="shape"/>
</filter>
<filter id="filter10_d" x="304.439" y="-529.412" width="1276.45" height="1457.12" filterUnits="userSpaceOnUse" color-interpolation-filters="sRGB">
<feFlood flood-opacity="0" result="BackgroundImageFix"/>
<feColorMatrix in="SourceAlpha" type="matrix" values="0 0 0 0 0 0 0 0 0 0 0 0 0 0 0 0 0 0 127 0" result="hardAlpha"/>
<feOffset/>
<feGaussianBlur stdDeviation="89.3737"/>
<feColorMatrix type="matrix" values="0 0 0 0 0.129427 0 0 0 0 0.224219 0 0 0 0 0.4375 0 0 0 0.3 0"/>
<feBlend mode="normal" in2="BackgroundImageFix" result="effect1_dropShadow"/>
<feBlend mode="normal" in="SourceGraphic" in2="effect1_dropShadow" result="shape"/>
</filter>
<filter id="filter11_d" x="285.501" y="-548.349" width="1314.33" height="1495" filterUnits="userSpaceOnUse" color-interpolation-filters="sRGB">
<feFlood flood-opacity="0" result="BackgroundImageFix"/>
<feColorMatrix in="SourceAlpha" type="matrix" values="0 0 0 0 0 0 0 0 0 0 0 0 0 0 0 0 0 0 127 0" result="hardAlpha"/>
<feOffset/>
<feGaussianBlur stdDeviation="89.3737"/>
<feColorMatrix type="matrix" values="0 0 0 0 0.129427 0 0 0 0 0.224219 0 0 0 0 0.4375 0 0 0 0.3 0"/>
<feBlend mode="normal" in2="BackgroundImageFix" result="effect1_dropShadow"/>
<feBlend mode="normal" in="SourceGraphic" in2="effect1_dropShadow" result="shape"/>
</filter>
<filter id="filter12_d" x="266.564" y="-567.287" width="1352.2" height="1532.87" filterUnits="userSpaceOnUse" color-interpolation-filters="sRGB">
<feFlood flood-opacity="0" result="BackgroundImageFix"/>
<feColorMatrix in="SourceAlpha" type="matrix" values="0 0 0 0 0 0 0 0 0 0 0 0 0 0 0 0 0 0 127 0" result="hardAlpha"/>
<feOffset/>
<feGaussianBlur stdDeviation="89.3737"/>
<feColorMatrix type="matrix" values="0 0 0 0 0.129427 0 0 0 0 0.224219 0 0 0 0 0.4375 0 0 0 0.3 0"/>
<feBlend mode="normal" in2="BackgroundImageFix" result="effect1_dropShadow"/>
<feBlend mode="normal" in="SourceGraphic" in2="effect1_dropShadow" result="shape"/>
</filter>
<filter id="filter13_d" x="247.626" y="-586.224" width="1390.08" height="1570.75" filterUnits="userSpaceOnUse" color-interpolation-filters="sRGB">
<feFlood flood-opacity="0" result="BackgroundImageFix"/>
<feColorMatrix in="SourceAlpha" type="matrix" values="0 0 0 0 0 0 0 0 0 0 0 0 0 0 0 0 0 0 127 0" result="hardAlpha"/>
<feOffset/>
<feGaussianBlur stdDeviation="89.3737"/>
<feColorMatrix type="matrix" values="0 0 0 0 0.129427 0 0 0 0 0.224219 0 0 0 0 0.4375 0 0 0 0.3 0"/>
<feBlend mode="normal" in2="BackgroundImageFix" result="effect1_dropShadow"/>
<feBlend mode="normal" in="SourceGraphic" in2="effect1_dropShadow" result="shape"/>
</filter>
<filter id="filter14_d" x="228.69" y="-605.161" width="1427.95" height="1608.62" filterUnits="userSpaceOnUse" color-interpolation-filters="sRGB">
<feFlood flood-opacity="0" result="BackgroundImageFix"/>
<feColorMatrix in="SourceAlpha" type="matrix" values="0 0 0 0 0 0 0 0 0 0 0 0 0 0 0 0 0 0 127 0" result="hardAlpha"/>
<feOffset/>
<feGaussianBlur stdDeviation="89.3737"/>
<feColorMatrix type="matrix" values="0 0 0 0 0.129427 0 0 0 0 0.224219 0 0 0 0 0.4375 0 0 0 0.3 0"/>
<feBlend mode="normal" in2="BackgroundImageFix" result="effect1_dropShadow"/>
<feBlend mode="normal" in="SourceGraphic" in2="effect1_dropShadow" result="shape"/>
</filter>
<filter id="filter15_d" x="209.753" y="-624.098" width="1465.83" height="1646.5" filterUnits="userSpaceOnUse" color-interpolation-filters="sRGB">
<feFlood flood-opacity="0" result="BackgroundImageFix"/>
<feColorMatrix in="SourceAlpha" type="matrix" values="0 0 0 0 0 0 0 0 0 0 0 0 0 0 0 0 0 0 127 0" result="hardAlpha"/>
<feOffset/>
<feGaussianBlur stdDeviation="89.3737"/>
<feColorMatrix type="matrix" values="0 0 0 0 0.129427 0 0 0 0 0.224219 0 0 0 0 0.4375 0 0 0 0.3 0"/>
<feBlend mode="normal" in2="BackgroundImageFix" result="effect1_dropShadow"/>
<feBlend mode="normal" in="SourceGraphic" in2="effect1_dropShadow" result="shape"/>
</filter>
<linearGradient id="paint0_linear" x1="1425.08" y1="-859.411" x2="-163.187" y2="-446.062" gradientUnits="userSpaceOnUse">
<stop stop-color="#87D9FF"/>
<stop offset="1" stop-color="#491EB8"/>
</linearGradient>
<linearGradient id="paint1_linear" x1="1350.64" y1="589.453" x2="693.418" y2="-1035.01" gradientUnits="userSpaceOnUse">
<stop stop-color="#4316DB"/>
<stop offset="1" stop-color="#9076E7"/>
</linearGradient>
</defs>
</svg>
