<svg width="44" height="44" viewBox="0 0 44 44" fill="none" xmlns="http://www.w3.org/2000/svg">
<path fill-rule="evenodd" clip-rule="evenodd" d="M22 44C34.1503 44 44 34.1503 44 22C44 9.84974 34.1503 0 22 0C9.84974 0 0 9.84974 0 22C0 34.1503 9.84974 44 22 44Z" fill="black"/>
<path d="M17.9595 34.0002C20.1454 34.0002 21.9195 32.2082 21.9195 30.0002V26.0002H17.9595C15.7736 26.0002 13.9995 27.7922 13.9995 30.0002C13.9995 32.2082 15.7736 34.0002 17.9595 34.0002Z" fill="#0ACF83"/>
<path d="M13.9995 22C13.9995 19.792 15.7736 18 17.9595 18H21.9195V26H17.9595C15.7736 26 13.9995 24.208 13.9995 22Z" fill="#A259FF"/>
<path d="M14 14C14 11.792 15.7741 10 17.96 10H21.92V18H17.96C15.7741 18 14 16.208 14 14Z" fill="#F24E1E"/>
<path d="M21.9199 10H25.8799C28.0658 10 29.8399 11.792 29.8399 14C29.8399 16.208 28.0658 18 25.8799 18H21.9199V10Z" fill="#FF7262"/>
<path d="M29.8399 22C29.8399 24.208 28.0658 26 25.8799 26C23.694 26 21.9199 24.208 21.9199 22C21.9199 19.792 23.694 18 25.8799 18C28.0658 18 29.8399 19.792 29.8399 22Z" fill="#1ABCFE"/>
</svg>
