<svg width="151" height="264" viewBox="0 0 151 264" fill="none" xmlns="http://www.w3.org/2000/svg">
<path d="M101.039 207.508L106.892 207.487L106.48 194.045L99.9863 194.07L101.039 207.508Z" fill="#915636"/>
<path d="M107.013 202.359C107.013 202.359 118.68 207.003 125.728 208.461C126.204 208.561 126.521 208.874 126.734 209.293C127.531 210.861 126.251 212.703 124.49 212.654L100.36 211.999C99.9222 211.992 99.5631 211.665 99.5098 211.235C99.3248 209.692 99.0368 205.503 100.228 204.059C100.466 203.767 101.035 204.023 101.562 204.201C102.145 204.397 103.144 207.334 106.696 204.404C107.031 204.123 106.625 202.743 107.013 202.359Z" fill="#83BDD8"/>
<path d="M91.4272 207.867L97.7106 207.863V191.203L90.7729 191.214L91.4272 207.867Z" fill="#915636"/>
<path d="M97.316 204.005C97.316 204.005 108.969 208.684 116.013 210.16C116.486 210.26 116.806 210.576 117.016 210.996C117.805 212.568 116.522 214.402 114.765 214.349L90.6344 213.624C90.2005 213.613 89.8378 213.289 89.7881 212.856C89.6103 211.309 89.3329 207.123 90.5277 205.68C90.7695 205.388 91.3349 205.644 91.8612 205.825C92.4444 206.025 93.4329 208.962 96.996 206.042C97.3302 205.765 96.9284 204.385 97.316 204.005Z" fill="#8F8F8F"/>
<path d="M99.0336 201.007L108.98 200.314C108.98 200.314 111.679 149.51 105.552 141.594C99.4247 133.679 84.063 137.455 84.063 137.455L99.0336 201.007Z" fill="black"/>
<path d="M101.615 201.94C101.615 201.94 99.798 167.998 99.798 151.559C99.798 135.119 90.8036 131.101 73.2189 132.261C73.2189 132.261 73.3255 127.197 71.5559 126.136C69.7864 125.075 46.0042 123.801 41.7786 126.136C32.2735 138.523 39.8374 151.306 49.6661 151.559H81.3354C82.388 151.559 83.2414 152.412 83.2414 153.465L88.867 201.15L101.615 201.94Z" fill="#8F8F8F"/>
<path d="M81.474 128.065C79.9232 131.784 79.0808 131.856 79.0808 131.856C79.0808 131.856 66.136 130.295 58.6447 123.465C57.1918 122.138 56.6231 112.01 55.536 102.308C55.2681 99.9122 54.1758 98.9043 54.1758 98.9043C52.8955 98.2763 53.604 93.1316 54.0367 91.2625C54.4669 89.3897 54.1733 86.2984 55.3815 87.1897C57.0559 88.4232 58.5578 91.4318 60.1575 95.2827C62.8135 101.661 63.0395 117.817 63.0395 117.817L81.474 128.065Z" fill="#683B28"/>
<path d="M110.299 114.478C114.133 114.478 117.24 111.37 117.24 107.537C117.24 103.704 114.133 100.597 110.299 100.597C106.466 100.597 103.359 103.704 103.359 107.537C103.359 111.37 106.466 114.478 110.299 114.478Z" fill="#87D9FF"/>
<path d="M106.478 111.801L105.353 116.953L110.88 112.622L106.478 111.801Z" fill="#87D9FF"/>
<path d="M106.967 108.695C107.606 108.695 108.124 108.177 108.124 107.538C108.124 106.899 107.606 106.381 106.967 106.381C106.328 106.381 105.811 106.899 105.811 107.538C105.811 108.177 106.328 108.695 106.967 108.695Z" fill="#5E7CDB"/>
<path d="M110.299 108.694C110.938 108.694 111.456 108.176 111.456 107.537C111.456 106.898 110.938 106.38 110.299 106.38C109.66 106.38 109.143 106.898 109.143 107.537C109.143 108.176 109.66 108.694 110.299 108.694Z" fill="white"/>
<path d="M113.631 108.694C114.27 108.694 114.788 108.176 114.788 107.537C114.788 106.898 114.27 106.38 113.631 106.38C112.993 106.38 112.475 106.898 112.475 107.537C112.475 108.176 112.993 108.694 113.631 108.694Z" fill="#5E7CDB"/>
<path d="M92.4624 132.406L108.246 119.95" stroke="#120B07" stroke-width="2.6325" stroke-miterlimit="10" stroke-linecap="round"/>
<path d="M38.4429 93.7587C36.8559 105.085 38.5916 124.197 40.6366 126.159C44.1977 129.57 61.3963 125.899 68.2025 126.159C72.9677 126.345 74.9851 90.474 70.6779 84.3152C68.5815 81.3187 67.334 76.5733 63.6782 76.4588C60.4804 76.3601 58.8854 74.2164 51.5225 77.3234C48.143 78.7604 40.03 82.432 38.4429 93.7587Z" fill="#87D9FF"/>
<path d="M59.4497 77.3591L60.2117 72.3965C60.2117 72.3965 68.4155 73.115 68.9366 75.7049C69.4577 78.2947 69.1419 85.1918 69.1419 85.1918L67.6812 87.4579L59.4497 77.3591Z" fill="#87D9FF"/>
<path d="M90.7414 127.265C75.1746 128.824 63.1136 119.922 59.1775 118.789C58.7354 117.17 58.4077 114.102 58.2103 110.17C57.9103 104.189 57.9181 96.2025 58.3129 88.2553C58.4669 85.0969 56.035 82.4123 52.8766 82.2544C49.7183 82.1044 47.0337 84.5324 46.8797 87.6907C46.8639 87.9987 46.5046 95.3695 46.5757 103.486C46.6033 106.566 46.6862 109.207 46.8126 111.485C47.3337 120.83 48.6089 124.028 49.9472 125.946C52.166 129.117 90.6664 135.342 91.0256 135.307C94.1721 134.991 93.8879 126.949 90.7414 127.265Z" fill="#915636"/>
<path d="M58.2103 110.17L46.8126 111.485C46.6862 109.207 46.6033 106.566 46.5757 103.486C46.5046 95.3695 46.8639 87.9987 46.8797 87.6907C47.0337 84.5324 49.7183 82.1044 52.8766 82.2544C56.035 82.4123 58.4669 85.0969 58.3129 88.2553C57.9181 96.2025 57.9103 104.189 58.2103 110.17Z" fill="#87D9FF"/>
<path d="M54.0018 80.8175C54.0018 80.8175 59.4421 82.5743 59.5842 87.2527C59.7263 91.931 58.8657 109.211 59.5842 111.481L50.8276 113.321" stroke="#120B07" stroke-width="0.448277" stroke-miterlimit="10" stroke-linecap="round"/>
<path d="M60.97 40.6668C60.5475 39.0639 59.3316 37.3308 58.0288 36.4149C55.4389 34.6028 51.9844 33.5487 49.288 34.7212C46.5916 35.8937 46.5047 35.6253 44.4044 38.3059C40.0301 43.9041 36.3782 52.104 36.6427 59.9565C36.7928 64.3782 37.7205 70.5409 37.7284 74.5244C37.7324 77.2169 37.3257 81.1096 36.4453 81.9584C34.1318 84.1969 33.3304 82.8032 31.0801 82.9296C33.9068 85.093 34.7319 86.1669 39.3945 86.6051C39.9866 86.6604 46.7692 85.6852 48.6524 83.6718C50.3066 81.907 50.9935 76.98 51.2264 75.2745C52.628 65.0256 47.8115 56.3915 52.7938 47.2599C54.0018 45.049 58.5815 42.0407 60.97 40.6668Z" fill="#120B07"/>
<path d="M62.0991 39.2736C61.5346 41.9187 57.5748 44.3507 54.9691 44.5283C52.3595 44.706 51.3489 47.5682 51.1041 44.0506C50.8593 40.533 51.6529 35.8744 54.2624 35.6968C56.872 35.5191 62.8137 35.9257 62.0991 39.2736Z" fill="#87D9FF"/>
<path d="M77.0894 54.3548C77.0894 54.3548 81.3492 50.3437 80.5912 46.8971C79.8372 43.4505 75.222 33.2767 62.9123 37.1931C62.9123 37.1931 58.3327 35.7126 53.4965 41.1686C49.0116 46.2299 43.445 60.9636 56.0508 65.1682L77.0894 54.3548Z" fill="#120B07"/>
<path d="M65.2456 70.399L64.6494 78.8594L62.8492 80.8966L59.9909 72.7085L59.8843 66.9603L65.2456 70.399Z" fill="black"/>
<path d="M59.8844 68.0266C59.8844 68.0266 67.7092 72.6378 69.6358 71.9035C74.0457 70.2256 79.1543 50.9596 77.666 50.1424C76.1815 49.3252 60.3661 43.4151 58.4039 52.1243C57.2906 57.0632 54.4007 53.7627 54.4007 53.7627C54.4007 53.7627 51.3292 52.1243 51.1279 54.9629C50.9265 57.8014 52.7149 61.0664 54.3612 60.4071C54.3612 60.4071 56.3944 74.138 54.5113 77.7386C66.1261 89.156 64.3969 82.4879 64.6496 78.8598C64.9062 75.2316 65.072 72.8786 65.072 72.8786L59.8844 68.0266Z" fill="#915636"/>
<path d="M71.5581 65.4044C71.6963 65.4913 73.4492 65.7677 74.1756 65.2228C74.4914 64.986 73.6584 62.8659 73.6742 60.505C73.6821 59.4865 74.0216 58.7324 74.0216 58.7324" stroke="black" stroke-width="0.441846" stroke-miterlimit="10" stroke-linecap="round"/>
<path d="M66.7178 57.9666C69.7577 56.6716 70.9026 57.7889 70.9026 57.7889" stroke="black" stroke-width="0.697989" stroke-miterlimit="10" stroke-linecap="round"/>
<path d="M79.2411 60.5685C77.4803 59.5183 76.6196 59.546 76.6196 59.546" stroke="black" stroke-width="0.697989" stroke-miterlimit="10" stroke-linecap="round"/>
<path d="M69.5959 60.4304C69.5287 60.7779 69.1892 61.0068 68.8339 60.9397C68.7273 60.92 68.6326 60.8726 68.5536 60.8055C68.372 60.6634 68.2772 60.4225 68.3246 60.1817C68.3799 59.9054 68.601 59.704 68.8615 59.6685C68.9326 59.6566 69.0076 59.6566 69.0826 59.6724C69.4379 59.7395 69.6669 60.0791 69.5959 60.4304Z" fill="black"/>
<path d="M77.0144 62.3691C76.9472 62.7165 76.6038 62.9455 76.2564 62.8784C75.905 62.8073 75.676 62.4678 75.7431 62.1204C75.8142 61.769 76.1537 61.54 76.5051 61.6071C76.8564 61.6782 77.0854 62.0177 77.0144 62.3691Z" fill="black"/>
<path d="M71.8663 68.4447C71.3965 68.7881 70.8122 68.7171 70.295 68.4526C69.7068 68.1525 69.4659 67.5998 69.3633 67.1418" stroke="black" stroke-width="0.441846" stroke-miterlimit="10" stroke-linecap="round"/>
<path d="M56.698 58.1094C56.698 58.1094 58.0127 58.2397 59.4458 57.379C60.8789 56.5223 62.4699 50.3477 66.0862 51.9387C69.7025 53.5298 76.0429 57.3158 79.2605 54.8839C85.6601 50.0516 77.3142 40.5371 77.3142 40.5371C77.3142 40.5371 68.1273 39.8185 66.4218 39.708C65.2374 39.629 58.8299 41.5951 55.0438 42.7953C53.4765 43.2927 52.2131 49.2146 52.679 50.7938L56.698 58.1094Z" fill="#120B07"/>
<path d="M53.796 59.4591C54.0577 59.4591 54.2698 59.247 54.2698 58.9854C54.2698 58.7237 54.0577 58.5116 53.796 58.5116C53.5344 58.5116 53.3223 58.7237 53.3223 58.9854C53.3223 59.247 53.5344 59.4591 53.796 59.4591Z" fill="#87D9FF"/>
<path d="M52.7583 78.1723V71.441C52.7583 71.441 61.353 74.9863 61.5583 77.6235C61.8109 80.8214 66.4419 83.6086 66.4419 83.6086L63.8204 89.795C63.023 85.1799 57.4761 80.2726 52.7583 78.1723Z" fill="#87D9FF"/>
<path d="M66.6509 90.8096C67.2112 90.8096 67.6655 90.3554 67.6655 89.795C67.6655 89.2347 67.2112 88.7804 66.6509 88.7804C66.0905 88.7804 65.6362 89.2347 65.6362 89.795C65.6362 90.3554 66.0905 90.8096 66.6509 90.8096Z" fill="#120B07"/>
<path d="M66.6509 98.8752C67.2112 98.8752 67.6655 98.4209 67.6655 97.8606C67.6655 97.3002 67.2112 96.8459 66.6509 96.8459C66.0905 96.8459 65.6362 97.3002 65.6362 97.8606C65.6362 98.4209 66.0905 98.8752 66.6509 98.8752Z" fill="#120B07"/>
<path d="M53.9541 70.5336C53.9541 70.5336 63.0502 75.4764 63.2397 77.178C63.4292 78.8756 65.8295 82.5314 68.0522 83.5026C70.2749 84.4738 68.8023 104.383 68.8023 104.383" stroke="#120B07" stroke-width="0.448277" stroke-miterlimit="10" stroke-linecap="round"/>
<path d="M66.6509 72.3965C66.6509 72.3965 69.3829 73.3282 70.0343 74.7929C70.6857 76.2576 70.2554 80.6201 70.2554 80.6201" stroke="#120B07" stroke-width="0.404728" stroke-miterlimit="10" stroke-linecap="round"/>
<path d="M86.683 129.461C86.3119 129.717 87.6108 129.318 87.7845 129.52C88.8386 130.736 85.5381 134.435 85.5381 134.435C85.5381 134.435 91.3258 135.998 94.7052 136.054C96.3989 136.081 98.9611 134.226 100.217 134.565C101.322 134.865 103.521 133.341 102.573 131.861C103.059 132.481 105.001 130.519 104.05 129.476C104.263 129.397 106.162 130.945 106.091 129.461C105.933 126.184 101.973 123.858 97.2201 123.148C96.7897 123.081 90.5164 126.807 86.683 129.461Z" fill="#915636"/>
</svg>
