<svg width="169" height="283" viewBox="0 0 169 283" fill="none" xmlns="http://www.w3.org/2000/svg">
<path d="M43.0073 234.547L48.0584 237.156L53.1439 229.063L47.4238 225.47L43.0073 234.547Z" fill="#FFC09E"/>
<path d="M51.8067 237.306L43.4082 263.797C42.2561 265.996 37.4785 263.452 37.3517 260.969L38.2712 235.624C38.2712 235.624 40.7368 233.088 42.6835 232.663C43.0759 232.576 43.3811 233.166 43.7018 233.657C44.0605 234.211 47.1728 231.77 51.8067 237.306Z" fill="#FFD84D"/>
<path d="M103.273 127.766C103.133 126.644 102.178 125.814 101.048 125.814L73.4877 125.814C72.8563 125.814 72.2571 126.075 71.8828 126.583C69.7901 129.425 63.5306 139.969 72.116 155.292C72.3559 155.72 72.4655 156.222 72.4074 156.709L68.55 189.032C68.5071 189.391 68.3781 189.736 68.174 190.035L45.0882 223.906C44.1775 225.242 44.9263 227.074 46.512 227.39L55.209 229.121C56.0347 229.286 56.8832 228.977 57.4099 228.32L84.1568 194.971C84.4294 194.631 84.5977 194.22 84.6416 193.787L87.7529 163.05C87.8087 162.5 88.0599 161.98 88.4942 161.638C95.8911 155.803 105.656 163.234 105.608 155.959C105.557 146.878 103.912 132.876 103.273 127.766Z" fill="#8A7E72"/>
<path d="M88.072 254.333L94.289 254.108L97.6687 245.169L91.3514 242.776L88.072 254.333Z" fill="#FFC09E"/>
<path d="M98.0602 253.3L100.662 280.972C100.46 283.447 95.0698 282.963 93.9828 280.732L84.9449 257.034C84.9449 257.034 86.2278 253.737 87.8496 252.586C88.1777 252.354 88.6844 252.777 89.1763 253.104C89.7239 253.471 91.6343 250.007 98.0602 253.3Z" fill="#FFD84D"/>
<path d="M98.3361 247.294L91.6548 245.898C90.1182 245.576 88.9624 244.302 88.7901 242.738L101.511 194.439L85.995 166.261C85.7095 163.641 85.0704 152.857 87.577 153.678L103.995 148.37C105.409 148.832 118.187 193.233 118.187 193.233C118.187 193.233 101.708 246.342 100.444 246.967C99.8183 247.285 99.084 247.412 98.3361 247.294Z" fill="#8A7E72"/>
<path d="M117.036 194.326C115.431 192.871 113.605 192.726 112.875 193.46C112.186 194.158 112.435 195.704 113.165 196.556C114.43 198.029 117.566 197.92 119.198 196.175C120.68 194.589 120.558 192.05 119.511 190.518C117.861 188.098 113.999 188.311 111.642 189.467C109.208 190.663 106.842 193.632 107.63 196.502C108.664 200.264 114.212 200.567 114.77 200.59C115.209 200.608 119.737 200.717 122.516 196.959C124.769 193.918 124.238 190.546 124.134 189.943" stroke="black" stroke-width="0.530153" stroke-miterlimit="10"/>
<path d="M80.6779 194.503C82.1737 192.858 84.0321 192.527 84.848 193.207C85.6231 193.851 85.5188 195.46 84.8525 196.402C83.7012 198.034 80.4875 198.229 78.6472 196.606C76.9746 195.133 76.8522 192.522 77.7724 190.854C79.2228 188.216 83.1935 188.053 85.7137 189.005C88.32 189.989 91.0306 192.794 90.5048 195.804C89.8158 199.752 84.1726 200.609 83.606 200.686C83.1573 200.749 78.5384 201.302 75.3247 197.735C72.7229 194.848 72.9314 191.348 72.9813 190.718" stroke="black" stroke-width="0.530153" stroke-miterlimit="10"/>
<path d="M97.5184 42.1917C97.5184 42.1917 103.402 83.7905 100.971 84.6022C98.5407 85.4183 85.1849 81.3773 85.1849 81.3773L75.6814 58.3073L85.593 40.6516L97.5184 42.1917Z" fill="black"/>
<path d="M86.1378 76.1462L88.0815 72.6361C88.0815 72.6361 76.9019 70.2449 75.0679 71.8376C73.2339 73.4346 75.6252 76.1462 75.6252 76.1462H86.1378Z" fill="#FFD84D"/>
<path d="M38.4468 98.6775L70.1384 91.5608C72.3937 90.6789 73.5125 88.1341 72.6306 85.8789C71.7487 83.6237 68.9231 79.201 66.6679 80.0829L40.6977 88.3798L19.6723 69.4781C17.9875 67.7362 16.2675 68.4952 14.5257 70.1801C12.7838 71.8649 14.5476 73.541 16.2324 75.2828L38.4468 98.6775Z" fill="#FFC09E"/>
<path d="M82.414 72.9567C81.8524 72.9874 69.023 77.9366 65.2629 82.4997C61.5027 87.0628 67.3206 96.9129 68.9177 105.662C70.5148 114.411 69.3187 124.745 72.6201 126.36C75.9214 127.975 91.3037 130.255 99.9042 126.303C103.98 117.41 101.842 107.974 102.663 105.342C106.677 92.4639 107.687 77.9278 107.687 77.9278L88.6883 73.8834L82.414 72.9567Z" fill="#FFD84D"/>
<path d="M89.6414 87.2867C89.0187 87.2867 88.5138 86.7819 88.5138 86.1591C88.5138 85.5363 89.0187 85.0315 89.6414 85.0315C90.2642 85.0315 90.769 85.5363 90.769 86.1591C90.769 86.7819 90.2642 87.2867 89.6414 87.2867Z" fill="#121212"/>
<path d="M88.7601 95.5133C88.1373 95.5133 87.6325 95.0084 87.6325 94.3857C87.6325 93.7629 88.1373 93.2581 88.7601 93.2581C89.3828 93.2581 89.8877 93.7629 89.8877 94.3857C89.8877 95.0084 89.3828 95.5133 88.7601 95.5133Z" fill="#121212"/>
<path d="M98.4849 46.6314C98.4849 46.6314 98.8842 37.4043 96.9712 34.1355C95.0582 30.8668 81.7901 30.1604 78.3327 33.8021C78.3327 33.8021 73.1685 33.8065 70.0357 40.9714C67.1311 47.623 66.3194 64.5021 80.5835 64.6249L98.4849 46.6314Z" fill="black"/>
<path d="M87.7051 68.5335L85.814 71.3196L83.6553 72.0655L79.7284 71.8988V66.932L87.7051 68.5335Z" fill="black"/>
<path d="M84.532 65.8009C84.532 65.8009 87.7305 67.9815 90.9466 66.3142C92.592 65.4586 95.1149 61.286 96.2425 56.3851C97.7781 49.7247 96.5145 44.4903 95.501 44.034C93.8819 43.3057 83.5623 39.1462 79.008 47.3159C74.4581 55.4856 75.9323 56.135 75.9323 56.135C75.9323 56.135 74.7827 63.9054 76.4456 63.0762C76.4456 63.0762 76.8932 67.2532 77.525 68.9468C77.933 70.0349 77.8541 76.9015 81.4826 77.3754C83.5228 77.6386 85.3832 77.937 86.0018 75.7256C86.7433 73.0711 86.1949 69.5435 86.1949 69.5435L84.532 65.8009Z" fill="#FFC09E"/>
<path d="M90.6884 50.1813C90.8068 53.4018 92.3381 57.1488 91.9301 57.5129C91.2237 58.1491 89.3677 58.0131 89.2141 57.9342" stroke="black" stroke-width="0.394779" stroke-miterlimit="10" stroke-linecap="round"/>
<path d="M83.3171 50.633C85.3617 49.2684 86.5112 49.8432 86.5112 49.8432" stroke="black" stroke-width="0.623616" stroke-miterlimit="10" stroke-linecap="round"/>
<path d="M96.4365 50.0891C94.3436 49.6108 93.4968 49.9136 93.4968 49.9136" stroke="black" stroke-width="0.623616" stroke-miterlimit="10" stroke-linecap="round"/>
<path d="M94.8005 52.599C94.8444 52.9675 92.9095 53.2001 92.8656 52.8315C92.8217 52.4586 93.2166 52.1032 93.7563 52.0418C94.2872 51.9759 94.7567 52.226 94.8005 52.599Z" fill="black"/>
<path d="M86.4504 52.7828C86.4943 53.1514 84.5594 53.3839 84.5155 53.0154C84.4716 52.6424 84.8665 52.287 85.4062 52.2256C85.9371 52.1598 86.4066 52.4099 86.4504 52.7828Z" fill="black"/>
<path d="M90.1407 63.6865C89.3773 63.7524 87.9162 61.1944 87.8416 61.111L92.0713 60.9969C91.6281 62.5282 90.7024 63.6339 90.1407 63.6865Z" fill="white"/>
<path d="M152.411 28.6067C154.218 24.6798 154.512 15.5799 152.257 14.0662C150.91 13.6932 150.164 19.2041 150.164 19.2041C150.164 19.2041 151.064 12.004 149.309 11.8943C147.554 11.7846 146.891 18.8882 146.891 18.8882C146.891 18.8882 147.339 11.5082 145.724 11.381C144.109 11.2537 142.267 23.539 142.267 23.539C142.267 23.539 139.507 19.9807 138.598 20.3273C136.084 21.2882 138.967 25.7591 139.296 27.9178C139.783 31.1252 139.63 32.7705 139.875 34.9555C140.283 38.5972 146.435 36.8641 149.326 33.7402C150.076 32.9285 151.95 29.6114 152.411 28.6067Z" fill="#FFC09E"/>
<path d="M9.01473 71.6389C8.9125 71.4506 -1.07381 61.9646 0.104529 58.9461C0.98156 57.8862 4.68878 61.9162 4.68878 61.9162C4.68878 61.9162 -0.0945543 56.6056 1.26135 55.5241C2.61725 54.4426 7.14768 59.8124 7.14768 59.8124C7.14768 59.8124 2.6334 54.109 3.86555 53.0975C5.0977 52.0859 13.5021 60.9692 13.5021 60.9692C13.5021 60.9692 13.7227 56.541 14.659 56.3097C17.2309 55.6694 18.6083 62.3467 19.4907 64.3052C19.7651 64.9186 23.1015 72.2903 21.708 73.3019C20.2229 74.378 19.1248 74.0548 17.4353 74.9587C15.6221 75.9218 9.01473 71.6389 9.01473 71.6389Z" fill="#FFC09E"/>
<path d="M112.899 86.3126C113 86.2687 113.101 86.2204 113.202 86.1722L136.614 74.0493L150.531 29.3397C151.251 27.0274 149.961 24.566 147.644 23.8464C145.332 23.1268 142.87 24.4168 142.151 26.7334L129.326 67.9417L109.169 78.3798C107.019 79.4943 106.177 82.14 107.291 84.2943C108.349 86.3433 110.81 87.2033 112.899 86.3126Z" fill="#FFC09E"/>
<path d="M89.9115 75.5646C89.9115 75.5646 108.608 76.1108 112.223 74.7594C117.107 72.9342 121.358 72.061 121.358 72.061L119.564 90.6074L103.273 91.5639L100.061 83.0563L89.9115 75.5646Z" fill="#FFD84D"/>
<path d="M78.2954 73.7164C78.2954 73.7164 71.1654 75.5881 67.1777 76.5943C61.1132 78.1246 54.8086 83.1322 54.8086 83.1322L59.3629 99.7612L70.955 95.5184L78.2954 73.7164Z" fill="#FFD84D"/>
<path d="M89.2434 71.2764L85.8123 71.3202L83.0437 79.5514L89.3794 76.1466L89.2434 71.2764Z" fill="#FFD84D"/>
<path d="M78.9204 71.2764L82.3559 71.3202L85.1201 79.5514L78.7888 76.1466L78.9204 71.2764Z" fill="#FFD84D"/>
<path d="M69.5038 71.1234C69.6048 72.1633 68.9115 85.0277 69.9558 85.0804C72.4698 85.1988 77.7788 83.0006 80.271 81.307C82.3551 79.8898 81.5127 58.4477 81.2758 55.4027C81.0432 52.3708 83.2282 45.8597 87.3438 46.2809C91.4594 46.7021 101.639 48.4483 103.003 44.4469C105.539 37.0143 95.0133 33.9912 95.0133 33.9912C95.0133 33.9912 84.2549 35.1013 82.5218 35.54C81.3152 35.8472 75.5675 39.8706 72.1803 42.2925C70.7806 43.2929 70.3594 47.1935 68.3806 50.8791L69.5038 71.1234Z" fill="black"/>
</svg>
