<svg width="151" height="264" viewBox="0 0 151 264" fill="none" xmlns="http://www.w3.org/2000/svg">
<path d="M38.2564 160.904H84.4609V210.302H38.2564V160.904Z" fill="#E9E5E5"/>
<path d="M38.2564 162.178V168.623C54.8893 169.439 84.2856 168.23 84.2856 168.23C84.3461 168.23 84.4065 168.23 84.4609 168.224V162.178H38.2564Z" fill="black" fill-opacity="0.44"/>
<path d="M98.1174 202.628H104.9L106.042 191.416H98.1174V202.628Z" fill="#EEB489"/>
<path d="M81.4944 142.056L37.0995 143.765C32.2327 143.765 28.7691 150.459 29.3706 155.921C29.805 159.864 33.6458 162.969 34.4929 163.382C46.0875 169.029 84.2853 164.638 84.2853 164.638C89.7822 164.638 94.2278 160.162 94.1902 154.665V154.665C94.1425 147.687 88.4724 142.056 81.4944 142.056Z" fill="#C4C4C4"/>
<path d="M95.2866 143.974H108.871V196.322H95.2866V143.974Z" fill="#757575"/>
<path d="M108.872 147.155V139.072C108.872 136.034 106.409 133.571 103.37 133.571H61.7464V139.205C61.7464 143.596 65.3057 147.155 69.6964 147.155H108.872Z" fill="#757575"/>
<path d="M94.7855 196.322H110.763L110.633 188.565L94.7855 191.633V196.322Z" fill="#C4C4C4"/>
<path d="M106.712 140.313C105.52 138.928 104.002 138.615 103.316 139.156C102.666 139.669 102.714 140.99 103.239 141.78C104.147 143.147 106.784 143.381 108.333 142.089C109.741 140.915 109.9 138.774 109.182 137.38C108.049 135.181 104.791 134.957 102.699 135.682C100.535 136.433 98.2446 138.676 98.6081 141.163C99.0844 144.421 103.703 145.254 104.165 145.331C104.533 145.392 108.316 145.952 111.035 143.092C113.236 140.776 113.144 137.898 113.119 137.38" stroke="#C4C4C4" stroke-width="0.604614" stroke-miterlimit="10" stroke-linecap="round"/>
<path d="M105.156 198.208C105.156 198.208 118.656 203.64 126.816 205.358C129.016 205.821 128.317 210.302 128.317 210.302L97.4035 209.349C96.8987 209.337 96.4799 208.959 96.4221 208.457C96.2155 206.667 95.8993 201.814 97.2841 200.143C97.5625 199.807 98.2199 200.104 98.8298 200.312C99.5065 200.543 100.649 203.95 104.781 200.567C105.168 200.25 104.705 198.65 105.156 198.208Z" fill="#C4C4C4"/>
<path d="M70.6401 146.068H84.2246V198.416H70.6401V146.068Z" fill="#272727"/>
<path d="M84.2246 149.249L82.3778 138.851C82.3778 135.812 79.9146 133.349 76.8762 133.349C68.891 132.833 42.8578 127.417 40.1047 134.354C38.246 139.038 37.7382 139.701 38.2492 142.483C38.9483 146.289 40.6583 149.249 45.049 149.249H84.2246Z" fill="#272727"/>
<path d="M73.5358 204.722H80.3181L80.7002 193.51H72.7756L73.5358 204.722Z" fill="#EEB489"/>
<path d="M69.4437 198.416H85.4209L85.291 190.659L69.4437 193.727V198.416Z" fill="#757575"/>
<path d="M79.1747 142.408C80.3671 141.022 81.8852 140.709 82.5708 141.25C83.2216 141.763 83.1729 143.084 82.648 143.874C81.7401 145.241 79.1033 145.475 77.5538 144.183C76.1457 143.009 75.987 140.868 76.7048 139.475C77.8377 137.275 81.096 137.051 83.1883 137.777C85.3519 138.527 87.6426 140.77 87.2791 143.257C86.8028 146.516 82.1844 147.348 81.7218 147.425C81.3539 147.486 77.5717 148.047 74.8524 145.186C72.6507 142.87 72.7429 139.992 72.7684 139.475" stroke="#C4C4C4" stroke-width="0.604614" stroke-miterlimit="10" stroke-linecap="round"/>
<path d="M80.1686 200.281C80.1686 200.281 93.6526 205.753 101.808 207.494C104.006 207.964 103.294 212.443 103.294 212.443L72.3833 211.399C71.8786 211.386 71.4609 211.007 71.4045 210.505C71.2032 208.713 70.9013 203.86 72.2909 202.193C72.5703 201.857 73.2269 202.157 73.8362 202.367C74.5121 202.599 75.6445 206.009 79.7862 202.639C80.1743 202.323 79.7163 200.722 80.1686 200.281Z" fill="#757575"/>
<path d="M92.1214 143.603L76.4764 120.121L72.748 101.865L79.7491 100.436L83.1976 117.322L98.0677 139.641L92.1214 143.603Z" fill="#EEB489"/>
<path d="M98.9878 140.071C99.678 140.624 102.005 142.918 103.014 143.92C103.304 144.207 103.397 144.635 103.251 145.016C102.787 146.234 101.791 148.829 101.652 149.043C101.184 149.763 95.0415 152.031 95.0415 152.031C95.0415 152.031 91.7021 150.798 91.8585 149.764C91.8585 149.764 92.5749 149.844 92.7586 148.323C92.8761 147.35 93.0705 147.214 92.0905 147.218L90.4181 147.567C90.4181 147.567 88.8896 143.568 89.9116 142.058C91.1076 140.29 90.4594 136.833 90.4594 136.833C90.4594 136.833 94.6759 137.004 96.4359 137.125C97.0903 137.17 98.6943 139.835 98.9878 140.071Z" fill="#EEB489"/>
<path d="M70.4753 105.42C62.0963 93.5658 63.1753 91.4419 62.9648 91.2388C64.5562 92.7754 62.9648 72.7874 62.9648 72.7874C67.0664 74.035 73.8406 77.6361 75.2762 79.4981C77.4147 82.272 83.0637 95.5661 84.792 101.999L70.4753 105.42Z" fill="#C72F79"/>
<path d="M48.3377 71.2274C45.6714 71.8859 38.2133 75.4205 38.2133 75.4205L34.9727 85.125V137.079H74.8557L71.6248 85.6397C71.6248 85.6397 71.0249 79.6107 69.9211 78.4272C65.676 73.8759 63.4062 72.2655 59.2117 71.4376C55.0173 70.6097 50.9731 70.5765 48.3377 71.2274Z" fill="#C72F79"/>
<path d="M72.3506 106.341L86.1028 103.095L84.7926 98.1257" stroke="#161F40" stroke-width="0.472713" stroke-miterlimit="10" stroke-linecap="round"/>
<path d="M62.5269 141.118L37.7402 126.85L37.279 126.109C37.102 125.825 30.8136 117.015 29.0371 109.699L37.8526 107.294C39.0505 112.228 41.8946 119.168 42.9149 120.943L66.1036 135.008L62.5269 141.118Z" fill="#EEB489"/>
<path d="M61.2551 140.239C61.4296 140.289 71.7406 150.289 74.0193 148.743C74.7308 147.814 70.6893 145.509 70.6893 145.509C70.6893 145.509 75.9927 148.465 76.6311 147.136C77.2696 145.808 71.9652 143.072 71.9652 143.072C71.9652 143.072 77.5445 145.73 78.1491 144.517C78.7537 143.305 70.1893 138.7 70.1893 138.7C70.1893 138.7 74.7712 139.571 75.2733 138.928C75.7755 138.286 68.6162 134.439 67.5019 135.199C66.9491 135.576 62.6204 133.207 62.6204 133.207L61.2551 140.239Z" fill="#EEB489"/>
<path d="M35.3512 109.259C30.9112 93.8772 41.3377 83.1274 42.1568 83.547" stroke="#C72F79" stroke-width="17.6754" stroke-miterlimit="10"/>
<path d="M53.9483 77.0273H53.9483C56.0167 77.0273 57.6935 75.3505 57.6935 73.2821V65.4412H50.2031V73.2821C50.2031 75.3505 51.8799 77.0273 53.9483 77.0273Z" fill="#EEB489"/>
<path d="M60.8179 73.5022C60.8179 73.5022 59.9112 78.4052 53.48 77.77C47.0487 77.1349 47.082 72.7876 47.082 72.7876" stroke="#161F40" stroke-width="0.472713" stroke-miterlimit="10" stroke-linecap="round"/>
<path d="M57.6937 67.1279L50.8604 67.198C50.8604 67.198 56.6212 71.7257 57.6937 70.9915V67.1279Z" fill="#161F40"/>
<path d="M54.4585 67.91H58.4183C62.9602 67.91 66.6421 64.228 66.6421 59.6861V49.1147C66.6421 44.5728 62.9602 40.8909 58.4183 40.8909H53.0569C48.515 40.8909 44.833 44.5728 44.833 49.1147V58.2844C44.833 63.6005 49.1425 67.91 54.4585 67.91Z" fill="#EEB489"/>
<path d="M44.8395 57.7323C46.3785 57.7323 47.6262 56.3219 47.6262 54.5821C47.6262 52.8423 46.3785 51.4319 44.8395 51.4319C43.3004 51.4319 42.0527 52.8423 42.0527 54.5821C42.0527 56.3219 43.3004 57.7323 44.8395 57.7323Z" fill="#EEB489"/>
<path d="M72.0739 39.9318C72.2549 38.2576 72.5438 35.6645 70.8017 34.4795C69.1532 33.3582 66.5758 33.9509 65.5311 35.2973C64.5991 36.4985 64.9791 38.1808 64.7133 38.2052C64.2989 38.2434 64.5476 34.0464 62.1689 32.2986C60.6789 31.2038 58.2006 31.1011 57.171 32.2077C55.4579 34.0487 56.8819 36.6948 56.4946 36.8488C56.0611 37.0211 55.6028 32.4903 51.5369 31.3899C48.9726 30.6959 45.6938 32.3407 45.5394 33.9343C45.3085 36.3178 52.0141 39.1345 52.0822 39.0231C52.1419 38.9253 47.9831 35.1003 44.3581 36.0243C42.8573 36.4068 41.4891 37.5928 40.9958 39.1139C40.2072 41.546 41.6683 44.3216 43.5403 45.1115C44.6504 45.5799 45.0538 44.9916 47.7879 44.8537C50.0982 44.7372 51.8621 45.0538 53.7854 45.3989C56.6487 45.9128 56.8955 46.3274 58.9884 46.7471C61.4484 47.2405 66.6185 48.2774 69.7182 45.3989C71.6798 43.5774 71.9607 40.9786 72.0739 39.9318Z" fill="#161F40"/>
<path d="M52.1956 44.6863C52.1956 44.6863 47.9259 50.5746 48.1873 53.3489C48.4488 56.1233 45.7535 54.4002 45.7535 54.4002C45.7535 54.4002 45.343 51.0007 43.4103 51.8819C42.8151 52.1533 39.0138 44.201 42.0537 43.6349C45.0935 43.0687 52.1956 44.6863 52.1956 44.6863Z" fill="#161F40"/>
<path d="M68.4082 51.7463L64.6943 51.3853" stroke="#161F40" stroke-width="1.42365" stroke-miterlimit="10" stroke-linecap="round"/>
<path d="M53.7744 52.3653L57.1911 51.7463" stroke="#161F40" stroke-width="1.42365" stroke-miterlimit="10" stroke-linecap="round"/>
<path d="M65.9459 55.279C66.3308 55.279 66.6428 54.967 66.6428 54.5821C66.6428 54.1973 66.3308 53.8853 65.9459 53.8853C65.561 53.8853 65.249 54.1973 65.249 54.5821C65.249 54.967 65.561 55.279 65.9459 55.279Z" fill="#161F40"/>
<path d="M61.9122 52.9312C62.909 55.439 63.2402 57.2348 63.3662 58.2926C63.4235 58.7742 63.4739 59.4023 63.0935 59.7465C62.4387 60.339 61.0086 59.6361 60.8672 59.5648" stroke="#161F40" stroke-width="0.474551" stroke-miterlimit="10" stroke-linecap="round"/>
<path d="M58.5245 61.3823C58.498 62.4426 58.9618 64.3973 59.9197 64.7402C60.9852 65.1217 62.4016 63.669 63.0014 62.6428L58.5245 61.3823Z" fill="#F1F2F2"/>
<path d="M57.1783 55.279C57.5632 55.279 57.8752 54.967 57.8752 54.5821C57.8752 54.1973 57.5632 53.8853 57.1783 53.8853C56.7934 53.8853 56.4814 54.1973 56.4814 54.5821C56.4814 54.967 56.7934 55.279 57.1783 55.279Z" fill="#161F40"/>
</svg>
