<svg width="151" height="264" viewBox="0 0 151 264" fill="none" xmlns="http://www.w3.org/2000/svg">
<path d="M110.27 162.195H64.0649V211.593H110.27V162.195Z" fill="#E9E5E5"/>
<path d="M110.27 163.468V169.914C93.6366 170.73 64.2403 169.521 64.2403 169.521C64.1798 169.521 64.1194 169.521 64.0649 169.515V163.468H110.27V163.468Z" fill="black" fill-opacity="0.44"/>
<path d="M46.5383 206.012H39.756L38.6138 194.801H46.5383V206.012Z" fill="#EEB489"/>
<path d="M67.0315 143.347L111.426 145.056C116.293 145.056 119.757 151.749 119.155 157.211C118.721 161.155 114.88 164.26 114.033 164.673C102.438 170.32 64.2406 165.929 64.2406 165.929C58.7437 165.929 54.2981 161.453 54.3357 155.956V155.956C54.3834 148.978 60.0535 143.347 67.0315 143.347Z" fill="#5AA2E4"/>
<path d="M49.3692 147.358H35.7847V199.707H49.3692V147.358Z" fill="#696969"/>
<path d="M35.7837 150.54V142.457C35.7837 139.418 38.2468 136.955 41.2853 136.955H82.9094V142.59C82.9094 146.98 79.35 150.54 74.9593 150.54H35.7837V150.54Z" fill="#696969"/>
<path d="M49.8703 199.707H33.8931L34.023 191.949L49.8703 195.018V199.707Z" fill="#5AA2E4"/>
<path d="M37.9428 143.698C39.1352 142.313 40.6533 142 41.339 142.54C41.9897 143.053 41.941 144.375 41.4161 145.165C40.5082 146.531 37.8714 146.765 36.3219 145.473C34.9138 144.299 34.7551 142.159 35.4729 140.765C36.6058 138.566 39.8641 138.341 41.9564 139.067C44.12 139.817 46.4107 142.06 46.0472 144.547C45.5709 147.806 40.9526 148.638 40.4899 148.715C40.122 148.776 36.3398 149.337 33.6205 146.477C31.4188 144.161 31.511 141.282 31.5365 140.765" stroke="#5AA2E4" stroke-width="0.604614" stroke-miterlimit="10" stroke-linecap="round"/>
<path d="M39.4992 201.593C39.4992 201.593 25.9992 207.024 17.8389 208.742C15.6391 209.205 16.3379 213.687 16.3379 213.687L47.2518 212.733C47.7566 212.722 48.1753 212.344 48.2332 211.842C48.4398 210.051 48.7559 205.198 47.3712 203.527C47.0928 203.191 46.4353 203.489 45.8255 203.697C45.1488 203.928 44.0064 207.334 39.8746 203.952C39.4875 203.635 39.9502 202.035 39.4992 201.593Z" fill="#5AA2E4"/>
<path d="M77.8848 147.358H64.3003V199.707H77.8848V147.358Z" fill="#454545"/>
<path d="M64.3003 150.54V142.457C64.3003 139.419 66.7634 136.955 69.8019 136.955L78.2752 136.408L109.089 136.408C109.089 136.408 109.642 138.471 109.642 142.784C109.642 147.174 107.867 150.54 103.476 150.54H64.3003Z" fill="#454545"/>
<path d="M74.99 206.012H68.2077L67.8257 194.801H75.7502L74.99 206.012Z" fill="#EEB489"/>
<path d="M79.0812 199.707H63.104L63.2339 191.949L79.0812 195.018V199.707Z" fill="#5AA2E4"/>
<path d="M69.3507 143.698C68.1583 142.313 66.6402 142 65.9545 142.54C65.3038 143.053 65.3525 144.375 65.8774 145.165C66.7853 146.531 69.4221 146.765 70.9716 145.473C72.3797 144.299 72.5384 142.159 71.8206 140.765C70.6877 138.566 67.4294 138.341 65.3371 139.067C63.1735 139.817 60.8828 142.06 61.2463 144.547C61.7226 147.806 66.341 148.638 66.8036 148.715C67.1715 148.776 70.9537 149.337 73.673 146.477C75.8747 144.161 75.7825 141.282 75.757 140.765" stroke="#5AA2E4" stroke-width="0.604614" stroke-miterlimit="10" stroke-linecap="round"/>
<path d="M68.3568 201.572C68.3568 201.572 54.8728 207.043 46.7176 208.785C44.5192 209.255 45.2311 213.734 45.2311 213.734L76.1421 212.69C76.6468 212.677 77.0645 212.297 77.1208 211.795C77.3222 210.004 77.6241 205.15 76.2345 203.483C75.955 203.148 75.2985 203.447 74.6892 203.657C74.0132 203.89 72.8809 207.3 68.7392 203.93C68.3511 203.614 68.8091 202.013 68.3568 201.572Z" fill="#454545"/>
<path d="M102.848 45.7092C102.848 45.7092 104.241 50.2685 103.184 51.5895C102.128 52.9106 101.421 54.0384 101.421 54.0384V45.4211L102.848 45.7092Z" fill="#F2A600"/>
<path d="M111.855 144.405L112.453 119.759L108.725 101.503L117.075 99.197L119.175 116.96L116.476 145.04L111.855 144.405Z" fill="#EEB489"/>
<path d="M67.3385 144.405L66.7407 119.759L70.4688 101.503L62.1191 99.197L60.0192 116.96L62.7179 145.04L67.3385 144.405Z" fill="#EEB489"/>
<path d="M106.452 105.058C98.0734 93.2037 99.1523 91.0798 98.9419 90.8768C100.533 92.4134 98.9419 72.4253 98.9419 72.4253C99.8339 72.6967 100.852 73.0793 101.915 73.5312C105.738 75.1571 110.13 77.679 111.253 79.1361C113.392 81.91 119.041 95.204 120.769 101.637L106.452 105.058Z" fill="#0E0F25"/>
<path d="M72.742 105.058C81.121 93.2037 80.042 91.0798 80.2524 90.8768C78.6611 92.4134 80.2524 72.4253 80.2524 72.4253C79.3604 72.6967 78.3419 73.0793 77.2795 73.5312C73.4568 75.1571 69.0645 77.679 67.9411 79.1361C65.8025 81.91 60.1536 95.204 58.4253 101.637L72.742 105.058Z" fill="#0E0F25"/>
<path d="M84.3147 70.8778C81.6484 71.5546 74.1903 75.1873 74.1903 75.1873L70.9497 85.1612L72.1739 138.305H109.619L107.602 85.6902C107.602 85.6902 107.002 79.4939 105.898 78.2775C101.653 73.5998 99.3832 71.9447 95.1888 71.0938C90.9944 70.2429 86.9502 70.2088 84.3147 70.8778Z" fill="#0E0F25"/>
<path d="M88.3204 75.3972C89.3065 75.6132 90.3379 75.5265 91.2936 75.2012C92.3635 74.837 93.671 74.1419 93.671 72.9198V65.0789H86.1807V72.9198C86.1807 74.4136 87.0553 75.12 88.3204 75.3972Z" fill="#EEB489"/>
<path d="M96.7949 73.1399C96.7949 73.1399 95.8883 78.0429 89.457 77.4077C83.0258 76.7725 83.0591 72.4253 83.0591 72.4253" stroke="#427BFF" stroke-width="1.50429" stroke-miterlimit="10" stroke-linecap="round"/>
<path d="M93.6707 66.7656L86.8374 66.8357C86.8374 66.8357 92.5983 71.3634 93.6707 70.6292V66.7656Z" fill="#231F20"/>
<path d="M90.4356 67.5475H94.3953C96.5775 67.5965 99.174 65.995 101.348 61.6769C101.764 60.8489 102.004 59.9402 102.055 59.0146L102.619 48.7523C102.619 44.2104 98.9373 40.5284 94.3953 40.5284H89.0339C84.492 40.5284 80.8101 44.2104 80.8101 48.7523V57.922C80.8101 63.238 85.1196 67.5475 90.4356 67.5475Z" fill="#EEB489"/>
<path d="M108.051 39.5695C108.232 37.8953 108.521 35.3022 106.779 34.1172C105.13 32.9959 102.553 33.5886 101.508 34.935C100.576 36.1362 100.956 37.8185 100.69 37.8429C100.276 37.8811 100.525 33.6841 98.1459 31.9363C96.656 30.8415 94.1776 30.7388 93.148 31.8454C91.435 33.6864 92.859 36.3325 92.4717 36.4865C92.0381 36.6588 91.5799 32.128 87.514 31.0276C84.9496 30.3335 81.6709 31.9784 81.5165 33.572C81.2855 35.9555 87.9911 38.7722 88.0592 38.6608C88.119 38.5629 83.9602 34.738 80.3351 35.662C78.8344 36.0445 77.4661 37.2305 76.9729 38.7516C76.1842 41.1837 77.6453 43.9593 79.5173 44.7492C80.6274 45.2176 81.0309 44.6293 83.7649 44.4914C86.0753 44.3749 92.882 47.7379 94.9748 48.1576C97.4348 48.651 102.596 47.9151 105.695 45.0366C107.657 43.2151 107.938 40.6163 108.051 39.5695Z" fill="#F2A600"/>
<path d="M85.8509 44.5009C85.8509 44.5009 81.5025 51.2419 81.764 54.0162C81.8887 55.3399 80.1277 49.79 78.8052 50.6127C78.0557 48.5818 77.2848 43.8373 79.6269 43.4011C82.6667 42.8349 85.8509 44.5009 85.8509 44.5009Z" fill="#F2A600"/>
<path d="M100.485 52.1062L96.7715 51.7451" stroke="#231F20" stroke-width="1.42365" stroke-miterlimit="10" stroke-linecap="round"/>
<path d="M85.8511 52.7252L89.2677 52.1062" stroke="#231F20" stroke-width="1.42365" stroke-miterlimit="10" stroke-linecap="round"/>
<path d="M93.9889 53.291C94.9856 55.7989 95.3169 57.5946 95.4428 58.6524C95.5002 59.1341 95.5506 59.7622 95.1702 60.1064C94.5153 60.6989 93.0853 59.996 92.9438 59.9246" stroke="#231F20" stroke-width="0.474551" stroke-miterlimit="10" stroke-linecap="round"/>
<path d="M90.7466 62.3658C90.72 63.4262 91.7749 64.6527 92.5084 64.7354C93.4345 64.8398 94.9903 63.6642 95.5901 62.638L90.7466 62.3658Z" fill="#F1F2F2"/>
<path d="M98.0134 55.3508C98.2393 55.3508 98.4223 55.1677 98.4223 54.9419C98.4223 54.716 98.2393 54.533 98.0134 54.533C97.7876 54.533 97.6045 54.716 97.6045 54.9419C97.6045 55.1677 97.7876 55.3508 98.0134 55.3508Z" fill="#231F20"/>
<path d="M89.2546 55.3508C89.4805 55.3508 89.6635 55.1677 89.6635 54.9419C89.6635 54.716 89.4805 54.533 89.2546 54.533C89.0288 54.533 88.8457 54.716 88.8457 54.9419C88.8457 55.1677 89.0288 55.3508 89.2546 55.3508Z" fill="#231F20"/>
<path d="M112.234 140.273C112.073 140.288 111.924 140.358 111.812 140.474C111.131 141.18 108.674 143.788 108.519 144.867C108.34 146.121 104.085 149.57 106.19 150.332C107.117 150.667 109.415 147.286 110.401 147.465C111.324 147.633 110.405 153.627 109.342 155.926C109.196 156.242 109.322 156.631 109.632 156.789C111.06 157.511 112.282 153.557 112.282 153.557L111.615 155.616C111.419 156.222 112.099 156.744 112.627 156.387C113.303 155.929 114.054 155.044 114.477 153.333C114.477 153.333 114.516 154.855 115.238 154.766C116.83 154.568 117.589 145.982 117.65 144.422C117.656 144.28 116.987 140.662 116.908 140.544L115.102 140.364C114.965 140.158 114.726 140.044 114.48 140.067L112.234 140.273Z" fill="#EEB489"/>
<path d="M66.9603 140.273C67.1206 140.288 67.2697 140.358 67.3816 140.474C68.063 141.18 70.5202 143.788 70.6744 144.867C70.8535 146.121 75.1086 149.57 73.0035 150.332C72.0768 150.667 69.7786 147.286 68.7932 147.465C67.8694 147.633 68.789 153.627 69.8519 155.926C69.9978 156.242 69.8718 156.631 69.5615 156.789C68.1342 157.511 66.912 153.557 66.912 153.557L67.5786 155.616C67.7748 156.222 67.0944 156.744 66.5671 156.387C65.8911 155.929 65.1397 155.044 64.7172 153.333C64.7172 153.333 64.6777 154.855 63.9558 154.766C62.3639 154.568 61.6047 145.982 61.5435 144.422C61.5379 144.28 62.2073 140.662 62.2858 140.544L64.0916 140.364C64.2287 140.158 64.4676 140.044 64.7139 140.067L66.9603 140.273Z" fill="#EEB489"/>
<ellipse cx="80.2063" cy="53.8099" rx="2.75747" ry="3.46493" transform="rotate(-15.2666 80.2063 53.8099)" fill="#EEB489"/>
</svg>
