<svg width="239" height="264" viewBox="0 0 239 264" fill="none" xmlns="http://www.w3.org/2000/svg">
<path d="M110.874 239.874H134.3V241.425C134.3 242.463 133.458 243.305 132.42 243.305H112.754C111.715 243.305 110.874 242.463 110.874 241.425V239.874Z" fill="#E0E0E0"/>
<path d="M91.4688 240.382H114.895V241.932C114.895 242.971 114.054 243.813 113.015 243.813H93.3491C92.3106 243.813 91.4688 242.971 91.4688 241.932V240.382Z" fill="#F1EDED"/>
<path d="M110.364 237.046C112.399 237.312 114.189 236.979 116.391 236.171L118.435 181.463L107.585 179.45L110.364 237.046Z" fill="#F9B77A"/>
<path d="M92.5283 236.969C94.2364 237.235 96.0126 236.979 97.8606 236.171L100.509 205.494L101.383 177.067L89.5487 175.094L91.9405 205.494L92.5283 236.969Z" fill="#EEB489"/>
<path d="M117.815 133.693C118.645 133.693 119.319 134.366 119.319 135.197V135.806L120.507 183.136H105.186L105.186 151.247H103.462V183.136H87.3144V136.064V135.197C87.3144 134.366 87.9879 133.693 88.8187 133.693H117.815Z" fill="#202020"/>
<path d="M91.8906 231.124L99.16 231.124L98.4016 237.078H92.6697L91.8906 231.124Z" fill="#D6DADC"/>
<path d="M109.686 231.124L116.792 231.124L116.345 236.325H110.509L109.686 231.124Z" fill="#E8E8E8"/>
<path d="M116.024 232.668C116.024 232.668 126.72 236.675 133.185 237.942C134.435 238.187 134.503 239.957 134.442 240.938C134.419 241.313 134.094 241.581 133.719 241.571L109.882 240.886C109.482 240.878 109.15 240.599 109.104 240.229C108.941 238.908 110.18 233.914 110.18 233.914C110.18 233.914 112.453 236.904 115.727 234.409C116.033 234.175 115.667 232.995 116.024 232.668Z" fill="#0A0A0A"/>
<path d="M97.946 233.901C97.946 233.901 107.892 237.937 113.907 239.222C115.055 239.467 114.981 240.808 114.84 241.571C114.781 241.892 114.491 242.102 114.165 242.102H92.2036C91.8313 242.093 91.5232 241.813 91.4816 241.443C91.3331 240.121 92.4914 235.205 92.4914 235.205C92.4914 235.205 94.6091 238.127 97.664 235.641C97.9503 235.408 97.6125 234.227 97.946 233.901Z" fill="#202020"/>
<path d="M206.69 90.7737C216.354 93.0458 225.905 89.3865 230.311 82.1321C235.47 73.6369 232.734 61.5952 226.278 57.0713C217.224 50.7264 204.948 62.0394 175.004 71.186C153.789 77.6664 139.079 82.1595 122.351 79.3861C91.0322 74.1935 87.4555 49.2999 62.0867 49.0058C42.0619 48.7736 22.5464 64.0319 13.9816 81.844C7.62884 95.0557 6.33857 111.673 11.3891 125.052C30.1191 174.669 141.608 194.452 177.309 154.434C190.667 139.46 197.355 111.696 186.814 102.584C176.596 93.7509 153.542 105.347 150.52 106.905" stroke="#F1F2F2" stroke-width="16.5471" stroke-miterlimit="10"/>
<path d="M168.028 97.9532C168.258 97.8662 175.828 90.6776 181.347 90.4803C181.448 89.1325 188.978 89.0481 188.753 87.533C188.641 86.7815 181.958 83.6244 178.012 83.0682C174.003 82.503 168.028 86.0688 168.028 86.0688V97.9532Z" fill="#EEB489"/>
<path d="M188.907 91.3217V88.216C188.907 87.8537 188.613 87.5601 188.251 87.5601H174.444C174.082 87.5601 173.788 87.8537 173.788 88.216V91.3217C173.788 91.6839 174.082 91.9776 174.444 91.9776H188.251C188.613 91.9776 188.907 91.6839 188.907 91.3217Z" fill="#0F0F23"/>
<path d="M186.73 100.9H186.73C188.747 100.9 190.383 99.264 190.383 97.2465V86.6605C190.383 84.643 188.747 83.0074 186.73 83.0074H186.73C184.712 83.0074 183.077 84.643 183.077 86.6605V97.2465C183.077 99.264 184.712 100.9 186.73 100.9Z" fill="#313658"/>
<path d="M186.73 95.6259C187.184 95.6259 187.553 95.2571 187.553 94.8022V90.5925C187.553 90.1376 187.184 89.7688 186.73 89.7688C186.275 89.7688 185.906 90.1376 185.906 90.5925V94.8022C185.906 95.2571 186.275 95.6259 186.73 95.6259Z" fill="#427BFF"/>
<path d="M160.609 96.7604C160.609 96.7604 171.099 98.9108 176.788 96.8944C181.002 95.4008 180.881 92.8495 179.237 92.2855C174.196 90.5572 175.492 89.621 175.492 89.621C176.138 87.8384 177.89 87.1274 180.821 87.5596L176.74 85.2522C176.74 85.2522 158.305 93.3859 160.609 96.7604Z" fill="#EEB489"/>
<path d="M96.9215 68.8814C96.389 68.911 86.7982 82.7754 86.7982 82.7754L88.5279 90.4841L116.53 96.4258L132.926 82.7754C132.926 82.7754 124.811 79.2023 120.671 75.3932C116.53 71.5842 109.575 68.8812 109.575 68.8812C103.205 68.7102 103.36 69.8209 96.9215 68.8814Z" fill="#0E0F25"/>
<path d="M116.408 83.6686L143.549 95.5748L169.464 92.2981" stroke="#0E0F25" stroke-width="15.0429" stroke-miterlimit="10"/>
<path d="M93.473 69.2899C104.148 66.8104 101.93 66.6365 107.088 68.0167C111.167 69.108 111.066 68.9795 116.364 73.5716C121.663 78.1637 119.838 116.018 120.849 135.93H84.1166C84.1166 135.93 83.2827 121.401 83.229 113.091C83.1056 93.9829 73.9909 80.8573 93.473 69.2899Z" fill="#0E0F25"/>
<path d="M101.538 75.389H105.99C106.821 75.389 107.495 74.7153 107.495 73.8842V63.5853H100.033V73.8842C100.033 74.7153 100.707 75.389 101.538 75.389Z" fill="#EEB489"/>
<path d="M110.607 71.7787C110.607 71.7787 109.421 75.9705 103.014 75.3378C96.6079 74.7051 96.9243 71.0669 96.9243 71.0669" stroke="#427BFF" stroke-width="1.41814" stroke-miterlimit="10" stroke-linecap="round"/>
<path d="M107.495 65.2655L100.688 65.3353C100.688 65.3353 106.426 69.8455 107.495 69.1141V65.2655Z" fill="#0E0F25"/>
<path d="M115.84 35.9682C110.047 31.8831 94.6866 32.1796 92.9413 37.8481C92.1919 40.2821 88.091 44.2823 89.2687 50.406C90.4463 56.5297 93.7493 59.9525 96.4728 59.8152C98.7742 59.6991 100.325 42.7773 102.241 43.1211C105.093 43.633 105.339 44.046 107.424 44.4641C109.874 44.9555 115.024 45.9884 118.112 43.1211C120.066 41.3066 116.89 36.7082 115.84 35.9682Z" fill="#0E0F25"/>
<path d="M104.272 66.0443H108.217C112.741 66.0443 116.409 62.3767 116.409 57.8523V47.3219C116.409 42.7976 112.741 39.1299 108.217 39.1299H102.876C98.3517 39.1299 94.684 42.7976 94.684 47.3219V56.4561C94.684 61.7515 98.9768 66.0443 104.272 66.0443Z" fill="#EEB489"/>
<path d="M115.84 35.9682C110.047 31.8831 94.6866 32.1796 92.9413 37.8481C92.1919 40.2821 92.2207 38.2826 92.9413 43.1211C93.6619 47.9596 91.7934 50.5844 94.5168 50.447C96.8182 50.3309 100.325 42.7773 102.241 43.1211C105.093 43.633 105.339 44.046 107.424 44.4641C109.874 44.9555 115.024 45.9884 118.112 43.1211C120.066 41.3066 116.89 36.7082 115.84 35.9682Z" fill="#0E0F25"/>
<path d="M94.1455 54.3472C92.6124 54.3472 91.3695 52.9423 91.3695 51.2092C91.3695 49.4761 92.6124 48.0712 94.1455 48.0712C95.6786 48.0712 96.9214 49.4761 96.9214 51.2092C96.9214 52.9423 95.6786 54.3472 94.1455 54.3472Z" fill="#EEB489"/>
<path d="M109.315 51.1238C110.308 53.6219 110.638 55.4107 110.763 56.4644C110.821 56.9442 110.871 57.5699 110.492 57.9127C109.84 58.503 108.415 57.8028 108.274 57.7317" stroke="#0E0F25" stroke-width="0.472713" stroke-miterlimit="10" stroke-linecap="round"/>
<path d="M105.845 61.3835C105.757 61.3504 106.728 59.4076 108.08 59.4237C108.662 59.4306 109.073 59.6293 109.432 59.9515C110.073 60.5274 109.804 61.584 108.966 61.7823C108.273 61.946 107.263 61.9229 105.845 61.3835Z" fill="#0E0F25"/>
<path d="M90.4704 88.541L95.5923 115.74" stroke="#427BFF" stroke-width="16.5471" stroke-miterlimit="10" stroke-linecap="round"/>
<path d="M119.149 51.2611L120.615 51.3379C121.308 51.3742 121.9 50.8416 121.936 50.1483L122.143 46.2019C122.179 45.5085 121.647 44.917 120.953 44.8807L119.487 44.8038L119.149 51.2611Z" fill="#427BFF"/>
<path d="M109.875 44.3196L110.602 44.2748C111.384 44.2265 111.979 43.5537 111.93 42.772L111.352 33.3951C111.304 32.6133 110.631 32.0187 109.849 32.0669L109.122 32.1118C108.34 32.16 107.745 32.8328 107.794 33.6145L108.372 42.9915C108.42 43.7732 109.093 44.3678 109.875 44.3196Z" fill="#427BFF"/>
<path d="M120.519 52.8553L120.844 46.671C120.958 44.4908 119.283 42.6307 117.103 42.5164C110.35 40.7179 103.522 40.36 96.6185 41.4427C94.4383 41.3284 92.5782 43.0032 92.4639 45.1834L92.1398 51.3678C91.9054 55.839 100.872 56.2165 110.909 55.5032C115.972 55.1434 120.351 56.0687 120.519 52.8553Z" fill="#313658"/>
<path d="M106.491 43.8296L112.857 44.1633L112.814 44.9835L106.448 44.6498L106.491 43.8296Z" fill="#427BFF"/>
<path d="M93.0074 50.5459C92.9748 51.1681 92.4439 51.6461 91.8217 51.6135L91.17 51.5793C90.3755 51.5377 89.7652 50.8599 89.8069 50.0654L90.032 45.7716C90.0736 44.9771 90.7514 44.3669 91.5459 44.4085L92.1976 44.4427C92.8198 44.4753 93.2978 45.0061 93.2652 45.6284L93.0074 50.5459Z" fill="#427BFF"/>
<path d="M109.367 59.8955L106.742 60.0412C106.742 60.0412 107.276 59.4237 108.08 59.4237C108.884 59.4237 109.367 59.8955 109.367 59.8955Z" fill="#E6E7E8"/>
<path d="M109.474 61.5017C109.474 61.5017 106.405 60.991 105.844 61.3836C105.844 61.3836 107.278 62.0858 108.379 61.9442C109.481 61.8027 109.474 61.5017 109.474 61.5017Z" fill="#F26B6B"/>
<path d="M147.639 109.928L149 112.719C149.158 113.045 149.023 113.438 148.697 113.596L136.285 119.643C135.959 119.802 135.567 119.667 135.408 119.341L134.048 116.549C133.889 116.223 134.024 115.831 134.35 115.672L146.762 109.625C147.088 109.466 147.481 109.602 147.639 109.928Z" fill="#0F0F23"/>
<path d="M141.487 102.27C143.301 101.387 145.488 102.141 146.371 103.954L151.008 113.471C151.891 115.285 151.137 117.472 149.323 118.355L149.323 118.355C147.51 119.239 145.323 118.485 144.439 116.671L139.803 107.154C138.92 105.341 139.674 103.154 141.487 102.27Z" fill="#313658"/>
<path d="M143.797 107.011V107.011C144.206 106.812 144.699 106.982 144.898 107.391L146.742 111.176C146.941 111.585 146.771 112.078 146.362 112.277C145.953 112.476 145.46 112.306 145.261 111.897L143.417 108.113C143.218 107.704 143.388 107.211 143.797 107.011Z" fill="#427BFF"/>
<path d="M128.004 128.101C128.123 128.327 137.676 132.016 140.557 129.596C141.353 128.928 141.722 124.223 142.051 122.844C142.46 121.127 151.58 121.724 150.774 119.892C149.475 116.936 136.146 117.767 136.146 117.767C136.146 117.767 136.335 115.709 135.52 115.172C133.82 114.054 129.742 115.907 127.883 117.054C126.024 118.2 128.004 128.101 128.004 128.101Z" fill="#EEB489"/>
<path d="M93.6499 115.034L130.068 122.007" stroke="#427BFF" stroke-width="16.5471" stroke-miterlimit="10"/>
<path opacity="0.2" d="M206.69 90.7737C216.354 93.0458 225.905 89.3865 230.311 82.1321C235.47 73.6369 232.734 61.5952 226.278 57.0713C217.224 50.7264 204.948 62.0394 175.004 71.186C153.789 77.6664 139.079 82.1595 122.351 79.3861C91.0322 74.1935 87.4555 49.2999 62.0867 49.0058C42.0619 48.7736 22.5464 64.0319 13.9816 81.844C7.62884 95.0557 6.33857 111.673 11.3891 125.052C30.1191 174.669 141.608 194.452 177.309 154.434C190.667 139.46 197.355 111.696 186.814 102.584C176.596 93.7509 153.542 105.347 150.52 106.905" stroke="#F1F2F2" stroke-width="16.5471" stroke-miterlimit="10"/>
</svg>
