<svg width="44" height="44" viewBox="0 0 44 44" fill="none" xmlns="http://www.w3.org/2000/svg">
<path fill-rule="evenodd" clip-rule="evenodd" d="M22 44C34.1503 44 44 34.1503 44 22C44 9.84974 34.1503 0 22 0C9.84974 0 0 9.84974 0 22C0 34.1503 9.84974 44 22 44Z" fill="#18204D"/>
<path d="M28.7851 20.9278L20.9292 28.7837L24.1465 32.001L32.0024 24.1451L28.7851 20.9278Z" fill="#FFE458"/>
<path fill-rule="evenodd" clip-rule="evenodd" d="M12.2725 13.4377L18.8942 20.0594C18.8886 20.1088 18.8858 20.1591 18.8858 20.2099C18.8858 20.9417 19.479 21.5349 20.2108 21.5349C20.9425 21.5349 21.5358 20.9417 21.5358 20.2099C21.5358 19.4782 20.9425 18.8849 20.2108 18.8849C20.1603 18.8849 20.1105 18.8878 20.0615 18.8933L13.4404 12.2722L25.2103 14.4997H25.2203L27.3603 22.3597L22.3603 27.3597L14.5003 25.2097L12.2725 13.4377Z" fill="#B5CDFB"/>
</svg>
