<svg width="32" height="40" viewBox="0 0 32 40" fill="none" xmlns="http://www.w3.org/2000/svg">
<g filter="url(#filter0_dd)">
<path fill-rule="evenodd" clip-rule="evenodd" d="M16 32C24.8366 32 32 24.8366 32 16C32 7.16344 24.8366 0 16 0C7.16344 0 0 7.16344 0 16C0 24.8366 7.16344 32 16 32Z" fill="black"/>
<mask id="mask0" mask-type="alpha" maskUnits="userSpaceOnUse" x="9" y="9" width="14" height="14">
<path d="M10.1984 9.87085C10.0653 9.87085 9.94333 9.927 9.86058 10.019C9.78603 10.0969 9.73969 10.2029 9.73633 10.3182V10.3488C9.73781 10.4035 9.74855 10.4548 9.76776 10.5019C9.76857 10.5061 9.77031 10.5094 9.77179 10.5136C9.78684 10.5492 9.80578 10.5823 9.82982 10.613C9.83801 10.6247 9.84728 10.6354 9.85722 10.6453C9.85884 10.6478 9.86125 10.6502 9.86381 10.6528L11.3367 12.4015L11.8685 13.0327L13.4609 14.9224L13.9927 15.5527L15.4183 17.2452L15.9491 17.8755V22.2966C15.9783 22.2966 16.0065 22.2958 16.0346 22.2934C16.3137 22.2737 16.5656 22.1542 16.7553 21.9711C16.7562 21.9711 16.7562 21.9711 16.7562 21.9702L16.9127 21.7839L20.7366 17.2452L22.0455 15.691C22.0521 15.6844 22.0579 15.6769 22.0638 15.6695C22.0918 15.6347 22.1141 15.5957 22.1307 15.5527C22.1515 15.5014 22.1622 15.4451 22.1622 15.3853V10.3331C22.1622 10.2112 22.115 10.0993 22.0372 10.0182C21.9535 9.927 21.8333 9.87085 21.6991 9.87085H10.1984Z" fill="white"/>
</mask>
<g mask="url(#mask0)">
<path fill-rule="evenodd" clip-rule="evenodd" d="M10.1984 9.87085C10.0653 9.87085 9.94333 9.927 9.86058 10.019C9.78603 10.0969 9.73969 10.2029 9.73633 10.3182V10.3488C9.73781 10.4035 9.74855 10.4548 9.76776 10.5019C9.76857 10.5061 9.77031 10.5094 9.77179 10.5136C9.78684 10.5492 9.80578 10.5823 9.82982 10.613C9.83801 10.6247 9.84728 10.6354 9.85722 10.6453C9.85884 10.6478 9.86125 10.6502 9.86381 10.6528L11.3367 12.4015L11.8685 13.0327L13.4609 14.9224L13.9927 15.5527L15.4183 17.2452L15.9491 17.8755V22.2966C15.9783 22.2966 16.0065 22.2958 16.0346 22.2934C16.3137 22.2737 16.5656 22.1542 16.7553 21.9711C16.7562 21.9711 16.7562 21.9711 16.7562 21.9702L16.9127 21.7839L20.7366 17.2452L22.0455 15.691C22.0521 15.6844 22.0579 15.6769 22.0638 15.6695C22.0918 15.6347 22.1141 15.5957 22.1307 15.5527C22.1515 15.5014 22.1622 15.4451 22.1622 15.3853V10.3331C22.1622 10.2112 22.115 10.0993 22.0372 10.0182C21.9535 9.927 21.8333 9.87085 21.6991 9.87085H10.1984Z" fill="url(#paint0_linear)"/>
</g>
<path fill-rule="evenodd" clip-rule="evenodd" d="M15.9493 20.4063V22.2966C15.6362 22.2966 15.3521 22.1723 15.1432 21.971C15.1424 21.971 15.1424 21.971 15.1424 21.9703L14.9859 21.7839L11.162 17.2452L9.86058 15.7001C9.85722 15.6985 9.85481 15.6952 9.85306 15.6918L9.83237 15.6679C9.83076 15.6661 9.82982 15.6645 9.82834 15.6628C9.80336 15.6289 9.78187 15.5924 9.76776 15.5526C9.74869 15.5055 9.73794 15.4542 9.73633 15.4011V15.3697C9.73633 15.3597 9.73713 15.3497 9.73888 15.3397C9.74788 15.2355 9.79261 15.1425 9.86058 15.0697C9.94427 14.9795 10.0652 14.9224 10.1984 14.9224H11.3277L11.8587 15.5526L13.2843 17.2452L15.6219 20.0195L15.9485 20.4071L15.9493 20.4063Z" fill="#FCD1CA"/>
<path fill-rule="evenodd" clip-rule="evenodd" d="M15.9493 17.8759V20.4061L15.9485 20.4069L15.6223 20.0194L13.2847 17.2454L11.8589 15.5531L11.3277 14.9224L9.85198 13.1719C9.84581 13.165 9.83963 13.1572 9.83345 13.1493C9.80631 13.1145 9.78375 13.0757 9.76736 13.0328C9.74882 12.9855 9.73794 12.9342 9.73633 12.88V12.8488C9.73942 12.7331 9.78603 12.629 9.86058 12.5499C9.94373 12.4582 10.0648 12.4015 10.1984 12.4015H11.337L11.8689 13.0328L13.4611 14.9224L13.9923 15.5531L15.4181 17.2454L15.9493 17.8759Z" fill="#FF9D8D"/>
<mask id="mask1" mask-type="alpha" maskUnits="userSpaceOnUse" x="7" y="7" width="18" height="19">
<path d="M7 25.033H24.8986V7.1344H7V25.033Z" fill="white"/>
</mask>
<g mask="url(#mask1)">
</g>
</g>
<defs>
<filter id="filter0_dd" x="-4" y="0" width="40" height="40" filterUnits="userSpaceOnUse" color-interpolation-filters="sRGB">
<feFlood flood-opacity="0" result="BackgroundImageFix"/>
<feColorMatrix in="SourceAlpha" type="matrix" values="0 0 0 0 0 0 0 0 0 0 0 0 0 0 0 0 0 0 127 0" result="hardAlpha"/>
<feOffset dy="4"/>
<feGaussianBlur stdDeviation="2"/>
<feComposite in2="hardAlpha" operator="out"/>
<feColorMatrix type="matrix" values="0 0 0 0 0 0 0 0 0 0 0 0 0 0 0 0 0 0 0.25 0"/>
<feBlend mode="normal" in2="BackgroundImageFix" result="effect1_dropShadow"/>
<feColorMatrix in="SourceAlpha" type="matrix" values="0 0 0 0 0 0 0 0 0 0 0 0 0 0 0 0 0 0 127 0" result="hardAlpha"/>
<feOffset dy="4"/>
<feGaussianBlur stdDeviation="2"/>
<feComposite in2="hardAlpha" operator="out"/>
<feColorMatrix type="matrix" values="0 0 0 0 0 0 0 0 0 0 0 0 0 0 0 0 0 0 0.25 0"/>
<feBlend mode="normal" in2="effect1_dropShadow" result="effect2_dropShadow"/>
<feBlend mode="normal" in="SourceGraphic" in2="effect2_dropShadow" result="shape"/>
</filter>
<linearGradient id="paint0_linear" x1="20.9031" y1="8.39979" x2="11.3346" y2="17.9685" gradientUnits="userSpaceOnUse">
<stop stop-color="#FF6660"/>
<stop offset="1" stop-color="#FB4444"/>
</linearGradient>
</defs>
</svg>
