<svg width="380" height="610" viewBox="0 0 380 610" fill="none" xmlns="http://www.w3.org/2000/svg">
<rect width="380" height="610" rx="30" fill="#DBE1FF"/>
<mask id="mask0" style="mask-type:alpha" maskUnits="userSpaceOnUse" x="0" y="0" width="380" height="610">
<rect width="380" height="610" rx="30" fill="#DBE1FF"/>
</mask>
<g mask="url(#mask0)">
<circle cx="158.5" cy="326.5" r="280.5" fill="url(#paint0_linear)"/>
<circle cx="155.5" cy="369.5" r="132.5" fill="url(#paint1_linear)"/>
<path d="M-124.583 160.097C-97.8845 122.489 -63.4345 90.91 -23.817 67.0821C-9.7499 58.1825 5.17842 50.7183 20.6809 44.4025C31.0159 39.8092 41.638 36.0771 52.5472 32.9192C63.4564 29.4742 74.3655 26.6033 85.5618 24.3067C91.3034 23.1583 96.758 22.01 102.5 21.4358C107.954 20.5746 113.409 19.7133 118.863 19.1392C119.438 19.1392 120.012 19.1392 120.586 19.1392C126.041 18.565 131.495 17.9908 137.237 17.9908C142.978 17.7038 148.72 17.4167 154.462 17.4167H155.036C163.648 17.4167 172.548 17.7038 181.161 18.565C189.773 19.1392 198.098 20.0004 206.424 21.1488C207.859 21.4358 209.295 21.7229 210.73 22.01C219.63 23.4454 228.529 25.1679 237.429 27.4646C239.438 27.7517 241.161 28.3258 243.171 28.9" stroke="url(#paint2_linear)" stroke-width="20" stroke-miterlimit="10" stroke-linecap="round" stroke-linejoin="round"/>
<path d="M348.243 76.8429C357.143 82.8717 365.755 89.4746 374.368 96.0775C374.655 96.0775 374.942 96.3646 375.229 96.9388C396.76 115.025 415.995 135.695 432.933 158.949C438.961 166.987 444.416 175.6 449.583 184.212" stroke="url(#paint3_linear)" stroke-width="20" stroke-miterlimit="10" stroke-linecap="round" stroke-linejoin="round"/>
<path d="M132.069 104.69C139.246 103.829 146.711 103.542 154.175 103.542C167.668 103.542 180.874 104.69 194.366 106.7C262.405 117.322 322.406 154.068 363.171 209.762C396.186 255.122 413.124 308.519 412.837 363.639" stroke="url(#paint4_linear)" stroke-width="20" stroke-miterlimit="10" stroke-linecap="round" stroke-linejoin="round"/>
<path d="M390.731 478.472C379.822 511.774 363.171 551.392 338.195 591.583" stroke="url(#paint5_linear)" stroke-width="20" stroke-miterlimit="10" stroke-linecap="round" stroke-linejoin="round"/>
<path d="M-100.181 316.845C-86.6882 240.193 -41.042 176.461 22.4034 139.427" stroke="url(#paint6_linear)" stroke-width="20" stroke-miterlimit="10" stroke-linecap="round" stroke-linejoin="round"/>
<path d="M325.276 341.247C327.286 356.749 326.999 372.826 324.415 388.615C319.248 421.343 299.726 510.052 232.835 591.583" stroke="url(#paint7_linear)" stroke-width="20" stroke-miterlimit="10" stroke-linecap="round" stroke-linejoin="round"/>
<path d="M272.453 236.748C247.477 212.92 215.898 197.131 180.873 191.676C172.261 190.241 163.074 189.667 154.175 189.667C76.6622 189.667 10.633 240.193 -10.6111 312.538C-12.9078 319.715 -14.6303 327.18 -15.7786 334.931C-15.7786 335.505 -22.0945 370.242 -48.7932 386.319" stroke="url(#paint8_linear)" stroke-width="20" stroke-miterlimit="10" stroke-linecap="round" stroke-linejoin="round"/>
<path d="M-4.86938 460.099C55.7052 424.214 68.0498 356.175 69.1981 348.711C76.6623 301.629 120.586 269.476 167.668 276.94C214.462 284.117 246.616 328.328 239.439 375.41C233.984 408.998 209.582 518.09 108.241 591.583" stroke="url(#paint9_linear)" stroke-width="20" stroke-miterlimit="10" stroke-linecap="round" stroke-linejoin="round"/>
<path d="M154.175 361.917C151.878 376.271 134.366 477.611 39.3413 534.167" stroke="url(#paint10_linear)" stroke-width="20" stroke-miterlimit="10" stroke-linecap="round" stroke-linejoin="round"/>
<path d="M222.117 330.568L157.749 333.159C157.749 333.159 161.868 297.9 164.076 294.692C166.283 291.485 206.192 292.763 212.386 295.336C218.579 297.908 222.117 330.568 222.117 330.568Z" fill="#282A30"/>
<path d="M152.621 395.089C152.621 395.089 154.331 364.68 156.302 345.337C158.247 326.255 164.335 296.883 164.335 296.883L190.838 306.183L178.205 393.222L152.621 395.089Z" fill="#282A30"/>
<path d="M193.69 495.942L196.063 408.447L192.51 308.481L215.721 302.482L222.122 331.113L216.171 410.458L208.808 495.486L193.69 495.942Z" fill="#282A30"/>
<path d="M153.169 515.342C153.169 515.342 151.85 522.484 152.879 523.884C153.907 525.285 176.263 527.178 176.852 523.884C177.821 518.462 175.623 512.713 175.623 512.713L153.169 515.342Z" fill="#0E0F25"/>
<path d="M152.621 395.091L159.317 489.885L173.016 492.256L178.205 393.224L152.621 395.091Z" fill="#282A30"/>
<path d="M172.494 489.467C172.724 493.855 174.782 491.688 173.89 497.799C172.997 503.911 178.686 519.642 174.626 520.607C170.566 521.571 152.523 523.65 152.882 517.431C153.582 505.29 160.51 505.174 159.759 500.255C159.009 495.336 156.773 488.968 156.418 485.433C156.064 481.897 172.264 485.079 172.494 489.467Z" fill="#FF5252"/>
<path d="M215.69 514.844C215.69 514.844 217.009 521.986 215.98 523.386C214.952 524.787 192.223 526.726 192.007 523.386C191.792 520.047 192.518 515.195 192.518 515.195L215.69 514.844Z" fill="#0E0F25"/>
<path d="M195.199 488.491C194.969 492.879 192.911 490.712 193.804 496.824C194.696 502.935 190.169 519.641 194.229 520.606C198.289 521.57 216.332 523.649 215.974 517.43C215.274 505.289 207.184 504.198 207.934 499.279C208.685 494.36 211.472 487.45 211.827 483.915C212.181 480.379 195.429 484.103 195.199 488.491Z" fill="#FF5252"/>
<path d="M158.949 395.4C161.314 392.651 164.326 392.031 165.686 393.103C166.977 394.121 166.881 396.742 165.839 398.31C164.038 401.021 158.807 401.485 155.733 398.922C152.939 396.593 152.624 392.345 154.048 389.581C156.296 385.218 162.76 384.772 166.911 386.212C171.204 387.701 175.748 392.151 175.027 397.084C174.082 403.55 164.92 405.201 164.002 405.354C163.272 405.475 155.768 406.588 150.373 400.913C146.005 396.318 146.188 390.607 146.239 389.581" stroke="#FF5252" stroke-width="1.12509" stroke-miterlimit="10" stroke-linecap="round"/>
<path d="M211.201 395.4C208.836 392.651 205.824 392.031 204.463 393.103C203.172 394.121 203.269 396.742 204.31 398.31C206.112 401.021 211.343 401.485 214.417 398.922C217.211 396.593 217.525 392.345 216.101 389.581C213.854 385.218 207.389 384.772 203.238 386.212C198.946 387.701 194.401 392.151 195.122 397.084C196.067 403.55 205.23 405.201 206.148 405.354C206.878 405.475 214.382 406.588 219.776 400.913C224.145 396.318 223.962 390.607 223.911 389.581" stroke="#FF5252" stroke-width="1.12509" stroke-miterlimit="10" stroke-linecap="round"/>
<path d="M131.507 328.298L167.324 273.404L172.678 277.75L140.295 331.342L131.507 328.298Z" fill="#191919"/>
<path d="M238.467 329.079C231.447 332.788 229.459 331.753 229.459 331.753C229.459 331.753 221.891 318.324 211.15 297.416C209.066 293.358 209.134 253.366 209.251 236.743C209.285 232.322 209.319 229.559 209.319 229.559C206.982 226.831 207.297 222.718 210.025 220.38C212.761 218.036 214.975 212.799 216.901 215.835C219.574 220.051 220.198 226.803 220.26 235.016C220.37 248.623 218.944 266.219 222.789 282.85L238.467 329.079Z" fill="#915636"/>
<path d="M209.251 236.743C209.285 232.322 209.319 229.559 209.319 229.559C206.982 226.831 194.249 207.531 196.977 205.194C199.712 202.849 214.735 211.799 216.661 214.835C219.335 219.051 220.198 226.803 220.26 235.016L209.251 236.743Z" fill="#FFBD52"/>
<path d="M228.025 333.836C227.271 329.284 226.119 320.914 235.003 324.363C236.265 324.856 241.31 328.523 242.064 330.47C246.636 342.227 246.122 340.081 242.564 341.726C240.405 342.727 236.813 346.86 232.344 342.391C228.361 338.408 229.348 341.795 228.025 333.836Z" fill="#915636"/>
<path d="M197.245 383.748H131.506C130.231 383.748 129.196 382.713 129.196 381.438V330.608C129.196 329.333 130.231 328.298 131.506 328.298H197.238C198.513 328.298 199.548 329.333 199.548 330.608V381.438C199.555 382.713 198.52 383.748 197.245 383.748Z" fill="#191919"/>
<path d="M131.027 332.932C131.027 332.932 156.048 357.226 164.377 357.226C172.706 357.226 196.821 332.932 196.821 332.932" stroke="#7A90D6" stroke-width="1.09473" stroke-miterlimit="10" stroke-linecap="round"/>
<path d="M150.117 229.894L160.393 281.443C160.462 288.175 161.719 292.728 165.023 295.889C170.767 301.393 191.166 298.438 202.154 298.445C222.028 298.46 217.569 220.945 209.927 213.271C205.766 209.089 200.597 203.393 194.702 203.208C189.54 203.05 186.97 199.588 175.09 204.606C169.634 206.916 149.288 224.019 150.117 229.894Z" fill="#FFBD52"/>
<path d="M183.473 204.573L184.707 196.566C184.707 196.566 196.491 197.766 197.327 201.948C198.163 206.129 199.116 217.214 199.116 217.214L196.758 220.867L183.473 204.573Z" fill="#FFBD52"/>
<path d="M170.442 231.369C170.305 231.842 167.645 238.936 164.368 247.642C158.877 262.25 151.639 281.396 151.639 281.396L162.469 345.84L162.031 345.819C157.979 345.613 154.429 343.043 152.955 339.266L135.036 275.926C135.036 275.926 140.266 255.882 145.517 239.492C148.855 229.079 152.194 220.14 154.209 218.755C161.757 213.573 173.479 220.86 170.442 231.369Z" fill="#915636"/>
<path d="M170.441 231.369C170.304 231.842 167.644 238.936 164.368 247.642C157.437 242.405 150.946 238.875 145.517 239.492C148.855 229.079 152.193 220.14 154.209 218.755C161.756 213.573 173.478 220.86 170.441 231.369Z" fill="#FFBD52"/>
<path d="M180.499 146.613C179.533 144.118 177.264 141.561 175.008 140.334C170.525 137.901 164.801 136.845 160.688 139.217C156.575 141.589 156.39 141.171 153.518 145.859C147.527 155.628 143.167 169.44 145.025 181.971C146.074 189.032 148.685 198.745 149.419 205.127C149.919 209.446 149.974 215.759 148.72 217.281C145.422 221.291 143.88 219.201 140.295 219.818C145.217 222.772 146.739 224.342 154.293 224.191C155.252 224.17 165.946 221.374 168.599 217.802C170.923 214.669 171.129 206.649 171.19 203.873C171.567 187.188 162.272 174.225 168.592 158.678C170.128 154.915 176.921 149.253 180.499 146.613Z" fill="#191919"/>
<path d="M182.056 144.181C181.631 148.527 175.729 153.147 171.581 153.908C167.434 154.669 166.331 159.447 165.302 153.846C164.274 148.252 164.692 140.643 168.84 139.876C172.987 139.108 182.591 138.683 182.056 144.181Z" fill="#FFBD52"/>
<path d="M208.838 165.623C208.838 165.623 214.932 158.419 213.095 153.031C211.258 147.643 202.004 132.171 182.981 140.698C182.981 140.698 175.372 139.156 168.613 148.787C162.341 157.719 156.11 182.349 177.086 186.791L208.838 165.623Z" fill="#191919"/>
<path d="M192.776 193.495L193.366 207.171L190.85 210.763L184.776 198.164L183.556 188.971L192.776 193.495Z" fill="black"/>
<path d="M183.747 190.67C183.747 190.67 197.135 196.634 200.083 195.105C206.848 191.609 211.517 159.795 208.987 158.76C206.458 157.725 180.032 151.131 178.469 165.451C177.585 173.574 172.354 168.809 172.354 168.809C172.354 168.809 167.131 166.746 167.33 171.332C167.528 175.918 170.99 180.826 173.506 179.469C173.506 179.469 179.271 201.11 176.906 207.225C197.608 223.409 193.618 213.031 193.365 207.17C193.111 201.302 192.947 197.504 192.947 197.504L183.747 190.67Z" fill="#915636"/>
<path d="M203.476 168.995C203.798 173.951 206.328 179.648 205.711 180.231C204.648 181.238 201.79 181.115 201.55 180.998" stroke="black" stroke-width="0.688551" stroke-miterlimit="10" stroke-linecap="round"/>
<path d="M191.295 170.962C195.607 167.829 197.814 169.166 197.814 169.166" stroke="black" stroke-width="1.08773" stroke-miterlimit="10" stroke-linecap="round"/>
<path d="M213.107 169.659C209.961 168.645 208.617 169.001 208.617 169.001" stroke="black" stroke-width="1.08773" stroke-miterlimit="10" stroke-linecap="round"/>
<path d="M196.717 173.793C196.738 174.369 196.285 174.848 195.703 174.869C195.524 174.876 195.367 174.842 195.216 174.759C194.88 174.602 194.64 174.259 194.633 173.861C194.62 173.409 194.894 173.011 195.291 172.854C195.394 172.806 195.511 172.778 195.641 172.778C196.217 172.758 196.697 173.21 196.717 173.793Z" fill="black"/>
<path d="M210.263 173.3C210.283 173.876 209.831 174.355 209.255 174.376C208.672 174.397 208.193 173.944 208.172 173.368C208.151 172.786 208.604 172.306 209.187 172.285C209.762 172.271 210.242 172.724 210.263 173.3Z" fill="black"/>
<path d="M199.754 189.266C197.889 189.362 197.869 185.722 197.821 185.612L202.688 186.133C201.988 188.347 200.809 189.211 199.754 189.266Z" fill="white"/>
<path d="M176.838 175.356C176.838 175.356 178.97 175.322 181.109 173.683C183.247 172.045 185.277 159.199 191.364 161.091C197.451 162.983 210.633 162.962 215.671 158.836C220.703 154.709 208.405 145.578 208.405 145.578C208.405 145.578 191.83 143.96 189.074 144.091C187.155 144.18 177.249 148.498 171.395 151.117C168.975 152.2 168.029 161.927 169.065 164.368L176.838 175.356Z" fill="#191919"/>
<path d="M172.341 178.058C172.765 178.058 173.109 177.714 173.109 177.29C173.109 176.866 172.765 176.522 172.341 176.522C171.917 176.522 171.573 176.866 171.573 177.29C171.573 177.714 171.917 178.058 172.341 178.058Z" fill="#FFBD52"/>
<path d="M172.677 205.882L176.358 195.257C176.358 195.257 184.015 200.837 184.851 205.025C185.687 209.207 193.358 215.89 193.358 215.89L185.955 222.176L172.677 205.882Z" fill="#FFBD52"/>
<path d="M160.844 338.279C160.467 337.854 161.16 339.417 160.934 339.663C159.576 341.165 153.064 339.533 153.064 339.533C153.064 339.533 153.373 345.072 153.818 349.301C154.044 351.42 156.745 354.347 156.512 355.964C156.306 357.39 151.796 355.32 150.96 355.594C150.452 355.759 149.952 357.048 150.336 357.466C152.091 359.392 158.541 359.906 160.248 358.501C159.542 359.2 162.291 361.332 163.449 359.981C163.58 360.235 161.934 362.847 163.778 362.532C167.85 361.839 170.153 356.54 170.325 350.494C170.339 349.939 164.738 342.666 160.844 338.279Z" fill="#915636"/>
<path d="M160.845 338.279C160.468 337.854 161.161 339.417 160.934 339.663C159.577 341.165 153.065 339.533 153.065 339.533C153.065 339.533 153.373 345.072 153.819 349.301C154.045 351.42 156.746 354.347 156.513 355.964C156.307 357.39 158.542 359.906 160.249 358.501C159.543 359.2 157.939 358.604 157.26 359.289C156.582 359.975 158.138 360.496 159.515 360.653C161.291 360.852 162.292 361.332 163.45 359.988C163.58 360.242 161.935 362.854 163.779 362.538C167.851 361.846 170.154 356.547 170.326 350.501C170.339 349.939 164.739 342.666 160.845 338.279Z" fill="#915636"/>
<path d="M203.682 207.314C203.682 207.314 201.475 318.536 188.025 331.752L199.555 330.607C199.555 330.607 213.046 227.152 209.934 213.271C209.934 213.278 210.846 206.587 203.682 207.314Z" fill="#191919"/>
<path d="M236.231 327.668C236.231 327.668 241.009 330.142 244.155 331.643C244.978 332.034 245.183 333.117 244.573 333.789L241.029 337.662" stroke="#915636" stroke-width="4.415" stroke-miterlimit="10" stroke-linecap="round"/>
<path d="M227.518 336.825C227.518 336.825 229.012 332.232 233.379 332.657C237.738 333.082 241.653 334.227 241.653 334.227" stroke="#191919" stroke-width="0.630714" stroke-miterlimit="10" stroke-linecap="round"/>
</g>
<defs>
<linearGradient id="paint0_linear" x1="158.5" y1="46" x2="158.5" y2="607" gradientUnits="userSpaceOnUse">
<stop stop-color="#87D9FF"/>
<stop offset="1" stop-color="white" stop-opacity="0"/>
</linearGradient>
<linearGradient id="paint1_linear" x1="155.5" y1="237" x2="155.5" y2="502" gradientUnits="userSpaceOnUse">
<stop stop-color="#87D9FF"/>
<stop offset="1" stop-color="white" stop-opacity="0"/>
</linearGradient>
<linearGradient id="paint2_linear" x1="59.2936" y1="17.4167" x2="59.2936" y2="160.097" gradientUnits="userSpaceOnUse">
<stop stop-color="#3913B8"/>
<stop offset="1" stop-color="#3913B8" stop-opacity="0"/>
</linearGradient>
<linearGradient id="paint3_linear" x1="398.913" y1="76.8429" x2="398.913" y2="184.212" gradientUnits="userSpaceOnUse">
<stop stop-color="#3913B8"/>
<stop offset="1" stop-color="#3913B8" stop-opacity="0"/>
</linearGradient>
<linearGradient id="paint4_linear" x1="272.455" y1="103.542" x2="272.455" y2="363.639" gradientUnits="userSpaceOnUse">
<stop stop-color="#3913B8"/>
<stop offset="1" stop-color="#3913B8" stop-opacity="0"/>
</linearGradient>
<linearGradient id="paint5_linear" x1="364.463" y1="478.472" x2="364.463" y2="591.583" gradientUnits="userSpaceOnUse">
<stop stop-color="#3913B8"/>
<stop offset="1" stop-color="#3913B8" stop-opacity="0"/>
</linearGradient>
<linearGradient id="paint6_linear" x1="-38.8889" y1="139.427" x2="-38.8889" y2="316.845" gradientUnits="userSpaceOnUse">
<stop stop-color="#3913B8"/>
<stop offset="1" stop-color="#3913B8" stop-opacity="0"/>
</linearGradient>
<linearGradient id="paint7_linear" x1="279.715" y1="341.247" x2="279.715" y2="591.583" gradientUnits="userSpaceOnUse">
<stop stop-color="#B5CDFB"/>
<stop offset="1" stop-color="#B5CDFB" stop-opacity="0"/>
</linearGradient>
<linearGradient id="paint8_linear" x1="111.83" y1="189.667" x2="111.83" y2="386.319" gradientUnits="userSpaceOnUse">
<stop stop-color="#B5CDFB"/>
<stop offset="1" stop-color="#B5CDFB" stop-opacity="0"/>
</linearGradient>
<linearGradient id="paint9_linear" x1="117.786" y1="275.864" x2="117.786" y2="591.583" gradientUnits="userSpaceOnUse">
<stop stop-color="#B5CDFB"/>
<stop offset="1" stop-color="#B5CDFB" stop-opacity="0"/>
</linearGradient>
<linearGradient id="paint10_linear" x1="96.758" y1="361.917" x2="96.758" y2="534.167" gradientUnits="userSpaceOnUse">
<stop stop-color="#B5CDFB"/>
<stop offset="1" stop-color="#B5CDFB" stop-opacity="0"/>
</linearGradient>
</defs>
</svg>
