<svg width="24" height="25" viewBox="0 0 24 25" fill="none" xmlns="http://www.w3.org/2000/svg">
<path d="M18 12.16V21.5C18 22.05 17.55 22.5 17 22.5H3C2.45 22.5 2 22.05 2 21.5V7.5C2 6.95 2.45 6.5 3 6.5H12.34" fill="#00CFFD"/>
<path d="M18 12.16V21.5C18 22.05 17.55 22.5 17 22.5H3C2.45 22.5 2 22.05 2 21.5V7.5C2 6.95 2.45 6.5 3 6.5H12.34" stroke="black" stroke-width="1.2" stroke-miterlimit="10" stroke-linecap="round" stroke-linejoin="round"/>
<path fill-rule="evenodd" clip-rule="evenodd" d="M15.9999 1.8999C15.6685 1.8999 15.3999 2.16853 15.3999 2.4999C15.3999 2.83127 15.6685 3.0999 15.9999 3.0999H20.5514L9.57564 14.0756C9.34132 14.31 9.34132 14.6899 9.57564 14.9242C9.80995 15.1585 10.1899 15.1585 10.4242 14.9242L21.3999 3.94843V8.4999C21.3999 8.83127 21.6685 9.0999 21.9999 9.0999C22.3313 9.0999 22.5999 8.83127 22.5999 8.4999V2.4999C22.5999 2.16853 22.3313 1.8999 21.9999 1.8999H15.9999Z" fill="black"/>
</svg>
