<svg width="133" height="33" viewBox="0 0 133 33" fill="none" xmlns="http://www.w3.org/2000/svg">
<path fill-rule="evenodd" clip-rule="evenodd" d="M62.9074 12.9981C63.9294 12.208 65.1734 11.682 66.4794 11.6447C68.0494 11.5223 69.6244 12.0618 70.8454 13.0357C71.304 13.3393 71.6221 13.8208 71.9408 14.303C72.0098 14.4075 72.0788 14.512 72.1494 14.6147V11.983H74.3604V31.7582H72.1494C72.1498 30.6785 72.1495 29.5963 72.1491 28.5145C72.1487 27.1631 72.1482 25.8124 72.1494 24.4685C72.1234 24.1282 71.7854 24.565 71.8094 24.6715C71.7781 24.7098 71.7465 24.7488 71.7145 24.7883C71.4074 25.167 71.0656 25.5886 70.6934 25.8182C69.0544 27.079 66.7814 27.3973 64.8194 26.778C64.2077 26.6198 63.6282 26.253 63.1116 25.926C63.0226 25.8697 62.9355 25.8145 62.8504 25.7618C62.1374 25.1762 61.6534 24.4906 61.2024 23.7003C60.0424 21.4783 59.9134 18.7833 60.6384 16.4032C60.8894 15.5513 61.3334 14.7888 61.8564 14.0751C62.0974 13.6866 62.5424 13.2577 62.9074 12.9981ZM70.1454 14.5583C69.4214 13.9196 68.2694 13.6347 67.2544 13.6372C66.7964 13.6243 66.3344 13.6705 65.8974 13.811C64.9974 14.0225 64.2624 14.6195 63.7014 15.3102C62.8674 16.4099 62.6064 17.8276 62.5514 19.1789C62.5324 20.7359 62.8394 22.4361 63.9154 23.6112C64.4924 24.2921 65.2564 24.8041 66.1564 24.9577C67.5154 25.1933 69.0714 25.0405 70.1454 24.1264C70.8754 23.5437 71.4324 22.7936 71.7224 21.9057C72.3684 20.0697 72.2944 17.9676 71.4684 16.1999C71.1554 15.5158 70.7234 15.0239 70.1454 14.5583Z" fill="black"/>
<path d="M50.2357 5.98663C48.5527 6.05363 46.8397 6.49243 45.4917 7.52803C45.2147 7.71083 44.9087 8.04073 44.7177 8.32743C43.8947 9.36113 43.4737 10.7045 43.6047 12.0243C43.6527 12.9845 44.0087 13.918 44.6597 14.6336C44.8507 14.9194 45.2187 15.2439 45.5187 15.4313C47.2597 16.7772 49.5237 17.0272 51.5787 17.6392C52.8617 18.0278 54.3467 18.2915 55.1867 19.427C55.8977 20.2908 55.8777 21.5892 55.4897 22.6038C55.1567 23.4349 54.4307 24.029 53.6557 24.446C52.0347 25.1438 50.1557 25.0985 48.4777 24.6311C47.2137 24.2464 46.0927 23.4993 45.2717 22.4634C45.0617 22.123 44.8757 21.9038 44.5467 22.297C44.0497 22.6437 43.5517 22.9903 43.0537 23.3369C43.4537 23.9615 43.9257 24.5611 44.4897 24.9911C45.4557 25.7254 46.5017 26.3749 47.6897 26.6795C49.9107 27.3379 52.3767 27.2693 54.5257 26.3821C55.3927 25.9317 56.2207 25.4766 56.8337 24.721C57.6277 23.7884 58.1367 22.4802 58.1617 21.2055C58.2267 19.9817 57.8297 18.7404 57.0197 17.8104C56.8657 17.5685 56.5867 17.3212 56.3197 17.1666C55.9157 16.8094 55.4577 16.5853 54.9617 16.3185C52.7517 15.2186 50.2307 14.9812 47.9717 14.0199C47.2807 13.678 46.5877 13.2044 46.2287 12.5094C45.6907 11.3227 46.1097 9.82073 47.1627 9.06803C48.0827 8.33493 49.3457 8.11923 50.5117 8.11083C52.5357 8.09023 54.5887 8.96833 55.8107 10.5921C56.4157 10.1409 57.0197 9.68983 57.6247 9.23863C57.0947 8.50403 56.4317 7.93493 55.7057 7.44833C54.1027 6.40013 52.1517 5.88843 50.2357 5.98663Z" fill="black"/>
<path d="M78.0918 21.5698C78.0938 22.8615 78.3578 24.2036 79.1498 25.2542C79.4968 25.8144 80.1798 26.2597 80.7868 26.5895C82.3748 27.3199 84.2798 27.2083 85.8508 26.4922C86.5668 26.1069 87.2548 25.6275 87.7118 25.0098C87.9208 24.8176 88.1568 24.272 88.2788 24.2429C88.2788 25.075 88.2788 25.9071 88.2788 26.7392C89.0158 26.7392 89.7528 26.7392 90.4898 26.7392C90.4898 21.8205 90.4898 16.9017 90.4898 11.983C89.7528 11.983 89.0158 11.983 88.2788 11.983C88.2628 14.9967 88.3138 18.0121 88.2408 21.0247C88.0618 22.2377 87.5078 23.4091 86.5018 24.1451C85.2828 25.0691 83.5158 25.2936 82.0798 24.7278C81.0728 24.2781 80.4998 23.18 80.4278 22.1013C80.2548 20.2144 80.3778 18.3152 80.3408 16.423C80.3408 14.943 80.3408 13.463 80.3408 11.983C79.5908 11.983 78.8408 11.983 78.0918 11.983C78.0918 15.1786 78.0918 18.3742 78.0918 21.5698Z" fill="black"/>
<path fill-rule="evenodd" clip-rule="evenodd" d="M94.1796 13.4309C95.7496 12.3278 97.6496 11.7071 99.5696 11.6451C101 11.5647 102.53 11.8205 103.73 12.6073C104.66 13.1185 105.22 14.2041 105.39 15.2542C105.44 17.6897 105.435 20.1263 105.429 22.5629C105.426 23.9552 105.422 25.3475 105.43 26.7396H103.29V25.6118C103.264 25.5303 103.277 25.4181 103.29 25.3047C103.314 25.1082 103.337 24.9085 103.16 24.8599C103.025 24.9604 102.937 25.0938 102.848 25.2298C102.746 25.3861 102.641 25.5459 102.46 25.6634C101.81 26.2501 100.97 26.7121 100.07 26.9172C98.5296 27.2128 96.8296 27.149 95.4496 26.3637C95.3507 26.2923 95.2476 26.2246 95.1453 26.1574C94.8648 25.9731 94.5908 25.793 94.4296 25.5554C94.0096 25.0254 93.6696 24.4421 93.5296 23.7735C93.2996 22.5888 93.3496 21.2319 94.1496 20.2544C94.5196 19.686 95.1196 19.2444 95.7596 18.9441C96.7967 18.4773 97.9285 18.3175 99.0558 18.1583C99.4828 18.098 99.9092 18.0378 100.33 17.9611C101.13 17.8081 102.08 17.5898 102.63 17.0588C103.3 16.5519 103.38 15.5377 103 14.8311C102.32 13.7897 100.93 13.5652 99.7496 13.5812C98.1296 13.646 96.4496 14.0528 95.1496 15.0475L95.1495 15.0475C94.8295 14.5086 94.5095 13.9697 94.1796 13.4309ZM103.221 19.787C103.213 19.3875 103.204 18.9899 103.22 18.6002V18.4687C102.98 18.7096 102.69 18.8757 102.37 19.0514C101.519 19.3805 100.623 19.5366 99.7268 19.6929C98.9276 19.8322 98.128 19.9717 97.3596 20.2339C96.6696 20.4598 96.0196 20.906 95.8096 21.6272C95.5396 22.4586 95.6496 23.4871 96.2096 24.1644C96.9896 25.0982 98.3396 25.2424 99.4896 25.1468C100.79 25.0464 102.06 24.368 102.69 23.2193C103.272 22.1624 103.247 20.9666 103.221 19.787Z" fill="black"/>
<path d="M115.62 11.7016C114.44 11.7931 113.29 12.3288 112.47 13.0966C112.11 13.4897 111.78 13.9823 111.47 14.4648C111.47 13.6377 111.47 12.8106 111.47 11.9835C110.73 11.9835 109.99 11.9835 109.26 11.9835C109.26 16.9023 109.26 21.821 109.26 26.7397C109.99 26.7397 110.73 26.7397 111.47 26.7397C111.49 23.863 111.42 20.983 111.51 18.1084C111.68 16.7164 112.27 15.2994 113.46 14.4837C114.52 13.6887 116.04 13.6278 117.27 14.1077C117.53 13.9744 117.43 13.5232 117.57 13.2681C117.66 12.9025 117.76 12.537 117.85 12.1715C117.19 11.7872 116.39 11.6563 115.62 11.7016Z" fill="black"/>
<path fill-rule="evenodd" clip-rule="evenodd" d="M121.68 12.8295C122.75 12.1254 124 11.6673 125.29 11.6453C126.81 11.5524 128.43 11.9264 129.68 12.8107C129.701 12.8254 129.721 12.8401 129.741 12.8549C130.192 13.1791 130.654 13.5108 130.95 13.9612C132.22 15.5517 132.68 17.6732 132.43 19.6719H122.08C121.951 19.7082 121.795 19.6898 121.639 19.6715C121.384 19.6415 121.13 19.6117 121 19.8223C121.03 21.1623 121.36 22.6199 122.35 23.5719C123.54 24.9157 125.52 25.2777 127.24 24.9479C128.47 24.7329 129.59 24.054 130.36 23.0743C130.85 23.5254 131.35 23.9766 131.85 24.4277C131.49 24.8711 131.11 25.2336 130.66 25.5387C129.22 26.7368 127.28 27.1708 125.43 27.0684C124.05 27.0262 122.68 26.5902 121.55 25.7812C121.28 25.5919 120.97 25.3565 120.69 25.0721C120.01 24.2912 119.37 23.3171 119.07 22.2673C118.38 19.9767 118.51 17.4004 119.6 15.2544C120.01 14.5683 120.42 13.9125 120.98 13.3796C121.147 13.235 121.329 13.0967 121.497 12.9695C121.561 12.9211 121.622 12.8744 121.68 12.8295ZM129.67 15.7422C128.99 14.4362 127.56 13.613 126.08 13.5251C125.02 13.4507 123.91 13.646 123.01 14.229C122.922 14.3185 122.809 14.4091 122.693 14.5007C122.507 14.6494 122.317 14.8006 122.23 14.9537C121.42 15.736 121.16 16.8991 121.02 17.9801H130.2C130.19 17.2093 130 16.4382 129.67 15.7422Z" fill="black"/>
<path fill-rule="evenodd" clip-rule="evenodd" d="M27.312 0.720337H5.863C2.914 0.720337 0.5 3.12054 0.5 6.05444V27.388C0.5 30.3205 2.914 32.7203 5.863 32.7203H27.312C30.261 32.7203 32.675 30.3205 32.675 27.388V6.05444C32.675 3.12054 30.261 0.720337 27.312 0.720337ZM26.824 25.2077C26.824 26.1398 26.057 26.9009 25.119 26.9009H8.055C7.117 26.9009 6.349 26.1398 6.349 25.2077V8.23574C6.349 7.30314 7.117 6.53974 8.055 6.53974H25.119C26.057 6.53974 26.824 7.30314 26.824 8.23574V25.2077ZM20.002 21.0843C20.537 21.0843 20.976 20.6492 20.976 20.1141V13.3269C20.976 12.7937 20.537 12.3577 20.002 12.3577H13.178C12.641 12.3577 12.204 12.7937 12.204 13.3269V20.1141C12.204 20.6492 12.641 21.0843 13.178 21.0843H20.002Z" fill="black"/>
</svg>
