<svg width="160" height="44" viewBox="0 0 160 44" fill="none" xmlns="http://www.w3.org/2000/svg">
<path fill-rule="evenodd" clip-rule="evenodd" d="M81 44C93.1503 44 103 34.1503 103 22C103 9.84974 93.1503 0 81 0C68.8497 0 59 9.84974 59 22C59 34.1503 68.8497 44 81 44Z" fill="#18204D"/>
<g filter="url(#filter0_d)">
<path d="M86.2024 30.2191C83.4658 31.8228 79.703 31.9876 75.9174 30.3416C72.8523 29.0186 70.3091 26.7028 68.6787 24.0568C69.4613 24.7183 70.3743 25.2477 71.3524 25.7105C75.2619 27.5695 79.1705 27.4422 81.9212 25.7153C81.9194 25.7135 81.9182 25.7123 81.9171 25.7105C78.0042 22.6671 74.6783 18.6975 72.2003 15.4561C71.6784 14.9267 71.2871 14.2651 70.8958 13.6697C73.8956 16.4484 78.6564 19.9546 80.3516 20.9474C76.7654 17.1099 73.5697 12.3467 73.6999 12.4788C79.3736 18.3008 84.6562 21.6089 84.6562 21.6089C84.8309 21.7088 84.9658 21.7921 85.0742 21.8665C85.1886 21.5714 85.2889 21.2651 85.3733 20.9474C86.2863 17.5733 85.2431 13.7357 82.9604 10.5603C88.2424 13.8021 91.373 19.8885 90.0684 24.983C90.0343 25.1204 89.9974 25.2561 89.9575 25.3893C89.9728 25.4078 89.988 25.4268 90.0033 25.4464C92.6114 28.7545 91.8943 32.2607 91.5683 31.5992C90.1534 28.7902 87.5341 29.6492 86.2024 30.2191L86.2024 30.2191Z" fill="#00CFFD"/>
</g>
<defs>
<filter id="filter0_d" x="0.848465" y="-57.2699" width="158.892" height="156.78" filterUnits="userSpaceOnUse" color-interpolation-filters="sRGB">
<feFlood flood-opacity="0" result="BackgroundImageFix"/>
<feColorMatrix in="SourceAlpha" type="matrix" values="0 0 0 0 0 0 0 0 0 0 0 0 0 0 0 0 0 0 127 0"/>
<feOffset/>
<feGaussianBlur stdDeviation="33.9151"/>
<feColorMatrix type="matrix" values="0 0 0 0 0.250017 0 0 0 0 0.215353 0 0 0 0 0.847968 0 0 0 0.610768 0"/>
<feBlend mode="normal" in2="BackgroundImageFix" result="effect1_dropShadow"/>
<feBlend mode="normal" in="SourceGraphic" in2="effect1_dropShadow" result="shape"/>
</filter>
</defs>
</svg>
