<svg width="33" height="32" viewBox="0 0 33 32" fill="none" xmlns="http://www.w3.org/2000/svg">
<ellipse cx="16.7499" cy="16" rx="15.6981" ry="16" fill="#F2F6FF"/>
<path d="M20.7074 8.03281L24.2576 11.6513C24.4105 11.8072 24.4991 12.0205 24.4991 12.2338V23.3846C24.4991 23.8359 24.1368 24.2051 23.694 24.2051H9.20347C8.7607 24.2051 8.39844 23.8359 8.39844 23.3846V8.61537C8.39844 8.16409 8.7607 7.79486 9.20347 7.79486H20.1438C20.3532 7.79486 20.5625 7.88512 20.7074 8.03281Z" fill="white" stroke="#3913B8" stroke-miterlimit="10" stroke-linecap="round" stroke-linejoin="round"/>
<path d="M19.6689 18.4615L22.084 16L19.6689 13.5385" stroke="#3913B8" stroke-linecap="round" stroke-linejoin="round"/>
<path d="M13.2286 18.4615L10.8135 16L13.2286 13.5385" stroke="#3913B8" stroke-linecap="round" stroke-linejoin="round"/>
<path d="M14.9834 20.1026L17.9137 11.8974" stroke="#00CFFD" stroke-linecap="round" stroke-linejoin="round"/>
</svg>
