<svg width="32" height="32" viewBox="0 0 32 32" fill="none" xmlns="http://www.w3.org/2000/svg">
<g filter="url(#filter0_b)">
<rect width="32" height="32" rx="16" fill="white" fill-opacity="0.7"/>
</g>
<path fill-rule="evenodd" clip-rule="evenodd" d="M10.7998 24.6283H22.8698C24.4098 24.6283 25.6598 23.3683 25.6598 21.8383V9.76827C25.6598 8.22827 24.4098 6.97827 22.8698 6.97827H10.7998C9.25977 6.97827 8.00977 8.22827 8.00977 9.76827V21.8383C8.00977 23.3783 9.25977 24.6283 10.7998 24.6283ZM9.20977 9.76827C9.20977 8.88827 9.91977 8.17827 10.7998 8.17827H22.8698C23.7498 8.17827 24.4598 8.88827 24.4598 9.76827V21.8383C24.4598 22.7183 23.7498 23.4283 22.8698 23.4283H10.7998C9.91977 23.4283 9.20977 22.7183 9.20977 21.8383V9.76827ZM20.8898 12.8483C21.3198 12.7983 21.7498 12.6783 22.1398 12.5083C21.8498 12.9483 21.4798 13.3283 21.0398 13.6483C21.0498 13.7383 21.0498 13.8283 21.0498 13.9283C21.0498 16.7983 18.8698 20.1183 14.8598 20.1183C13.6298 20.1183 12.4798 19.7583 11.5198 19.1383C11.6898 19.1583 11.8598 19.1683 12.0398 19.1683C13.0598 19.1683 13.9998 18.8183 14.7398 18.2383C13.7898 18.2183 12.9898 17.5783 12.7098 16.7183C12.8398 16.7483 12.9798 16.7583 13.1198 16.7583C13.3198 16.7583 13.5098 16.7383 13.6898 16.6883C12.6998 16.4883 11.9498 15.6083 11.9498 14.5483V14.5283C12.2398 14.6883 12.5798 14.7883 12.9298 14.7983C12.3498 14.4083 11.9598 13.7383 11.9598 12.9883C11.9598 12.5883 12.0698 12.2183 12.2598 11.8883C13.3398 13.2083 14.9398 14.0783 16.7498 14.1683C16.7098 14.0083 16.6998 13.8383 16.6998 13.6683C16.6998 12.4683 17.6798 11.4883 18.8798 11.4883C19.4998 11.4883 20.0698 11.7483 20.4698 12.1783C20.9598 12.0783 21.4298 11.8983 21.8498 11.6483C21.6898 12.1583 21.3398 12.5783 20.8898 12.8483Z" fill="#18204F"/>
<defs>
<filter id="filter0_b" x="-20" y="-20" width="72" height="72" filterUnits="userSpaceOnUse" color-interpolation-filters="sRGB">
<feFlood flood-opacity="0" result="BackgroundImageFix"/>
<feGaussianBlur in="BackgroundImage" stdDeviation="10"/>
<feComposite in2="SourceAlpha" operator="in" result="effect1_backgroundBlur"/>
<feBlend mode="normal" in="SourceGraphic" in2="effect1_backgroundBlur" result="shape"/>
</filter>
</defs>
</svg>
