<svg width="44" height="44" viewBox="0 0 44 44" fill="none" xmlns="http://www.w3.org/2000/svg">
<path d="M22 44C34.1503 44 44 34.1503 44 22C44 9.84974 34.1503 0 22 0C9.84974 0 0 9.84974 0 22C0 34.1503 9.84974 44 22 44Z" fill="#4353FF"/>
<path d="M28.4625 19.3876L26.4687 25.6713C26.4687 25.1901 25.0937 14.7676 25.0937 14.7676C21.9312 14.7676 20.2537 17.0088 19.3737 19.3876L16.94 25.6851C16.94 25.2313 16.5962 19.4426 16.5962 19.4426C16.4788 18.1894 15.906 17.0229 14.9861 16.1638C14.0662 15.3047 12.8632 14.8129 11.605 14.7813L14.19 30.5663C17.49 30.5663 19.2775 28.3251 20.1987 25.9463L22.2612 20.5838C22.2612 20.8038 23.6362 30.5663 23.6362 30.5663C24.9856 30.5646 26.2994 30.1332 27.3872 29.3347C28.475 28.5361 29.2802 27.412 29.6862 26.1251L34.3612 14.7676C31.0612 14.7676 29.3287 17.0088 28.4487 19.3876H28.4625Z" fill="white"/>
</svg>
