<svg width="178" height="280" viewBox="0 0 178 280" fill="none" xmlns="http://www.w3.org/2000/svg">
<path d="M154.777 248.459L121.037 132.285" stroke="#0E0F25" stroke-width="4.74234" stroke-miterlimit="10" stroke-linecap="round"/>
<path d="M147.032 221.781L124.442 263.827H39.2933C39.2933 263.827 33.1534 244.651 17.4595 248.459C5.4805 251.365 3.11942 262.193 3.11942 262.193" stroke="#0E0F25" stroke-width="4.74234" stroke-miterlimit="10" stroke-linecap="round"/>
<path d="M174.813 252.302C171.692 248.893 167.205 246.756 162.22 246.756C152.791 246.756 145.147 254.399 145.147 263.828" stroke="#0E0F25" stroke-width="4.74234" stroke-miterlimit="10" stroke-linecap="round"/>
<path d="M162.826 279.266C156.206 279.266 150.839 273.899 150.839 267.279C150.839 260.659 156.206 255.292 162.826 255.292C169.447 255.292 174.813 260.659 174.813 267.279C174.813 273.899 169.447 279.266 162.826 279.266Z" fill="#FF5A3D"/>
<path d="M21.2269 279.266C14.6066 279.266 9.23984 273.899 9.23984 267.279C9.23984 260.659 14.6066 255.292 21.2269 255.292C27.8471 255.292 33.2139 260.659 33.2139 267.279C33.2139 273.899 27.8471 279.266 21.2269 279.266Z" fill="#FF5A3D"/>
<path d="M25.2813 234.115L31.404 238.89L47.5967 225.615L40.6549 220.867L25.2813 234.115Z" fill="#FFB68F"/>
<path d="M34.7363 234.277C34.7363 234.277 43.765 247.81 50.2106 254.545C51.9481 256.361 48.4749 260.055 48.4749 260.055L20.5513 239.664C20.0927 239.335 19.9451 238.722 20.2083 238.223C21.1479 236.44 23.9191 231.762 26.2515 231.094C26.7205 230.96 27.1394 231.649 27.5708 232.226C28.0494 232.866 26.9535 236.731 32.9009 236.217C33.4582 236.169 34.0409 234.401 34.7363 234.277Z" fill="#FF5A3D"/>
<path d="M58.7277 256.004L65.4404 256.036L64.352 240.798L56.5087 240.761L58.7277 256.004Z" fill="#FFB68F"/>
<path fill-rule="evenodd" clip-rule="evenodd" d="M48.1296 232.433L35.2542 219.255L52.1591 202.637L75.4042 176.335L53.1736 125.612C53.1736 125.612 69.8475 123.984 71.1795 125.612C72.5115 127.241 72.614 130.57 72.614 130.57L93.3711 177.816L72.5408 205.113L52.1591 227.923L48.1296 232.433Z" fill="#E6E7E8"/>
<path opacity="0.29" d="M52.1593 202.638V227.924L72.541 205.114L71.7976 180.417L52.1593 202.638Z" fill="#0E0F25"/>
<path fill-rule="evenodd" clip-rule="evenodd" d="M68.9177 242.216L53.0304 242.142L55.8923 189.78L40.4204 153.609C37.1059 145.86 36.918 137.13 39.8958 129.246C39.8958 129.246 40.4407 127.324 42.5925 125.706C44.7442 124.087 64.827 125.111 64.827 125.111L65.6218 126.463L67.098 142.88L63.2262 152.38L69.3428 188.712L68.9177 242.216Z" fill="#E6E7E8"/>
<path d="M65.2882 248.799C65.2882 248.799 80.3526 254.94 89.4664 256.902C91.9233 257.431 91.1193 262.438 91.1193 262.438L56.5648 261.214C56.0005 261.199 55.5343 260.774 55.4722 260.213C55.2504 258.21 54.9215 252.783 56.4781 250.922C56.791 250.548 57.5245 250.884 58.2052 251.119C58.9605 251.381 60.2203 255.195 64.8565 251.435C65.2909 251.082 64.7818 249.292 65.2882 248.799Z" fill="#0E0F25"/>
<path d="M131.244 128.652L115.261 132.285L99.2788 135.917" stroke="#0E0F25" stroke-width="8.5362" stroke-miterlimit="10" stroke-linecap="round"/>
<path d="M70.7207 67.1704L72.8672 69.4286L71.2327 74.9484L68.8929 67.7726L70.7207 67.1704Z" fill="#0E0F25"/>
<path d="M118.423 124.125C118.089 124.185 118.143 124.385 118.154 124.584C118.218 125.798 115.322 127.035 116.812 128.378C118.303 129.721 120.89 127.954 122.79 128.947C124.69 129.94 124.337 132.951 123.299 135.036C123.157 135.322 123.408 135.823 123.748 135.838C125.311 135.905 125.767 134.169 125.889 132.847C125.889 133.443 125.672 134.144 125.676 134.725C125.68 135.306 126.261 135.862 126.912 135.338C127.746 134.665 127.959 133.173 127.876 132.109C128.041 132.16 128.455 133.966 129.102 133.046C130.529 131.019 130.14 126.899 127.634 124.269C127.406 124.03 119.935 122.871 118.423 124.125Z" fill="#FFB68F"/>
<path d="M99.6546 129.093C99.32 129.153 99.3748 129.352 99.3852 129.551C99.4492 130.765 99.3847 133.997 99.3847 133.997C99.3847 133.997 102.121 132.922 104.021 133.914C105.922 134.907 105.568 137.919 104.531 140.003C104.388 140.29 104.64 140.79 104.979 140.805C106.542 140.872 106.999 139.136 107.12 137.814C107.121 138.41 106.903 139.111 106.908 139.692C106.912 140.273 107.492 140.83 108.144 140.305C108.978 139.632 109.19 138.141 109.108 137.076C109.272 137.127 109.686 138.933 110.334 138.014C111.761 135.986 111.372 131.866 108.865 129.236C108.638 128.998 101.166 127.838 99.6546 129.093Z" fill="#FFB68F"/>
<path d="M124.813 124.668C124.813 124.668 120.592 122.883 117.685 121.365C108.788 116.719 99.3796 102.887 99.3796 102.887L72.8702 73.2373L70.2207 90.7906L91.2648 107.967L116.995 128.52L124.813 124.668Z" fill="#FFB68F"/>
<path d="M63.2819 67.1706C63.2819 67.1706 60.2815 64.8197 53.7751 68.8768C35.3526 80.3645 40.0624 122.013 40.0624 122.013C40.0624 122.013 42.2826 126.967 43.6811 127.381C45.0796 127.795 65.2632 129.388 69.147 128.152C73.0308 126.916 73.5133 126.321 74.0018 117.736L76.8464 84.168C77.1825 78.2612 74.4338 72.5664 69.5277 69.2599C68.1658 68.3421 66.9075 67.7575 65.9722 67.8292C65.7173 67.8487 63.2819 67.1706 63.2819 67.1706Z" fill="#0E0F25"/>
<path d="M101.757 128.519C101.757 128.519 105.085 127.663 105.802 128.049C106.52 128.436 107.734 129.794 107.734 129.794L103.042 129.695L101.757 128.519Z" fill="#FFB68F"/>
<path d="M46.2206 81.6958C47.2024 76.2865 57.217 74.6304 60.4097 80.3712C60.7977 81.0686 61.1735 81.8432 61.535 82.6638L61.5353 82.6634L61.5376 82.6698C62.3678 84.5558 63.12 86.6894 63.7606 88.7247L72.7587 113.234L97.6994 128.227L105.555 128.612C105.555 128.612 103.137 134.733 100.051 134.785C96.9642 134.836 64.5663 119.085 64.5663 119.085L53.4988 100.995C53.4988 100.995 53.4869 100.976 53.4675 100.944C53.4675 100.944 45.5459 85.4127 46.2206 81.6958Z" fill="#FFB68F"/>
<path d="M26.8198 116.931C27.5073 119.608 29.4487 121.791 32.0344 122.768C34.8018 123.811 38.3084 124.658 40.4618 123.404C40.5958 123.326 40.7212 123.24 40.8379 123.14C44.31 120.33 42.2778 109.481 42.2778 109.481C42.2778 109.481 42.5718 88.2765 42.8659 85.2844C43.1599 82.2879 40.1158 80.3466 38.7927 78.3617C38.5203 77.9511 37.9366 77.6137 37.1367 77.376C34.0494 76.4506 27.7278 77.0084 23.3909 80.7184C19.0497 84.4325 24.4287 107.57 26.8198 116.931Z" fill="#F2A600"/>
<path d="M53.3516 104.905C53.3516 104.905 48.8098 115.078 41.5412 116.154C40.4454 116.316 41.5412 112.759 41.5412 112.759C41.5412 112.759 43.9946 111.186 45.7334 108.951C47.4722 106.715 50.8153 100.774 50.8153 100.774L53.3516 104.905Z" fill="#F2A600"/>
<path d="M62.8281 38.3589C62.8201 36.7524 62.0979 34.8315 61.0933 33.6589C59.1012 31.3336 56.1142 29.5113 53.2988 29.9612C50.4835 30.4111 50.4688 30.136 47.8511 32.1483C42.3959 36.3415 36.9897 43.1561 35.3437 50.5876C34.4166 54.7733 33.8004 60.782 32.8445 64.5211C32.1982 67.0498 30.8764 70.6041 29.8471 71.1896C27.137 72.7306 26.7187 71.229 24.5773 70.8062C26.7065 73.52 27.2221 74.7243 31.4908 76.2613C32.0314 76.456 38.6322 77.1793 40.8876 75.7432C42.8644 74.4844 44.6982 70.029 45.3294 68.484C49.1199 59.2053 46.6829 49.9382 53.5635 42.5745C55.2306 40.7902 60.2554 39.0706 62.8281 38.3589Z" fill="#121430"/>
<path d="M36.418 107.966C36.418 107.966 35.3047 109.841 31.5053 109.676C27.7058 109.51 25.3782 107.966 25.3782 107.966" fill="#0E0F25"/>
<path opacity="0.35" d="M35.312 100.504L40.8379 123.14C44.31 120.329 42.2778 109.481 42.2778 109.481C42.2778 109.481 42.5718 88.2761 42.8659 85.2839C43.1599 82.2874 40.1158 80.3461 38.7927 78.3612C38.5203 77.9506 37.9366 77.6132 37.1367 77.3755C37.1367 77.3755 31.4507 77.8727 30.5643 80.1903C29.6823 82.508 35.312 100.504 35.312 100.504Z" fill="#231F20"/>
<path d="M31.2861 77.21C31.2861 77.21 25.393 79.0293 24.5098 81.3477C23.6266 83.666 29.2569 101.661 29.2569 101.661" stroke="#0E0F25" stroke-width="0.432391" stroke-miterlimit="10"/>
<path d="M30.66 77.8731C31.1251 77.5999 31.0094 76.8961 30.4804 76.7909C28.5521 76.4074 25.2693 75.9166 24.0535 76.7145C23.8802 76.8282 23.7187 76.9494 23.5684 77.0754C22.4095 78.0475 22.9812 79.9334 24.4857 80.0897L25.1831 80.1621C25.3097 80.1753 25.4373 80.1469 25.5464 80.0813L26.6478 79.4192C26.6478 79.4192 23.3911 78.9985 24.1087 78.2257C24.8263 77.4529 25.2678 76.9868 26.3718 77.2094C27.2973 77.3961 29.5522 77.8142 30.257 77.9445C30.3959 77.9702 30.5382 77.9447 30.66 77.8731Z" fill="#0E0F25"/>
<path d="M63.3866 83.7389C63.3866 83.7389 63.8777 69.6217 57.585 67.5518C51.2923 65.4818 42.5998 72.1333 39.9502 80.3579L42.2134 83.8355C42.2134 83.8355 44.6467 73.7203 52.14 70.7701C56.4162 69.0865 56.6557 70.8085 58.9387 73.0717C61.4484 75.5596 61.5835 79.2518 61.5835 79.2518L63.3866 83.7389Z" fill="#F2A600"/>
<path d="M65.3117 34.9918C64.9473 36.856 61.4789 38.9614 59.1134 39.3812C56.748 39.801 55.9867 41.8629 55.5669 39.4975C55.1471 37.1321 58.9908 33.6622 61.3563 33.2424C63.7217 32.8226 65.7726 32.634 65.3117 34.9918Z" fill="#FF5454"/>
<path d="M83.2056 45.381C83.2056 45.381 86.8928 41.0765 85.8081 37.8345C84.7234 34.5925 79.2262 25.269 67.7701 30.3151C67.7701 30.3151 63.2059 29.3619 59.1107 35.1184C55.3118 40.4581 51.4744 55.2277 64.0556 57.9743L83.2056 45.381Z" fill="#121430"/>
<path d="M72.2695 62.7525L70.5501 69.0314L68.5722 70.7696L66.8844 65.1366L67.4848 59.6001L72.2695 62.7525Z" fill="#121430"/>
<path d="M67.9131 61.4593C67.9131 61.4593 75.8647 64.0335 79.0894 63.1319C83.4922 61.9009 83.9596 43.8612 82.6311 42.8944C81.3025 41.9277 73.4805 36.0373 67.8119 42.5718C62.1432 49.1063 63.3554 49.9729 63.3554 49.9729C63.3554 49.9729 58.8252 49.3534 58.283 52.0573C57.7407 54.7613 60.8423 56.7892 62.5056 56.3536C62.5056 56.3536 63.1895 63.4872 60.9403 66.7163C62.2871 68.8355 69.5772 77.3755 69.5772 77.3755L71.3977 65.9371L67.9131 61.4593Z" fill="#FFB68F"/>
<path d="M79.5587 46.9275C80.292 49.818 82.4065 52.9056 82.1069 53.3187C81.5911 54.0297 79.8868 54.2679 79.7345 54.2275" stroke="#121430" stroke-width="0.472043" stroke-miterlimit="10" stroke-linecap="round"/>
<path d="M72.5818 49.4207C74.7848 47.0982 76.2334 47.6471 76.2334 47.6471" stroke="#121430" stroke-width="0.745696" stroke-miterlimit="10" stroke-linecap="round"/>
<path d="M85.3174 46.2702C83.347 46.0155 82.5938 46.3707 82.5938 46.3707" stroke="#121430" stroke-width="0.745696" stroke-miterlimit="10" stroke-linecap="round"/>
<path d="M76.089 50.4995C76.1628 50.8361 75.9486 51.1705 75.6084 51.245C75.5043 51.2679 75.4052 51.2642 75.3078 51.2345C75.0914 51.1765 74.9145 51.0006 74.8635 50.7681C74.805 50.5007 74.9257 50.2378 75.1435 50.1027C75.2006 50.0648 75.267 50.0357 75.3399 50.0197C75.6801 49.9451 76.0144 50.1593 76.089 50.4995Z" fill="#121430"/>
<path d="M84.0362 48.73C84.11 49.0666 83.8959 49.401 83.5591 49.4748C83.2189 49.5493 82.8846 49.3352 82.8108 48.9985C82.7362 48.6583 82.9504 48.324 83.2906 48.2494C83.6273 48.1756 83.9617 48.3898 84.0362 48.73Z" fill="#121430"/>
<path d="M79.0908 59.1539C78.4922 59.2341 77.3872 56.9059 77.3301 56.8315L80.6426 56.6284C80.2722 58.0518 79.5288 59.0953 79.0908 59.1539Z" fill="white"/>
<path d="M62.1465 49.7828C62.1465 49.7828 65.2294 51.0943 66.5214 50.1197C67.8134 49.1452 69.0806 41.4348 72.7263 42.595C76.372 43.7552 84.2921 43.7903 87.3312 41.3317C90.3702 38.8731 83.0181 33.3408 83.0181 33.3408C83.0181 33.3408 73.0682 32.3066 71.4137 32.3745C70.2626 32.4218 64.2959 34.977 60.771 36.5277C59.3133 37.169 58.64 38.8581 59.252 40.3284L62.1465 49.7828Z" fill="#121430"/>
<path d="M59.6196 67.1706L60.6684 62.4185C60.6684 62.4185 68.3226 66.6136 68.663 69.1527C69.0034 71.6919 70.2178 77.3763 70.2178 77.3763L68.663 79.4749L59.6196 67.1706Z" fill="#0E0F25"/>
</svg>
