<svg width="107" height="33" viewBox="0 0 107 33" fill="none" xmlns="http://www.w3.org/2000/svg">
<path fill-rule="evenodd" clip-rule="evenodd" d="M65.968 25.4848C59.815 30.0206 50.898 32.4406 43.22 32.4406C32.454 32.4406 22.762 28.4579 15.43 21.834C14.854 21.3131 15.37 20.6032 16.061 21.0089C23.974 25.6138 33.758 28.3842 43.865 28.3842C50.681 28.3842 58.179 26.9736 65.074 24.0466C66.115 23.6041 66.986 24.7288 65.968 25.4848Z" fill="black"/>
<path fill-rule="evenodd" clip-rule="evenodd" d="M68.526 22.558C67.742 21.5531 63.327 22.0832 61.345 22.3183C60.742 22.3921 60.649 21.8666 61.193 21.4886C64.71 19.0133 70.48 19.7278 71.152 20.5575C71.825 21.3918 70.977 27.1768 67.673 29.9379C67.166 30.362 66.682 30.1361 66.908 29.5738C67.65 27.7207 69.314 23.5675 68.526 22.558Z" fill="black"/>
<path fill-rule="evenodd" clip-rule="evenodd" d="M61.4841 4.01385V1.60765C61.4841 1.24345 61.7601 0.999146 62.0921 0.999146H72.8621C73.2081 0.999146 73.4841 1.24805 73.4841 1.60765V3.66805C73.4801 4.01385 73.1891 4.46555 72.6731 5.18005L67.0921 13.1499C69.1661 13.0992 71.3551 13.408 73.2361 14.4682C73.6601 14.7079 73.7751 15.0582 73.8071 15.404V17.9715C73.8071 18.3218 73.4201 18.7321 73.0141 18.52C69.7011 16.7822 65.3001 16.5932 61.6361 18.5385C61.2621 18.7413 60.8711 18.3356 60.8711 17.9853V15.5469C60.8711 15.155 60.8751 14.4867 61.2671 13.892L67.7331 4.61765H62.1061C61.7601 4.61765 61.4841 4.37335 61.4841 4.01385Z" fill="black"/>
<path fill-rule="evenodd" clip-rule="evenodd" d="M22.195 19.0274H18.919C18.605 19.0043 18.356 18.7692 18.333 18.4696V1.64935C18.333 1.31285 18.614 1.04545 18.965 1.04545H22.02C22.338 1.05925 22.592 1.30355 22.615 1.60785V3.80655H22.675C23.472 1.68155 24.97 0.690552 26.988 0.690552C29.039 0.690552 30.32 1.68155 31.242 3.80655C32.035 1.68155 33.837 0.690552 35.768 0.690552C37.141 0.690552 38.643 1.25745 39.561 2.52975C40.597 3.94485 40.385 6.00075 40.385 7.80305L40.381 18.4189C40.381 18.7554 40.1 19.0274 39.749 19.0274H36.477C36.15 19.0043 35.887 18.7416 35.887 18.4189V9.50395C35.887 8.79415 35.952 7.02405 35.795 6.35105C35.551 5.22175 34.818 4.90365 33.869 4.90365C33.076 4.90365 32.247 5.43375 31.91 6.28195C31.574 7.13005 31.606 8.54985 31.606 9.50395V18.4189C31.606 18.7554 31.325 19.0274 30.975 19.0274H27.703C27.371 19.0043 27.113 18.7416 27.113 18.4189L27.108 9.50395C27.108 7.62785 27.417 4.86675 25.09 4.86675C22.735 4.86675 22.827 7.55875 22.827 9.50395V18.4189C22.827 18.7554 22.546 19.0274 22.195 19.0274Z" fill="black"/>
<path fill-rule="evenodd" clip-rule="evenodd" d="M82.7573 0.690552C87.6193 0.690552 90.2503 4.86675 90.2503 10.177C90.2503 15.3075 87.3423 19.3777 82.7573 19.3777C77.9823 19.3777 75.3833 15.2014 75.3833 9.99725C75.3833 4.76075 78.0153 0.690552 82.7573 0.690552ZM82.7853 4.12455C80.3703 4.12455 80.2183 7.41585 80.2183 9.46705C80.2183 11.523 80.1853 15.9113 82.7573 15.9113C85.2963 15.9113 85.4163 12.3711 85.4163 10.2139C85.4163 8.79405 85.3563 7.09775 84.9283 5.75175C84.5593 4.58095 83.8263 4.12455 82.7853 4.12455Z" fill="black"/>
<path fill-rule="evenodd" clip-rule="evenodd" d="M96.5552 19.0274H93.2922C92.9652 19.0043 92.7022 18.7416 92.7022 18.4189L92.6982 1.59395C92.7252 1.28515 92.9972 1.04545 93.3292 1.04545H96.3662C96.6522 1.05925 96.8872 1.25285 96.9512 1.51565V4.08775H97.0112C97.9282 1.78755 99.2142 0.690552 101.477 0.690552C102.947 0.690552 104.38 1.22065 105.302 2.67265C106.159 4.01865 106.159 6.28195 106.159 7.90905V18.4973C106.122 18.7923 105.851 19.0274 105.528 19.0274H102.242C101.942 19.0043 101.694 18.7831 101.661 18.4973V9.36105C101.661 7.52185 101.873 4.82985 99.6112 4.82985C98.8132 4.82985 98.0802 5.36465 97.7162 6.17585C97.2562 7.20385 97.1962 8.22715 97.1962 9.36105V18.4189C97.1912 18.7554 96.9052 19.0274 96.5552 19.0274Z" fill="black"/>
<path fill-rule="evenodd" clip-rule="evenodd" d="M52.8982 10.9927C52.8982 12.2695 52.9302 13.3343 52.2852 14.4683C51.7642 15.3902 50.9352 15.9572 50.0172 15.9572C48.7592 15.9572 48.0222 14.9984 48.0222 13.5832C48.0222 10.7898 50.5242 10.2828 52.8982 10.2828V10.9927ZM56.2022 18.9809C55.9862 19.1745 55.6722 19.1884 55.4282 19.0593C54.3402 18.1558 54.1422 17.7364 53.5482 16.8744C51.7502 18.709 50.4742 19.2575 48.1462 19.2575C45.3862 19.2575 43.2432 17.5566 43.2432 14.1501C43.2432 11.4904 44.6812 9.67893 46.7362 8.79383C48.5152 8.01023 50.9992 7.87193 52.8982 7.65533V7.23123C52.8982 6.45223 52.9582 5.53033 52.4972 4.85733C52.1002 4.25343 51.3352 4.00453 50.6582 4.00453C49.4092 4.00453 48.2982 4.64523 48.0262 5.97283C47.9712 6.26783 47.7552 6.55823 47.4552 6.57203L44.2802 6.23093C44.0122 6.17103 43.7132 5.95433 43.7912 5.54413C44.5192 1.69053 48.0032 0.528931 51.1192 0.528931C52.7132 0.528931 54.7962 0.953031 56.0552 2.16073C57.6492 3.64963 57.4972 5.63633 57.4972 7.79823V12.9055C57.4972 14.4405 58.1332 15.1135 58.7322 15.9432C58.9402 16.2383 58.9862 16.5932 58.7182 16.8144C58.0502 17.3722 56.8612 18.4094 56.2072 18.9902L56.2022 18.9809Z" fill="black"/>
<path fill-rule="evenodd" clip-rule="evenodd" d="M9.94113 10.9927C9.94113 12.2695 9.97313 13.3343 9.32813 14.4683C8.80713 15.3902 7.98213 15.9572 7.06113 15.9572C5.80313 15.9572 5.07013 14.9984 5.07013 13.5832C5.07013 10.7898 7.57213 10.2828 9.94113 10.2828V10.9927ZM13.2451 18.9809C13.0291 19.1745 12.7151 19.1884 12.4711 19.0593C11.3841 18.1558 11.1901 17.7364 10.5911 16.8744C8.79313 18.709 7.52213 19.2575 5.19013 19.2575C2.43413 19.2575 0.286133 17.5566 0.286133 14.1501C0.286133 11.4904 1.72813 9.67893 3.77913 8.79383C5.55813 8.01023 8.04213 7.87193 9.94113 7.65533V7.23123C9.94113 6.45223 10.0011 5.53033 9.54513 4.85733C9.14413 4.25343 8.37913 4.00453 7.70613 4.00453C6.45713 4.00453 5.34213 4.64523 5.07013 5.97283C5.01413 6.26783 4.79813 6.55823 4.50313 6.57203L1.32313 6.23093C1.05613 6.17103 0.761133 5.95433 0.834133 5.54413C1.56713 1.69053 5.04713 0.528931 8.16213 0.528931C9.75713 0.528931 11.8401 0.953031 13.0981 2.16073C14.6921 3.64963 14.5401 5.63633 14.5401 7.79823V12.9055C14.5401 14.4405 15.1761 15.1135 15.7761 15.9432C15.9871 16.2383 16.0341 16.5932 15.7661 16.8144C15.0981 17.3722 13.9091 18.4094 13.2551 18.9902L13.2451 18.9809Z" fill="black"/>
</svg>
