<svg width="38" height="46" viewBox="0 0 38 46" fill="none" xmlns="http://www.w3.org/2000/svg">
<path fill-rule="evenodd" clip-rule="evenodd" d="M28.041 0C28.333 2.66054 27.265 5.33448 25.678 7.25528C24.091 9.1773 21.487 10.6701 18.937 10.4728C18.59 7.86496 19.877 5.14396 21.348 3.44394C22.988 1.52419 25.754 0.0919304 28.041 0ZM37.4852 33.3314C37.2102 33.22 31.4592 30.8907 31.3962 24.1411C31.3462 18.5111 35.8972 15.7442 36.2882 15.5067C36.2962 15.5017 36.3032 15.4978 36.3072 15.495C33.6372 11.5861 29.4782 11.0493 27.9962 10.9876C25.8312 10.7682 23.7312 11.5967 22.0162 12.2732C20.9272 12.7027 19.9942 13.0709 19.2972 13.0709C18.5202 13.0709 17.5602 12.6902 16.4832 12.263C15.0732 11.7036 13.4622 11.0646 11.7982 11.0963C7.93918 11.1524 4.38418 13.3389 2.39518 16.7916C-1.60882 23.7444 1.37318 34.0446 5.27518 39.6862C7.18518 42.4442 9.46118 45.5507 12.4502 45.4376C13.7872 45.385 14.7382 44.9801 15.7212 44.5613C16.8552 44.0784 18.0322 43.5772 19.8952 43.5772C21.6742 43.5772 22.7992 44.064 23.8812 44.5321C24.9142 44.979 25.9082 45.4089 27.3942 45.3815C30.4912 45.3244 32.4562 42.5664 34.3502 39.7983C36.4712 36.6993 37.3852 33.6959 37.4872 33.3599C37.4912 33.3487 37.4932 33.3405 37.4952 33.3353C37.4942 33.3348 37.4912 33.3335 37.4852 33.3314Z" fill="black"/>
</svg>
