<svg width="32" height="32" viewBox="0 0 32 32" fill="none" xmlns="http://www.w3.org/2000/svg">
<g filter="url(#filter0_b)">
<rect width="32" height="32" rx="16" fill="white" fill-opacity="0.7"/>
</g>
<path d="M16.58 9.22C16.85 8.88 17 8.46 17 8C17 6.9 16.1 6 15 6C13.9 6 13 6.9 13 8C13 8.46 13.15 8.88 13.42 9.22" fill="#18204F"/>
<path d="M15.41 23H12.55C12.52 23.16 12.5 23.33 12.5 23.5C12.5 24.88 13.62 26 15 26C15.82 26 16.54 25.61 17 25C16.31 24.48 15.76 23.79 15.41 23H12.55H15.41Z" fill="#18204F"/>
<path d="M21 16.1C20.68 16.03 20.34 16 20 16C17.24 16 15 18.24 15 21C15 21.71 15.15 22.39 15.41 23H12.55H7L8.64 18.89C8.88 18.3 9 17.67 9 17.04V15C9 11.62 11.79 8.89999 15.18 8.99999C18.47 9.09999 21 11.97 21 15.25V16.1Z" fill="#18204F"/>
<path d="M20 26C22.7614 26 25 23.7614 25 21C25 18.2386 22.7614 16 20 16C17.2386 16 15 18.2386 15 21C15 23.7614 17.2386 26 20 26Z" fill="#78D2EE" stroke="#18204F" stroke-width="1.2" stroke-miterlimit="10" stroke-linecap="round" stroke-linejoin="round"/>
<path fill-rule="evenodd" clip-rule="evenodd" d="M19.4 21.6V24H20.6V21.6H23V20.4H20.6V18H19.4V20.4H17V21.6H19.4Z" fill="#18204F"/>
<defs>
<filter id="filter0_b" x="-20" y="-20" width="72" height="72" filterUnits="userSpaceOnUse" color-interpolation-filters="sRGB">
<feFlood flood-opacity="0" result="BackgroundImageFix"/>
<feGaussianBlur in="BackgroundImage" stdDeviation="10"/>
<feComposite in2="SourceAlpha" operator="in" result="effect1_backgroundBlur"/>
<feBlend mode="normal" in="SourceGraphic" in2="effect1_backgroundBlur" result="shape"/>
</filter>
</defs>
</svg>
