<svg width="24" height="24" viewBox="0 0 24 24" fill="none" xmlns="http://www.w3.org/2000/svg">
<path d="M18 20C18.5523 20 19 19.5523 19 19C19 18.4477 18.5523 18 18 18C17.4477 18 17 18.4477 17 19C17 19.5523 17.4477 20 18 20Z" stroke="#3913B8" stroke-width="1.2" stroke-miterlimit="10" stroke-linecap="round" stroke-linejoin="round"/>
<path d="M10 20C10.5523 20 11 19.5523 11 19C11 18.4477 10.5523 18 10 18C9.44772 18 9 18.4477 9 19C9 19.5523 9.44772 20 10 20Z" stroke="#3913B8" stroke-width="1.2" stroke-miterlimit="10" stroke-linecap="round" stroke-linejoin="round"/>
<path d="M22 4L20 15H8L6 4" fill="url(#paint0_linear)"/>
<path d="M22 4L20 15H8L6 4" stroke="#3913B8" stroke-width="1.2" stroke-miterlimit="10" stroke-linecap="round" stroke-linejoin="round"/>
<path d="M2 4H6" stroke="#3913B8" stroke-width="1.2" stroke-miterlimit="10" stroke-linecap="round" stroke-linejoin="round"/>
<path d="M11 9H17" stroke="#3913B8" stroke-width="1.2" stroke-miterlimit="10" stroke-linecap="round" stroke-linejoin="round"/>
<path d="M14 6V12" stroke="#3913B8" stroke-width="1.2" stroke-miterlimit="10" stroke-linecap="round" stroke-linejoin="round"/>
<defs>
<linearGradient id="paint0_linear" x1="14" y1="4" x2="14" y2="15" gradientUnits="userSpaceOnUse">
<stop stop-color="#B5CDFB" stop-opacity="0"/>
<stop offset="1" stop-color="#B5CDFB"/>
</linearGradient>
</defs>
</svg>
