<svg width="126" height="25" viewBox="0 0 126 25" fill="none" xmlns="http://www.w3.org/2000/svg">
<path fill-rule="evenodd" clip-rule="evenodd" d="M10.2581 4.42681C8.79012 4.42681 8.36412 5.08011 8.36412 6.51641V8.89981H12.2831L11.8911 12.7537H8.36412V24.4438H3.66212V12.7537H0.495117V8.89981H3.66212V6.58121C3.66212 2.69671 5.22912 0.639709 9.60512 0.639709C10.5521 0.639709 11.6621 0.704509 12.3481 0.802109V4.42681" fill="black"/>
<path fill-rule="evenodd" clip-rule="evenodd" d="M17.3114 17.2262C17.3114 19.5448 18.1614 21.0785 20.3484 21.0785C22.2754 21.0785 23.2554 19.6747 23.2554 17.4555V15.8875C23.2554 13.6663 22.2754 12.2625 20.3484 12.2625C18.1614 12.2625 17.3114 13.7982 17.3114 16.1165V17.2262ZM12.6094 16.1817C12.6094 11.8387 14.6664 8.57281 18.9774 8.57281C21.3284 8.57281 22.7644 9.78191 23.4504 11.2828V8.89951H27.9574V24.4418H23.4504V22.0927C22.7964 23.5939 21.3284 24.7684 18.9774 24.7684C14.6664 24.7684 12.6094 21.5046 12.6094 17.1615V16.1817Z" fill="black"/>
<path fill-rule="evenodd" clip-rule="evenodd" d="M37.7498 8.57281C39.5778 8.57281 41.3098 8.96431 42.2558 9.61781L41.2108 12.9484C40.4928 12.5893 39.3178 12.2304 38.0768 12.2304C35.5288 12.2304 34.4188 13.699 34.4188 16.2143V17.127C34.4188 19.6423 35.5288 21.1109 38.0768 21.1109C39.3178 21.1109 40.4928 20.752 41.2108 20.3928L42.2558 23.7238C41.3098 24.3767 39.5778 24.7684 37.7498 24.7684C32.2328 24.7684 29.7178 21.7966 29.7178 17.0296V16.3116C29.7178 11.5446 32.2328 8.57281 37.7498 8.57281Z" fill="black"/>
<path fill-rule="evenodd" clip-rule="evenodd" d="M47.578 15.2345H53.26V14.8431C53.26 13.1452 52.575 11.8065 50.518 11.8065C48.394 11.8065 47.578 13.1452 47.578 15.2345ZM42.876 17.2589V15.8876C42.876 11.4798 45.39 8.57281 50.518 8.57281C55.35 8.57281 57.471 11.5121 57.471 15.8228V18.3035H47.578C47.676 20.4274 48.623 21.3727 51.236 21.3727C52.999 21.3727 54.861 21.0135 56.232 20.4274L57.08 23.6587C55.841 24.3119 53.293 24.8009 51.039 24.8009C45.097 24.8009 42.876 21.8312 42.876 17.2589Z" fill="black"/>
<path fill-rule="evenodd" clip-rule="evenodd" d="M70.2057 16.0822C70.2057 13.8936 69.3557 12.2625 67.1047 12.2625C65.1777 12.2625 64.1327 13.6338 64.1327 15.853V17.486C64.1327 19.7072 65.1777 21.0785 67.1047 21.0785C69.3557 21.0785 70.2057 19.4454 70.2057 17.2568V16.0822ZM74.9077 17.1596C74.9077 21.5027 72.8187 24.7685 68.5077 24.7685C66.1567 24.7685 64.5247 23.592 63.8707 22.0908V24.4419H59.4307V1.09398L64.1327 0.669983V11.0539C64.8187 9.68268 66.3197 8.57288 68.5077 8.57288C72.8187 8.57288 74.9077 11.8371 74.9077 16.1798V17.1596Z" fill="black"/>
<path fill-rule="evenodd" clip-rule="evenodd" d="M87.2506 15.9523C87.2506 13.8956 86.4006 12.2625 84.2136 12.2625C82.0246 12.2625 81.1766 13.8956 81.1766 15.9523V17.3887C81.1766 19.4454 82.0246 21.0785 84.2136 21.0785C86.4006 21.0785 87.2506 19.4454 87.2506 17.3887V15.9523ZM76.4746 17.0622V16.2791C76.4746 11.8061 79.0206 8.57281 84.2136 8.57281C89.4046 8.57281 91.9526 11.8061 91.9526 16.2791V17.0622C91.9526 21.5368 89.4046 24.7684 84.2136 24.7684C79.0206 24.7684 76.4746 21.5368 76.4746 17.0622Z" fill="black"/>
<path fill-rule="evenodd" clip-rule="evenodd" d="M104.294 15.9523C104.294 13.8956 103.444 12.2625 101.258 12.2625C99.0686 12.2625 98.2206 13.8956 98.2206 15.9523V17.3887C98.2206 19.4454 99.0686 21.0785 101.258 21.0785C103.444 21.0785 104.294 19.4454 104.294 17.3887V15.9523ZM93.5186 17.0622V16.2791C93.5186 11.8061 96.0646 8.57281 101.258 8.57281C106.449 8.57281 108.996 11.8061 108.996 16.2791V17.0622C108.996 21.5368 106.449 24.7684 101.258 24.7684C96.0646 24.7684 93.5186 21.5368 93.5186 17.0622Z" fill="black"/>
<path fill-rule="evenodd" clip-rule="evenodd" d="M115.458 16.3114L120.095 8.89928H125.091L120.225 16.5732L125.286 24.4416H120.292L115.458 16.8348V24.4416H110.756V1.09568L115.458 0.669983" fill="black"/>
</svg>
