<svg width="112" height="38" viewBox="0 0 112 38" fill="none" xmlns="http://www.w3.org/2000/svg">
<path fill-rule="evenodd" clip-rule="evenodd" d="M38.6281 28.9375C43.6751 28.9375 47.7876 25.0149 47.7876 19.6917C47.7876 14.3309 43.6751 10.4459 38.6281 10.4459C33.5813 10.4459 29.4688 14.3309 29.4688 19.6917C29.4688 25.0149 33.5813 28.9375 38.6281 28.9375ZM38.6281 14.0892C41.3946 14.0892 43.778 16.3652 43.778 19.6917C43.778 22.9807 41.3946 25.2942 38.6281 25.2942C35.8618 25.2942 33.4784 22.9848 33.4784 19.6917C33.4784 16.3652 35.8618 14.0892 38.6281 14.0892Z" fill="black"/>
<path fill-rule="evenodd" clip-rule="evenodd" d="M58.3879 28.9375C63.4348 28.9375 67.5473 25.0149 67.5473 19.6917C67.5473 14.3309 63.4348 10.4459 58.3879 10.4459C53.3409 10.4459 49.2285 14.3351 49.2285 19.6917C49.2285 25.0149 53.3409 28.9375 58.3879 28.9375ZM58.3879 14.0892C61.1542 14.0892 63.5378 16.3652 63.5378 19.6917C63.5378 22.9807 61.1542 25.2942 58.3879 25.2942C55.6215 25.2942 53.238 22.9848 53.238 19.6917C53.238 16.3652 55.6215 14.0892 58.3879 14.0892Z" fill="black"/>
<path fill-rule="evenodd" clip-rule="evenodd" d="M86.4838 27.6036V11.0086H82.6759V12.5134H82.536C81.6344 11.4255 79.9055 10.4459 77.7278 10.4459C73.1625 10.4459 68.98 14.506 68.98 19.725C68.98 24.9065 73.1625 28.9333 77.7278 28.9333C79.9096 28.9333 81.6385 27.9537 82.536 26.8324H82.6759V28.1622C82.6759 31.7013 80.8111 33.5813 77.8019 33.5813C75.3484 33.5813 73.8252 31.8055 73.2036 30.3006L69.7127 31.7721C70.7172 34.2232 73.3806 37.2204 77.806 37.2204C82.5071 37.2204 86.4838 34.4317 86.4838 27.6036ZM78.0859 14.0892C80.8152 14.0892 82.96 16.4694 82.96 19.725C82.96 22.9473 80.8152 25.2942 78.0859 25.2942C75.3196 25.2942 73.0019 22.9473 73.0019 19.725C73.0019 16.4694 75.3196 14.0892 78.0859 14.0892Z" fill="black"/>
<path d="M92.7614 1.27496V28.3705H88.8506V1.27496H92.7614Z" fill="black"/>
<path fill-rule="evenodd" clip-rule="evenodd" d="M111.113 24.8355L108.001 22.7345C106.964 24.2769 105.547 25.294 103.506 25.294C101.468 25.294 100.015 24.3478 99.0806 22.4928L111.286 17.3738L110.87 16.3233C110.113 14.2599 107.795 10.4415 103.057 10.4415C98.3519 10.4415 94.4453 14.189 94.4453 19.6873C94.4453 24.873 98.319 28.9332 103.506 28.9332C107.688 28.9332 110.109 26.3403 111.113 24.8355ZM106.581 15.9773L98.4219 19.408C98.319 15.8398 101.155 14.0181 103.193 14.0181C104.782 14.0181 106.132 14.8226 106.581 15.9773Z" fill="black"/>
<path d="M14.6654 17.2863V13.3637H27.7191C27.8467 14.0473 27.9126 14.856 27.9126 15.7314C27.9126 18.6744 27.1181 22.3136 24.5576 24.9064C22.067 27.5326 18.8849 28.9332 14.6695 28.9332C6.85622 28.9332 0.286133 22.4887 0.286133 14.5768C0.286133 6.66488 6.85622 0.220276 14.6695 0.220276C18.9919 0.220276 22.0711 1.93768 24.3847 4.17618L21.6513 6.94418C19.9923 5.36838 17.7446 4.14288 14.6654 4.14288C8.95981 4.14288 4.49741 8.79918 4.49741 14.5768C4.49741 20.3544 8.95981 25.0106 14.6654 25.0106C18.3662 25.0106 20.4739 23.5058 21.8241 22.1385C22.9192 21.0297 23.6396 19.4456 23.9236 17.2821L14.6654 17.2863Z" fill="black"/>
</svg>
