<svg width="681" height="2305" viewBox="0 0 681 2305" fill="none" xmlns="http://www.w3.org/2000/svg">
<g opacity="0.5" filter="url(#filter0_d)">
<path fill-rule="evenodd" clip-rule="evenodd" d="M499.997 947.915C428.946 1156.13 312.263 1513.95 679.82 1696.26C1047.38 1878.57 1205.02 1738.5 1356.8 1669.29C1508.58 1600.08 1890.52 1538.21 1818.33 1299.15C1746.14 1060.1 1708.13 636.811 1432.01 653.195C1155.89 669.579 1199.74 782.311 1023.61 813.182C847.488 844.052 571.048 739.698 499.997 947.915Z" stroke="url(#paint0_linear)" stroke-width="20" stroke-linecap="round" stroke-dasharray="200 100"/>
</g>
<g opacity="0.2" filter="url(#filter1_d)">
<path fill-rule="evenodd" clip-rule="evenodd" d="M586.395 984.219C524.174 1168.69 422.114 1485.75 753.631 1650.56C1085.15 1815.37 1225.66 1692.12 1361.45 1631.78C1497.24 1571.44 1839.82 1519.39 1773.15 1306.42C1706.48 1093.45 1669.1 717.026 1421.23 729.471C1173.35 741.915 1213.6 842.423 1055.65 868.506C897.699 894.589 648.615 799.745 586.395 984.219Z" stroke="url(#paint1_linear)" stroke-width="10" stroke-linecap="round" stroke-dasharray="100 50"/>
</g>
<g filter="url(#filter2_d)">
<path fill-rule="evenodd" clip-rule="evenodd" d="M487.707 872.166C414.296 1087.3 293.736 1457 673.504 1645.37C1053.27 1833.74 1216.15 1689.02 1372.97 1617.51C1529.79 1546 1924.43 1482.07 1849.84 1235.07C1775.25 988.079 1735.97 550.727 1450.68 567.655C1165.39 584.583 1210.7 701.06 1028.72 732.957C846.742 764.853 561.119 657.032 487.707 872.166Z" stroke="url(#paint2_linear)" stroke-width="30" stroke-linecap="round" stroke-dasharray="200 100"/>
</g>
<defs>
<filter id="filter0_d" x="29.1984" y="104.483" width="2226.72" height="2199.76" filterUnits="userSpaceOnUse" color-interpolation-filters="sRGB">
<feFlood flood-opacity="0" result="BackgroundImageFix"/>
<feColorMatrix in="SourceAlpha" type="matrix" values="0 0 0 0 0 0 0 0 0 0 0 0 0 0 0 0 0 0 127 0"/>
<feOffset/>
<feGaussianBlur stdDeviation="89.3737"/>
<feColorMatrix type="matrix" values="0 0 0 0 0.129427 0 0 0 0 0.224219 0 0 0 0 0.4375 0 0 0 0.3 0"/>
<feBlend mode="normal" in2="BackgroundImageFix" result="effect1_dropShadow"/>
<feBlend mode="normal" in="SourceGraphic" in2="effect1_dropShadow" result="shape"/>
</filter>
<filter id="filter1_d" x="154.544" y="220.765" width="2025" height="1991.5" filterUnits="userSpaceOnUse" color-interpolation-filters="sRGB">
<feFlood flood-opacity="0" result="BackgroundImageFix"/>
<feColorMatrix in="SourceAlpha" type="matrix" values="0 0 0 0 0 0 0 0 0 0 0 0 0 0 0 0 0 0 127 0"/>
<feOffset/>
<feGaussianBlur stdDeviation="89.3737"/>
<feColorMatrix type="matrix" values="0 0 0 0 0.129427 0 0 0 0 0.224219 0 0 0 0 0.4375 0 0 0 0.3 0"/>
<feBlend mode="normal" in2="BackgroundImageFix" result="effect1_dropShadow"/>
<feBlend mode="normal" in="SourceGraphic" in2="effect1_dropShadow" result="shape"/>
</filter>
<filter id="filter2_d" x="0.861526" y="0.306107" width="2301.51" height="2273.65" filterUnits="userSpaceOnUse" color-interpolation-filters="sRGB">
<feFlood flood-opacity="0" result="BackgroundImageFix"/>
<feColorMatrix in="SourceAlpha" type="matrix" values="0 0 0 0 0 0 0 0 0 0 0 0 0 0 0 0 0 0 127 0"/>
<feOffset/>
<feGaussianBlur stdDeviation="89.3737"/>
<feColorMatrix type="matrix" values="0 0 0 0 0.129427 0 0 0 0 0.224219 0 0 0 0 0.4375 0 0 0 0.3 0"/>
<feBlend mode="normal" in2="BackgroundImageFix" result="effect1_dropShadow"/>
<feBlend mode="normal" in="SourceGraphic" in2="effect1_dropShadow" result="shape"/>
</filter>
<linearGradient id="paint0_linear" x1="1748.75" y1="1538.83" x2="539.868" y2="868.737" gradientUnits="userSpaceOnUse">
<stop stop-color="#844FFC"/>
<stop offset="1" stop-color="#2FB8FF"/>
</linearGradient>
<linearGradient id="paint1_linear" x1="1712.49" y1="1518.86" x2="621.599" y2="914.168" gradientUnits="userSpaceOnUse">
<stop stop-color="#844FFC"/>
<stop offset="1" stop-color="#2FB8FF"/>
</linearGradient>
<linearGradient id="paint2_linear" x1="1777.95" y1="1482.71" x2="528.903" y2="790.357" gradientUnits="userSpaceOnUse">
<stop stop-color="#844FFC"/>
<stop offset="1" stop-color="#2FB8FF"/>
</linearGradient>
</defs>
</svg>
