<svg width="54" height="52" viewBox="0 0 54 52" fill="none" xmlns="http://www.w3.org/2000/svg">
<circle cx="27" cy="26" r="26" fill="#F2F6FF"/>
<path d="M29.8332 12.6666H23.1665C17.6465 12.6666 13.1665 17.1466 13.1665 22.6666C13.1665 27.0133 15.9532 30.7066 19.8332 32.08V39.3333L26.4998 32.6666H29.8332C35.3532 32.6666 39.8332 28.1866 39.8332 22.6666C39.8332 17.1466 35.3532 12.6666 29.8332 12.6666Z" fill="white" stroke="#3913B8" stroke-width="1.5" stroke-miterlimit="10" stroke-linecap="round" stroke-linejoin="round"/>
<path d="M26.5 28.6666H26.5133" stroke="#00CFFD" stroke-width="1.5" stroke-miterlimit="10" stroke-linecap="round" stroke-linejoin="round"/>
<path d="M23.833 19.3866C23.8863 19 24.0463 18.28 24.5797 17.64C24.7263 17.4666 24.9797 17.16 25.4197 16.9333C25.9397 16.6666 26.4197 16.6666 26.633 16.6666C26.8863 16.6666 27.4463 16.6933 28.033 17.08C28.753 17.56 28.9797 18.2533 29.0463 18.4666C29.0863 18.5733 29.2863 19.28 29.0463 20.0933C28.8997 20.6 28.633 20.92 28.393 21.1866C27.4597 22.2933 26.6463 22.2 26.4997 22.92C26.4863 22.9733 26.4997 23.3733 26.4997 24.16C26.4997 24.3733 26.4997 24.5466 26.4997 24.6666" stroke="#00CFFD" stroke-width="1.5" stroke-miterlimit="10" stroke-linecap="round" stroke-linejoin="round"/>
</svg>
