<svg width="151" height="264" viewBox="0 0 151 264" fill="none" xmlns="http://www.w3.org/2000/svg">
<path d="M53.4213 125.628C52.5948 125.628 51.8699 126.162 51.6652 126.963C50.7734 130.451 48.6385 140.322 49.783 151.172C51.6004 168.401 58.3063 190.014 58.3063 192.861C58.3063 197.944 50.5117 240.908 50.5117 240.908L57.493 240.294C57.493 240.294 68.4394 202.075 70.0491 192.175C68.4351 182.041 65.313 149.469 65.313 149.469H72.002C72.002 149.469 75.5774 183.655 76.7296 191.026C75.5774 195.631 74.5268 236.477 75.5943 240.222L82.3723 241.294L87.5532 191.488C87.5532 191.488 87.8727 161.624 85.6681 142.674C85.076 137.586 83.9616 130.359 83.4642 127.203C83.3205 126.292 82.5353 125.628 81.6127 125.628H53.4213Z" fill="#427BFF"/>
<path d="M87.9769 188.718C86.7526 187.294 85.1895 186.972 84.4862 187.527C83.8169 188.053 83.8678 189.412 84.4058 190.226C85.3377 191.632 88.0489 191.869 89.6417 190.544C91.0905 189.336 91.2515 187.138 90.5144 185.706C89.3494 183.444 86.0028 183.215 83.8508 183.96C81.6268 184.731 79.2715 187.036 79.6485 189.59C80.1399 192.941 84.8845 193.793 85.3589 193.873C85.7359 193.937 89.6248 194.513 92.4207 191.573C94.6828 189.192 94.5896 186.235 94.5642 185.702" stroke="#0E0F25" stroke-width="0.534569" stroke-miterlimit="10" stroke-linecap="round"/>
<path d="M67.596 191.481C66.3718 190.057 64.8086 189.735 64.1054 190.29C63.4361 190.815 63.4869 192.175 64.0249 192.989C64.9569 194.395 67.6681 194.632 69.2609 193.306C70.7097 192.099 70.8706 189.9 70.1335 188.469C68.9686 186.206 65.622 185.978 63.47 186.723C61.246 187.494 58.8906 189.799 59.2676 192.353C59.759 195.704 64.5036 196.556 64.9781 196.636C65.3551 196.7 69.2439 197.276 72.0398 194.336C74.302 191.955 74.2088 188.998 74.1834 188.464" stroke="#0E0F25" stroke-width="0.534569" stroke-miterlimit="10" stroke-linecap="round"/>
<path d="M84.6212 237.485L75.4583 237.113C73.3486 237.113 71.9719 239.32 72.8911 241.217C74.0052 243.513 75.1363 246.187 75.1363 247.572C75.1363 250.3 73.7892 249.021 74.539 252.782C75.2888 256.544 72.7471 262.068 75.2931 262.534C77.8433 263 102.049 264.195 101.032 260.463C100.016 256.731 86.1336 254.594 86.1336 254.594C86.1336 254.594 86.0276 246.589 86.1336 244.382C86.1674 243.674 86.5784 242.704 87.1206 241.722C88.1627 239.815 86.7944 237.485 84.6212 237.485Z" fill="#0E0F25"/>
<path d="M58.2291 237.485L49.0662 237.113C46.9565 237.113 45.5797 239.32 46.499 241.217C47.6131 243.513 42.9829 261.547 45.5289 262.013C48.0791 262.479 70.6073 264.322 69.5906 260.59C68.574 256.858 57.6681 255.141 57.6681 255.141C57.6681 255.141 59.6313 246.585 59.7372 244.382C59.7711 243.674 60.182 242.704 60.7242 241.722C61.7706 239.815 60.4023 237.485 58.2291 237.485Z" fill="#A4A5A2"/>
<path d="M73.4122 82.1871L76.9622 92.4898L111.021 86.3951C112.034 86.0677 112.906 85.4021 113.484 84.5062L131.82 56.8763L125.843 53.5577L110.61 74.5856C109.901 75.6144 108.806 76.3139 107.573 76.5217L73.4122 82.1871Z" fill="#FFBBA1"/>
<path d="M68.9685 75.4841L78.027 94.4037L94.4033 91.4094L92.7218 78.566C92.7218 78.566 84.9783 77.1442 80.2862 76.8783C75.6691 76.6167 68.9685 75.4841 68.9685 75.4841Z" fill="#373740"/>
<path d="M135.007 58.6006C135.106 58.4348 144.238 50.2092 143.26 47.4872C142.503 46.5205 139.098 50.0295 139.098 50.0295C139.098 50.0295 143.493 45.4085 142.31 44.4094C141.128 43.4104 136.953 48.0905 136.953 48.0905C136.953 48.0905 141.116 43.1107 140.044 42.1759C138.967 41.2418 131.258 48.9706 131.258 48.9706C131.258 48.9706 131.166 45.0158 130.339 44.7858C128.059 44.1528 126.671 50.0808 125.836 51.8029C125.573 52.3425 123.255 56.8351 124.476 57.769C125.774 58.7622 125.928 60.5076 127.42 61.3549C129.008 62.2638 135.007 58.6006 135.007 58.6006Z" fill="#FFBBA1"/>
<path d="M132.195 48.7378C132.195 48.7378 131.897 42.1408 131.074 41.9102C128.795 41.2772 127.094 48.9932 126.258 50.7153C125.995 51.2549 122.785 54.5205 124.476 57.7747C125.231 59.2236 125.929 60.5133 127.421 61.3606C129.008 62.265 132.195 48.7378 132.195 48.7378Z" fill="#FFBBA1"/>
<path d="M102.086 142.839C105.449 141.102 112.254 139.595 115.562 140.303L113.067 145.182C109.35 145.959 105.688 145.155 102.086 142.839Z" fill="#FFBBA1"/>
<path d="M49.6762 88.9699C46.0531 100.168 51.9915 107.708 52.0926 126.965C52.1173 131.659 80.8463 128.268 80.8463 128.268L83.8818 104.067C83.8819 87.069 83.0446 84.7309 74.8764 75.2657C74.8764 75.2657 68.0097 70.2658 62.9078 73.0604C58.4368 75.5094 51.4692 83.4279 49.6762 88.9699Z" fill="#0E0F25"/>
<path d="M53.0331 108.994C53.8969 110.795 54.4988 111.971 54.4988 111.971C54.5172 112.003 54.531 112.026 54.531 112.026L66.2939 131.251L102.483 149.989L103.853 143.671L74.9966 125.03L66.588 102.134L65.4347 98.986C64.7546 96.8218 63.9551 94.5565 63.0729 92.5532V92.544C62.6869 91.6755 62.2872 90.8485 61.8782 90.1087C58.4826 84.0067 54.0761 88.8524 53.0331 94.6006C52.5093 97.4954 50.6529 104.054 53.0331 108.994Z" fill="#FFBBA1"/>
<path d="M56.8587 48.6179C56.4556 47.1228 55.315 45.5036 54.0943 44.6568C51.6708 42.9738 48.4492 41.9997 45.9431 43.1029C43.4371 44.2061 43.3544 43.9551 41.4174 46.468C37.3751 51.7051 34.022 59.379 34.3147 66.709C34.4802 70.8397 35.3814 76.5965 35.4124 80.314C35.433 82.8288 35.0745 86.4678 34.2609 87.2624C32.1179 89.3575 31.3608 88.0609 29.2672 88.1872C31.9122 90.2024 32.6856 91.1993 37.034 91.5959C37.5831 91.6443 43.8981 90.7161 45.6422 88.8287C47.1701 87.1749 47.7836 82.5723 47.9881 80.9766C49.2358 71.3999 44.696 63.3476 49.2848 54.803C50.3932 52.7299 54.6414 49.9073 56.8587 48.6179Z" fill="#121430"/>
<path d="M58.4041 44.8657C58.5201 46.6925 55.8039 49.5021 53.7035 50.4701C51.603 51.4381 51.3986 53.548 50.426 51.4438C49.458 49.3434 52.1895 45.1701 54.29 44.2021C56.3946 43.2336 58.2593 42.5559 58.4041 44.8657Z" fill="#00AB1C"/>
<path d="M77.6159 50.1717C77.6159 50.1717 80.0011 45.2617 78.197 42.5045C76.3928 39.7472 68.9932 32.4057 59.5507 39.906C59.5507 39.906 55.0668 40.1344 52.6553 46.4973C50.4229 52.4001 50.4552 67.0981 62.8491 66.5855L77.6159 50.1717Z" fill="#121430"/>
<path d="M71.6303 68.6626L72.4868 76.301L70.189 77.4035L67.2393 72.5698L66.4451 67.2607L71.6303 68.6626Z" fill="#121430"/>
<path d="M67.2967 68.8924C67.2967 68.8924 75.3354 69.3481 78.1204 67.717C81.9205 65.4946 77.9474 48.5714 76.4748 47.9941C75.0022 47.4168 66.2713 43.8407 62.5882 51.3137C58.9052 58.7867 60.2448 59.2992 60.2448 59.2992C60.2448 59.2992 55.8742 59.8293 56.028 62.4817C56.1818 65.1341 59.5686 66.2645 61.0119 65.4537C61.0119 65.4537 63.1683 73.0137 61.8642 76.5708C62.5829 76.4533 64.9263 77.2742 67.4058 78.031C70.4226 78.9517 73.6569 80.6028 73.6569 80.6028L72.0187 72.3283L67.2967 68.8924Z" fill="#FFBBA1"/>
<path d="M74.1946 52.7242C75.4914 55.29 78.1265 57.7541 77.9348 58.2031C77.6003 58.9781 76.0571 59.5596 75.9061 59.5553" stroke="#121430" stroke-width="0.501624" stroke-miterlimit="10" stroke-linecap="round"/>
<path d="M68.1658 56.5412C69.7424 53.8934 71.219 54.1041 71.219 54.1041" stroke="#121430" stroke-width="0.792434" stroke-miterlimit="10" stroke-linecap="round"/>
<path d="M79.468 50.8991C77.5644 51.0721 76.9289 51.5684 76.9289 51.5684" stroke="#121430" stroke-width="0.792434" stroke-miterlimit="10" stroke-linecap="round"/>
<path d="M71.6846 56.8189C71.8235 57.1226 71.6966 57.4807 71.3905 57.6236C71.2992 57.6673 71.2051 57.6861 71.1076 57.6759C70.8931 57.666 70.6903 57.5373 70.5915 57.33C70.4807 57.0904 70.538 56.8196 70.715 56.6448C70.7599 56.5979 70.8177 56.5537 70.8815 56.5257C71.1834 56.3832 71.5452 56.5112 71.6846 56.8189Z" fill="#121430"/>
<path d="M78.7797 53.4823C78.9186 53.7859 78.7917 54.1441 78.4893 54.2824C78.1873 54.4249 77.8251 54.2928 77.6861 53.9892C77.5431 53.686 77.6737 53.3232 77.9761 53.1849C78.278 53.0425 78.6403 53.1745 78.7797 53.4823Z" fill="#121430"/>
<path d="M76.3291 64.3241C75.7828 64.5272 74.2549 62.5633 74.1854 62.5038L77.25 61.6196C77.2053 63.0393 76.7308 64.1748 76.3291 64.3241Z" fill="white"/>
<path d="M59.0693 59.4218C59.0693 59.4218 62.2607 59.8909 63.2263 58.6683C64.192 57.4457 63.489 49.9513 67.1687 50.1396C70.8483 50.3279 78.2381 48.4254 80.4685 45.3936C82.6988 42.3617 74.4952 39.0033 74.4952 39.0033C74.4952 39.0033 64.9701 40.4737 63.4461 40.9373C62.3843 41.2612 57.449 45.1023 54.5467 47.4088C53.3458 48.3643 53.1293 50.1026 54.0618 51.3227L59.0693 59.4218Z" fill="#121430"/>
<path d="M109.299 154.042C112.46 155.071 119.022 153.904 120.745 151.583C121.126 150.416 114.813 150.499 114.813 150.499C114.813 150.499 122.096 150.393 122.27 148.854C122.445 147.315 115.484 147.811 115.484 147.811C115.484 147.811 121.921 145.739 122.1 144.328C122.279 142.917 111.56 144.328 111.56 144.328C111.56 144.328 109.607 141.985 107.709 142.247C107.116 142.329 102.089 142.895 101.988 144.425C101.883 146.056 100.513 147.154 100.637 148.863C100.766 150.683 109.299 154.042 109.299 154.042Z" fill="#FFBBA1"/>
<path d="M51.1855 109.805L69.9668 105.865C69.2243 104.737 66.8267 92.0965 61.4909 85.9845C59.423 83.6159 61.0643 77.9631 58.6189 78.0446C55.2602 78.1565 47.9378 85.241 46.7994 91.5148C46.2756 94.4095 48.8053 104.866 51.1855 109.805Z" fill="#0E0F25"/>
</svg>
