<svg width="1279" height="2034" viewBox="0 0 1279 2034" fill="none" xmlns="http://www.w3.org/2000/svg">
<g filter="url(#filter0_d)">
<rect width="1211.43" height="1223.47" rx="200" transform="matrix(-0.882504 -0.470304 0.437807 -0.899069 527.131 1813.69)" fill="url(#paint0_linear)"/>
</g>
<g filter="url(#filter1_d)">
<rect width="1172.75" height="1223.55" rx="200" transform="matrix(-0.842811 -0.538209 0.538691 -0.842503 447.446 1789.24)" fill="url(#paint1_linear)"/>
</g>
<rect opacity="0.111111" width="1012.75" height="1063.55" rx="200" transform="matrix(-0.809225 -0.587499 0.587961 -0.808889 503.444 1891.89)" stroke="#E672BD" stroke-width="1.44444" stroke-linecap="round"/>
<rect opacity="0.222222" width="1032.75" height="1083.55" rx="200" transform="matrix(-0.809225 -0.587499 0.587961 -0.808889 493.444 1881.89)" stroke="#DA6DC5" stroke-width="1.88889" stroke-linecap="round"/>
<rect opacity="0.333333" width="1052.75" height="1103.55" rx="200" transform="matrix(-0.809225 -0.587499 0.587961 -0.808889 483.444 1871.89)" stroke="#CE69CE" stroke-width="2.33333" stroke-linecap="round"/>
<rect opacity="0.444444" width="1072.75" height="1123.55" rx="200" transform="matrix(-0.809225 -0.587499 0.587961 -0.808889 473.444 1861.89)" stroke="#C265D6" stroke-width="2.77778" stroke-linecap="round"/>
<rect opacity="0.555556" width="1092.75" height="1143.55" rx="200" transform="matrix(-0.809225 -0.587499 0.587961 -0.808889 463.444 1851.89)" stroke="#B660DE" stroke-width="3.22222" stroke-linecap="round"/>
<rect opacity="0.666667" width="1112.75" height="1163.55" rx="200" transform="matrix(-0.809225 -0.587499 0.587961 -0.808889 453.444 1841.89)" stroke="#AA5CE6" stroke-width="3.66667" stroke-linecap="round"/>
<rect opacity="0.777778" width="1132.75" height="1183.55" rx="200" transform="matrix(-0.809225 -0.587499 0.587961 -0.808889 443.444 1831.89)" stroke="#9E58EF" stroke-width="4.11111" stroke-linecap="round"/>
<rect opacity="0.888889" width="1152.75" height="1203.55" rx="200" transform="matrix(-0.809225 -0.587499 0.587961 -0.808889 433.444 1821.89)" stroke="#9253F7" stroke-width="4.55556" stroke-linecap="round"/>
<rect width="1172.75" height="1223.55" rx="200" transform="matrix(-0.809225 -0.587499 0.587961 -0.808889 423.444 1811.89)" stroke="#864FFF" stroke-width="5" stroke-linecap="round"/>
<defs>
<filter id="filter0_d" x="-653.716" y="36.1294" width="1828.24" height="1885.41" filterUnits="userSpaceOnUse" color-interpolation-filters="sRGB">
<feFlood flood-opacity="0" result="BackgroundImageFix"/>
<feColorMatrix in="SourceAlpha" type="matrix" values="0 0 0 0 0 0 0 0 0 0 0 0 0 0 0 0 0 0 127 0"/>
<feOffset/>
<feGaussianBlur stdDeviation="89.3737"/>
<feColorMatrix type="matrix" values="0 0 0 0 0.129427 0 0 0 0 0.224219 0 0 0 0 0.4375 0 0 0 0.3 0"/>
<feBlend mode="normal" in2="BackgroundImageFix" result="effect1_dropShadow"/>
<feBlend mode="normal" in="SourceGraphic" in2="effect1_dropShadow" result="shape"/>
</filter>
<filter id="filter1_d" x="-643.483" y="24.6342" width="1852.57" height="1867.18" filterUnits="userSpaceOnUse" color-interpolation-filters="sRGB">
<feFlood flood-opacity="0" result="BackgroundImageFix"/>
<feColorMatrix in="SourceAlpha" type="matrix" values="0 0 0 0 0 0 0 0 0 0 0 0 0 0 0 0 0 0 127 0"/>
<feOffset/>
<feGaussianBlur stdDeviation="89.3737"/>
<feColorMatrix type="matrix" values="0 0 0 0 0.129427 0 0 0 0 0.224219 0 0 0 0 0.4375 0 0 0 0.3 0"/>
<feBlend mode="normal" in2="BackgroundImageFix" result="effect1_dropShadow"/>
<feBlend mode="normal" in="SourceGraphic" in2="effect1_dropShadow" result="shape"/>
</filter>
<linearGradient id="paint0_linear" x1="0" y1="0" x2="0" y2="1223.47" gradientUnits="userSpaceOnUse">
<stop stop-color="#FF7373"/>
<stop offset="1" stop-color="#491EB8"/>
</linearGradient>
<linearGradient id="paint1_linear" x1="586.374" y1="1.3261e-05" x2="105.797" y2="1236.99" gradientUnits="userSpaceOnUse">
<stop stop-color="#FF8570"/>
<stop offset="1" stop-color="#F9504A"/>
</linearGradient>
</defs>
</svg>
