<svg width="151" height="264" viewBox="0 0 151 264" fill="none" xmlns="http://www.w3.org/2000/svg">
<path d="M79.9268 234.5L86.072 234.884L86.0205 220.356H79.3511L79.9268 234.5Z" fill="#DCDCDC"/>
<path d="M63.1126 232.191H68.4359L68.6388 217.855H62.4189L63.1126 232.191Z" fill="#DCDCDC"/>
<path d="M77.022 228.001H89.5536L90.2116 137.189C90.2237 135.519 88.8732 134.159 87.2031 134.159H77.0221L77.022 228.001Z" fill="#5C5C5C"/>
<path d="M59.5558 229.02L70.9537 229.02L74.6982 134.159L62.5643 134.159C60.9028 134.159 59.5558 135.506 59.5558 137.167L59.5558 229.02Z" fill="#5C5C5C"/>
<path d="M59.7173 147.227L86.3232 147.227L86.3232 134.159L69.0265 134.159C66.5677 134.159 64.3563 135.655 63.4414 137.937L59.7173 147.227Z" fill="#5C5C5C"/>
<path d="M71.8002 241.998H59.4526C59.0548 241.998 58.7324 241.675 58.7324 241.278V239.246C58.7324 236.422 61.0216 234.133 63.8454 234.133H67.4074C70.2312 234.133 72.5203 236.422 72.5203 239.246V241.278C72.5203 241.675 72.1979 241.998 71.8002 241.998Z" fill="#0F0F23"/>
<path d="M76.9928 241.998H89.3404C89.7381 241.998 90.0605 241.675 90.0605 241.278V239.246C90.0605 236.422 87.7714 234.133 84.9476 234.133H81.3856C78.5618 234.133 76.2726 236.422 76.2726 239.246V241.278C76.2726 241.675 76.595 241.998 76.9928 241.998Z" fill="#0F0F23"/>
<path d="M68.9582 231.222C68.9582 231.222 66.1863 229.411 62.7546 230.722C61.8783 231.057 61.8391 233.209 60.7577 233.75C59.3188 234.47 58.9772 235.989 58.8563 239.525C58.7355 243.061 71.4877 239.525 71.4877 239.525L70.901 234.637C70.7312 233.222 68.9582 231.222 68.9582 231.222Z" fill="#0F0F23"/>
<path d="M79.3797 231.222C79.3797 231.222 82.1515 229.411 85.5833 230.722C86.4596 231.057 86.4988 233.209 87.5802 233.75C89.0191 234.47 89.3607 235.989 89.4816 239.525C89.6024 243.061 76.8502 239.525 76.8502 239.525L77.4369 234.637C77.6067 233.222 79.3797 231.222 79.3797 231.222Z" fill="#0F0F23"/>
<path d="M46.9253 151.169V147.475C46.9253 146.516 46.1475 145.738 45.188 145.738H36.3351C35.3756 145.738 34.5978 146.516 34.5978 147.475V151.169" stroke="#2B2B2B" stroke-width="3.32185" stroke-miterlimit="10" stroke-linecap="round"/>
<path d="M36.4996 140.123C36.5329 140.302 33.5802 147.415 35.9861 148.755C37.1357 148.972 39.3733 149.196 40.847 149.168C42.3208 149.14 42.514 149.351 43.8686 149.345C44.6854 149.342 44.6162 147.426 44.4326 145.905C44.3151 144.932 45.0762 144.078 46.0562 144.082L46.9355 144.086C46.9355 144.086 48.1582 142.7 47.6768 140.941C47.1955 139.182 36.4996 140.123 36.4996 140.123Z" fill="#EEB489"/>
<path d="M111.507 139.872C111.474 140.051 114.782 149.522 112.376 150.861C111.226 151.079 110.986 146.432 110.986 146.432C110.986 146.432 111.239 152.499 109.766 152.471C108.292 152.443 108.236 146.475 108.236 146.475C108.236 146.475 108.099 152.654 106.744 152.648C105.389 152.643 104.104 143.653 104.104 143.653C104.104 143.653 103.311 147.982 102.511 148.141C101.711 148.3 99.8489 142.449 100.33 140.69C100.812 138.931 111.507 139.872 111.507 139.872Z" fill="#EEB489"/>
<path d="M72.1115 64.5397C71.5769 64.5694 60.4217 79.6243 60.4217 79.6243L52.28 85.3887L56.4789 136.51H83.4623L87.8003 85.3887C87.8003 85.3887 83.3681 64.888 72.1115 64.5397Z" fill="#2B2B2B"/>
<path d="M86.8983 71.9966C86.8983 71.9966 95.9565 76.7383 105.199 102.888C114.442 129.038 115.143 142.78 115.143 142.78H95.9981L86.0376 95.2235C86.0376 95.2235 83.5742 76.0131 86.8983 71.9966Z" fill="#6D99FF"/>
<path d="M63.539 71.5637C63.539 71.5637 49.4507 75.3551 39.5773 101.273C32.7234 119.265 31.9965 141.165 31.9965 141.165H51.1409L58.7388 93.6087C58.7388 93.6087 70.0173 77.0297 63.539 71.5637Z" fill="#6D99FF"/>
<path d="M72.0981 65.2687C72.0981 65.2687 85.3541 74.7173 80.9923 81.26C76.6304 87.8027 76.9939 182.672 76.9939 182.672H93.5864L93.5864 86.1848C93.5864 86.1848 91.9462 65.7098 72.0981 65.2687Z" fill="#6D99FF"/>
<path d="M72.1104 64.5397C72.1104 64.5397 63.7502 74.7173 68.112 81.26C72.4738 87.8027 70.4483 182.673 70.4483 182.673H48.7234L52.4821 87.0758C52.4821 87.0758 48.8473 74.7173 72.1104 64.5397Z" fill="#6D99FF"/>
<path d="M89.0071 72.8024C89.0071 72.8024 97.0075 83.4283 92.2822 85.9727C87.5569 88.5171 83.0739 89.971 84.7702 96.8772C86.4665 103.783 88.7685 108.63 85.2548 111.053C81.7411 113.476 80.893 121.837 80.893 121.837" stroke="#2B2B2B" stroke-width="0.472713" stroke-miterlimit="10" stroke-linecap="round"/>
<path d="M58.7482 71.4602C58.7482 71.4602 50.7478 82.0861 55.4731 84.6305C60.1984 87.1749 64.6814 88.6288 62.9851 95.5351C61.2889 102.441 58.9868 107.288 62.5005 109.711C66.0142 112.134 66.8623 120.494 66.8623 120.494" stroke="#2B2B2B" stroke-width="0.472713" stroke-miterlimit="10" stroke-linecap="round"/>
<path d="M15.7554 180.985H64.0849C64.8918 180.985 65.5459 180.331 65.5459 179.524V152.025C65.5459 151.219 64.8918 150.564 64.0849 150.564H15.7554C14.9485 150.564 14.2944 151.219 14.2944 152.025V179.524C14.2944 180.331 14.9485 180.985 15.7554 180.985Z" fill="#2B2B2B"/>
<path d="M64.2114 153.108C64.2114 153.108 45.984 166.436 39.92 166.436C33.8561 166.436 16.2876 153.108 16.2876 153.108" stroke="#6D99FF" stroke-width="0.752143" stroke-miterlimit="10" stroke-linecap="round"/>
<path d="M69.1527 64.3567H76.6431V72.1976C76.6431 74.266 74.9663 75.9428 72.8979 75.9428C70.8295 75.9428 69.1527 74.266 69.1527 72.1976V64.3567Z" fill="#EEB489"/>
<path d="M76.6431 66.0436L69.8097 66.1136C69.8097 66.1136 75.5706 70.6414 76.6431 69.9072V66.0436Z" fill="#2B2B2B"/>
<path d="M73.4082 66.8254H77.3679C81.9098 66.8254 85.5918 63.1434 85.5918 58.6015V48.0301C85.5918 43.4882 81.9098 39.8063 77.3679 39.8063H72.0065C67.4646 39.8063 63.7827 43.4882 63.7827 48.0301V57.1998C63.7827 62.5159 68.0922 66.8254 73.4082 66.8254Z" fill="#EEB489"/>
<path d="M91.0236 38.8474C91.2046 37.1731 91.4935 34.5801 89.7514 33.3951C88.1029 32.2738 85.5255 32.8665 84.4808 34.2129C84.4808 34.2129 82.0352 31.5837 80.0352 30.5587C74.5739 27.7598 64.8831 28.7835 64.4891 32.8498C64.2582 35.2334 70.9638 38.0501 71.0319 37.9386C71.0916 37.8408 66.9328 34.0159 63.3078 34.9399C61.8071 35.3224 60.4388 36.5084 59.9455 38.0295C59.1569 40.4616 60.618 43.2372 62.49 44.027C63.6001 44.4954 64.0035 43.9072 66.7376 43.7693C69.0479 43.6528 66.9166 45.3175 68.8399 45.6627C71.7032 46.1766 75.8452 45.243 77.9381 45.6627C80.3981 46.1561 85.5682 47.1929 88.6679 44.3145C90.6295 42.493 90.9104 39.8941 91.0236 38.8474Z" fill="#2B2B2B"/>
<path d="M73.459 43.6018C73.459 43.6018 68.4472 48.4911 68.7087 51.2654C68.9702 54.0397 64.5365 51.8476 64.5365 51.8476C64.5365 51.8476 64.4791 56.9233 63.8267 56.8742C63.1744 56.8251 59.3032 41.526 62.343 40.9598C65.3829 40.3936 73.459 43.6018 73.459 43.6018Z" fill="#2B2B2B"/>
<path d="M87.1465 51.527L83.644 50.3008" stroke="#2B2B2B" stroke-width="1.42365" stroke-miterlimit="10" stroke-linecap="round"/>
<path d="M72.744 51.917L76.6431 50.8795" stroke="#2B2B2B" stroke-width="1.42365" stroke-miterlimit="10" stroke-linecap="round"/>
<path d="M81.4587 51.8468C82.4555 54.3547 82.7867 56.1504 82.9126 57.2082C82.97 57.6899 83.0204 58.318 82.64 58.6622C81.9852 59.2547 80.5551 58.5518 80.4137 58.4804" stroke="#2B2B2B" stroke-width="0.474551" stroke-miterlimit="10" stroke-linecap="round"/>
<path d="M80.8094 60.748C81.0922 61.8534 79.8798 64.1278 78.3521 63.8833C76.654 63.6116 76.2591 61.002 76.1367 60.5236" fill="white"/>
<path d="M75.9504 54.0839C75.6267 54.0839 75.3642 53.8214 75.3642 53.4977C75.3642 53.1739 75.6267 52.9115 75.9504 52.9115C76.2742 52.9115 76.5366 53.1739 76.5366 53.4977C76.5366 53.8214 76.2742 54.0839 75.9504 54.0839Z" fill="#2B2B2B"/>
<path d="M85.0056 54.0839C84.6819 54.0839 84.4194 53.8214 84.4194 53.4977C84.4194 53.1739 84.6819 52.9115 85.0056 52.9115C85.3294 52.9115 85.5918 53.1739 85.5918 53.4977C85.5918 53.8214 85.3294 54.0839 85.0056 54.0839Z" fill="#2B2B2B"/>
<path d="M63.9523 55.0376C62.636 55.2629 61.3309 54.0555 61.0373 52.3406C60.7437 50.6257 61.5727 49.0529 62.8891 48.8275C64.2054 48.6021 65.5105 49.8096 65.8041 51.5245C66.0977 53.2393 65.2686 54.8122 63.9523 55.0376Z" fill="#EEB489"/>
</svg>
