<svg width="153" height="264" viewBox="0 0 153 264" fill="none" xmlns="http://www.w3.org/2000/svg">
<path d="M73.4121 231.092H78.7354L79.632 221.488H73.4121V231.092Z" fill="#E7E7E7"/>
<path d="M68.7777 225.339L82.0049 225.339L82.0049 128.894L68.7777 128.894L68.7777 225.339Z" fill="#262626"/>
<path d="M51.3173 225.339L64.687 225.339L64.687 128.895L51.3173 128.895L51.3173 225.339Z" fill="#262626"/>
<path d="M51.3177 137.379L78.3267 137.379L78.3267 128.894L51.3177 128.894L51.3177 137.379Z" fill="#262626"/>
<path d="M53.5898 231.437H58.9131L59.213 221.488H52.9932L53.5898 231.437Z" fill="#E7E7E7"/>
<path d="M68.0776 225.452L83.4891 225.339L83.3638 219.25L68.0776 221.659V225.452Z" fill="#333333"/>
<path d="M50.3784 225.339H65.693L65.5684 219.251L50.3784 221.659V225.339Z" fill="#333333"/>
<path d="M79.3546 227.798C79.3546 227.798 89.9505 232.061 96.3554 233.41C98.0819 233.773 97.5335 237.291 97.5335 237.291L73.2697 236.542C72.8735 236.533 72.5448 236.236 72.4994 235.842C72.3373 234.437 72.0891 230.628 73.176 229.316C73.3945 229.053 73.9105 229.286 74.3892 229.449C74.9203 229.631 75.8169 232.304 79.0599 229.649C79.3637 229.401 79.0006 228.145 79.3546 227.798Z" fill="#333333"/>
<path d="M59.0616 227.781C59.0616 227.781 69.645 232.076 76.0459 233.443C77.7714 233.812 77.2126 237.327 77.2126 237.327L52.9511 236.508C52.555 236.498 52.2272 236.2 52.1829 235.806C52.0249 234.4 51.7879 230.59 52.8786 229.282C53.0979 229.019 53.6133 229.254 54.0915 229.418C54.622 229.601 55.5108 232.277 58.7616 229.632C59.0661 229.384 58.7067 228.128 59.0616 227.781Z" fill="#333333"/>
<path d="M140.074 97.633C140.224 97.492 152.119 91.6977 151.919 88.5902C151.422 87.3641 146.858 89.9815 146.858 89.9815C146.858 89.9815 152.78 86.5071 151.851 85.123C150.922 83.739 145.214 87.3408 145.214 87.3408C145.214 87.3408 151.004 83.4264 150.169 82.142C149.334 80.8576 139.057 86.5566 139.057 86.5566C139.057 86.5566 140.138 82.4357 139.351 81.9534C137.183 80.6232 133.982 86.3394 132.605 87.8743C131.227 89.4092 140.074 97.633 140.074 97.633Z" stroke="#0E0F25" stroke-width="0.471875" stroke-miterlimit="10" stroke-linecap="round" stroke-linejoin="round"/>
<path d="M111.099 114.908C117.027 114.908 124.187 111.882 133.442 105.493C139.855 101.066 144.988 96.5649 145.203 96.3755L133.36 82.9114C133.215 83.0386 128.92 86.7864 123.651 90.4619C115.092 96.4313 111.589 96.9336 111.152 96.9737C107.36 96.4073 94.6826 88.1901 83.9064 79.2954L72.492 93.1245C72.7353 93.3254 78.5388 98.1054 85.6142 103.063C99.6594 112.904 105.978 114.493 109.509 114.833C110.029 114.883 110.559 114.908 111.099 114.908ZM139.282 89.6435L133.363 82.9087C133.363 82.9091 133.362 82.91 133.36 82.9114L139.282 89.6435Z" fill="#F2762E"/>
<path d="M106.772 113.158C106.907 112.989 117.126 109.792 118.628 106.095C118.844 105.564 118.403 104.966 117.833 105.026C116.548 105.161 114.608 106.512 114.608 106.512C114.608 106.512 120.623 101.714 119.372 100.327C118.121 98.9398 112.364 103.845 112.364 103.845C112.364 103.845 118.162 98.58 117.031 97.2884C115.9 95.9969 105.43 101.832 105.43 101.832C105.43 101.832 106.901 98.4463 106.389 97.5486C105.877 96.6509 99.5507 99.8615 98.2674 101.784C96.9842 103.706 106.772 113.158 106.772 113.158Z" fill="#EEB489"/>
<path d="M63.5086 65.1396C62.9771 65.1692 47.2123 80.1392 47.2123 80.1392L44.8947 83.9343L44.2769 137.668H83.6591L81.7244 84.3861C81.7244 84.3861 85.1312 77.1895 84.0336 75.9799C79.8124 71.3286 78.4781 70.519 71.5168 66.42L63.5086 65.1396Z" fill="#F2A35E"/>
<path d="M69.4285 65.2622C69.4285 65.2622 83.5494 73.3077 79.2121 79.8135C74.8749 86.3194 75.2363 180.654 75.2363 180.654L89.3516 180.353L88.9534 87.3435C88.9534 87.3435 92.5604 75.3824 69.4285 65.2622Z" fill="#F2762E"/>
<path d="M63.5787 64.9344C63.5787 64.9344 59.4409 77.1871 68.3492 84.6568C74.3406 89.6807 69.9947 180.654 69.9947 180.654L38.751 180.353C38.751 180.353 33.8114 92.6445 37.4258 84.211C39.2349 79.9897 45.9681 72.639 63.5787 64.9344Z" fill="#F2762E"/>
<path d="M65.904 70.5745H70.4994C71.2872 70.5745 71.9258 69.9359 71.9258 69.1482V60.9627C71.9258 60.175 71.2872 59.5364 70.4994 59.5364H65.904C65.1163 59.5364 64.4777 60.175 64.4777 60.9627V69.1482C64.4777 69.9359 65.1163 70.5745 65.904 70.5745Z" fill="#EEB489"/>
<path d="M74.8975 68.0744C74.8975 68.0744 73.0556 72.0138 66.8455 70.3618C60.6353 68.7098 61.5312 65.1761 61.5312 65.1761" stroke="#0E0F25" stroke-width="1.41562" stroke-miterlimit="10" stroke-linecap="round"/>
<path d="M71.9258 61.2136L65.131 61.2833C65.131 61.2833 70.8593 65.7855 71.9258 65.0554V61.2136Z" fill="#0E0F25"/>
<path d="M68.7083 61.991H72.6458C77.1621 61.991 80.8232 58.3298 80.8232 53.8135V43.3018C80.8232 38.7855 77.1621 35.1243 72.6458 35.1243H67.3146C62.7983 35.1243 59.1371 38.7855 59.1371 43.3018V52.4198C59.1371 57.7058 63.4223 61.991 68.7083 61.991Z" fill="#EEB489"/>
<path d="M59.144 50.3147C57.6136 50.3147 56.373 48.9123 56.373 47.1823C56.373 45.4522 57.6136 44.0498 59.144 44.0498C60.6744 44.0498 61.915 45.4522 61.915 47.1823C61.915 48.9123 60.6744 50.3147 59.144 50.3147Z" fill="#EEB489"/>
<path d="M86.2245 34.1708C86.4045 32.506 86.6919 29.9276 84.9595 28.7492C83.3203 27.6343 80.7575 28.2237 79.7187 29.5625C78.7919 30.7569 79.1697 32.4296 78.9055 32.454C78.4934 32.4919 78.7407 28.3186 76.3754 26.5806C74.8938 25.492 72.4295 25.3899 71.4057 26.4903C69.7023 28.3209 72.2426 33.2045 71.8575 33.3576C71.4263 33.529 69.8464 26.7712 65.8034 25.677C63.2535 24.9869 59.9932 26.6225 59.8397 28.2071C59.61 30.5772 66.2779 33.378 66.3456 33.2672C66.405 33.1699 62.2696 29.3666 58.665 30.2854C57.1728 30.6657 55.8122 31.845 55.3218 33.3576C54.5375 35.7759 55.9904 38.5359 57.8518 39.3213C58.9557 39.787 59.3569 39.2021 62.0755 39.065C64.3728 38.9491 66.1267 39.2639 68.0392 39.6071C70.8863 40.1181 71.1318 40.5304 73.2128 40.9477C75.6589 41.4383 80.7999 42.4693 83.8821 39.6071C85.8327 37.7958 86.112 35.2117 86.2245 34.1708Z" fill="#0E0F25"/>
<path d="M66.458 38.8985C66.458 38.8985 62.2123 44.7536 62.4724 47.5123C62.7324 50.2709 59.7097 47.5123 59.7097 47.5123C59.7097 47.5123 59.4582 44.3446 58.8096 44.2958C58.1609 44.2469 56.1216 39.2112 59.1443 38.6482C62.167 38.0853 66.458 38.8985 66.458 38.8985Z" fill="#0E0F25"/>
<path d="M83.8638 47.1822C83.8638 47.1822 83.2162 46.4142 81.5446 46.3223C79.449 46.2072 78.6832 46.6401 78.6832 46.6401" stroke="#0E0F25" stroke-width="1.41562" stroke-miterlimit="10" stroke-linecap="round"/>
<path d="M68.2559 47.1822C68.2559 47.1822 68.9035 46.4142 70.5752 46.3223C72.6707 46.2072 73.4365 46.6401 73.4365 46.6401" stroke="#0E0F25" stroke-width="1.41562" stroke-miterlimit="10" stroke-linecap="round"/>
<path d="M76.7132 47.0968C77.7044 49.5905 78.0337 51.3762 78.159 52.428C78.216 52.9069 78.2661 53.5315 77.8879 53.8737C77.2367 54.4629 75.8147 53.764 75.6741 53.693" stroke="#0E0F25" stroke-width="0.471875" stroke-miterlimit="10" stroke-linecap="round"/>
<path d="M77.3936 56.7418C77.3072 56.8361 76.643 57.537 75.6305 57.4677C74.8098 57.4115 74.0799 56.8713 73.7491 56.0792" stroke="#0E0F25" stroke-width="0.471875" stroke-miterlimit="10" stroke-linecap="round"/>
<path d="M81.2736 49.5516C81.049 49.5516 80.8669 49.3696 80.8669 49.145C80.8669 48.9205 81.049 48.7384 81.2736 48.7384C81.4981 48.7384 81.6802 48.9205 81.6802 49.145C81.6802 49.3696 81.4981 49.5516 81.2736 49.5516Z" fill="#0E0F25"/>
<path d="M71.4122 49.145C71.1877 49.145 71.0056 48.963 71.0056 48.7384C71.0056 48.5138 71.1877 48.3318 71.4122 48.3318C71.6368 48.3318 71.8188 48.5138 71.8188 48.7384C71.8188 48.963 71.6368 49.145 71.4122 49.145Z" fill="#0E0F25"/>
<path d="M86.4979 74.3695C86.4979 74.3695 94.4532 84.9355 89.7545 87.4655C85.0558 89.9956 80.5981 91.4413 82.2848 98.3086C83.9715 105.176 86.2606 109.995 82.7667 112.405C79.2729 114.814 78.4295 123.127 78.4295 123.127" stroke="#0E0F25" stroke-width="0.471875" stroke-miterlimit="10" stroke-linecap="round"/>
<path d="M59.5898 70.3137C59.5898 70.3137 51.6345 80.8797 56.3332 83.4098C61.0319 85.9398 65.4896 87.3855 63.8029 94.2528C62.1162 101.12 59.8271 105.939 63.321 108.349C66.8149 110.758 67.6582 119.071 67.6582 119.071" stroke="#0E0F25" stroke-width="0.471875" stroke-miterlimit="10" stroke-linecap="round"/>
<path d="M42.3898 83.1692C46.563 80.5044 52.0955 81.7115 54.7612 85.8852C54.7866 85.9243 57.3876 89.8926 64.2957 97.8122C72.1757 106.846 75.7125 109.103 76.5818 109.571C77.4301 109.561 81.1026 109.224 89.7102 104.849C95.5074 101.903 100.327 98.7442 100.375 98.7126L110.237 113.688C109.997 113.846 104.291 117.593 97.3269 121.091C88.3637 125.591 81.4212 127.674 75.8599 127.49C74.6178 127.449 73.4435 127.294 72.3318 127.028C68.3672 126.081 62.7066 123.269 50.7828 109.599C42.9677 100.64 39.9826 96.0594 39.6683 95.5667C37.0035 91.393 38.2161 85.834 42.3898 83.1692Z" fill="#F2762E"/>
<path d="M54.7614 85.8853C54.7868 85.9244 57.3878 89.8926 64.2959 97.8122" stroke="#0E0F25" stroke-width="0.471875" stroke-miterlimit="10" stroke-linecap="round"/>
<path d="M42.3893 83.1692C46.5625 80.5044 52.0951 81.7115 54.7607 85.8852" stroke="#0E0F25" stroke-width="0.471875" stroke-miterlimit="10" stroke-linecap="round"/>
<path d="M39.6682 95.5668C37.0034 91.3931 38.216 85.8341 42.3896 83.1693" stroke="#0E0F25" stroke-width="0.471875" stroke-miterlimit="10" stroke-linecap="round"/>
<path d="M50.7827 109.599C42.9676 100.64 39.9825 96.0595 39.6682 95.5668" stroke="#0E0F25" stroke-width="0.471875" stroke-miterlimit="10" stroke-linecap="round"/>
<path d="M76.5816 109.571C77.4298 109.561 81.1023 109.224 89.71 104.849" stroke="#0E0F25" stroke-width="0.471875" stroke-miterlimit="10" stroke-linecap="round"/>
<path d="M64.2959 97.8121C72.1758 106.846 75.7127 109.103 76.582 109.571" stroke="#0E0F25" stroke-width="0.471875" stroke-miterlimit="10" stroke-linecap="round"/>
<path d="M75.8599 127.49C74.6177 127.449 73.4434 127.295 72.3318 127.029" stroke="#0E0F25" stroke-width="0.471875" stroke-miterlimit="10" stroke-linecap="round"/>
<path d="M97.3267 121.091C88.3635 125.591 81.421 127.674 75.8597 127.49" stroke="#0E0F25" stroke-width="0.471875" stroke-miterlimit="10" stroke-linecap="round"/>
</svg>
