<svg width="32" height="32" viewBox="0 0 32 32" fill="none" xmlns="http://www.w3.org/2000/svg">
<path fill-rule="evenodd" clip-rule="evenodd" d="M16 32C24.8366 32 32 24.8366 32 16C32 7.16344 24.8366 0 16 0C7.16344 0 0 7.16344 0 16C0 24.8366 7.16344 32 16 32Z" fill="white"/>
<path d="M31.5 16C31.5 24.5604 24.5604 31.5 16 31.5C7.43959 31.5 0.5 24.5604 0.5 16C0.5 7.43959 7.43959 0.5 16 0.5C24.5604 0.5 31.5 7.43959 31.5 16Z" stroke="black" stroke-opacity="0.1"/>
<path fill-rule="evenodd" clip-rule="evenodd" d="M10 21.5253V13.8413C10 10.6152 12.6152 8 15.8413 8C19.0673 8 21.6826 10.6152 21.6826 13.8413C21.6826 17.0249 19.1357 19.6136 15.9683 19.6812V19.6825C15.0565 19.6825 14.3175 18.9435 14.3175 18.0317C14.3175 17.1285 15.0429 16.3947 15.9429 16.3812V16.379C17.2984 16.3256 18.381 15.2099 18.381 13.8413C18.381 12.4387 17.2439 11.3016 15.8413 11.3016C14.4387 11.3016 13.3016 12.4387 13.3016 13.8413V22.3492C13.3016 23.261 12.5625 24 11.6508 24C11.3112 24.0005 10.9797 23.8958 10.7021 23.7003C11.1769 23.5615 11.5238 23.1229 11.5238 22.6032C11.5238 21.972 11.0121 21.4603 10.381 21.4603C10.2474 21.4603 10.1192 21.4832 10 21.5253ZM15.9683 19.1746C16.5994 19.1746 17.1111 18.6629 17.1111 18.0317C17.1111 17.4006 16.5994 16.8889 15.9683 16.8889C15.3371 16.8889 14.8254 17.4006 14.8254 18.0317C14.8254 18.6629 15.3371 19.1746 15.9683 19.1746Z" fill="url(#paint0_linear)"/>
<defs>
<linearGradient id="paint0_linear" x1="15.8413" y1="8" x2="15.8413" y2="18.0189" gradientUnits="userSpaceOnUse">
<stop stop-color="#D378E5"/>
<stop offset="1" stop-color="#7526C2"/>
</linearGradient>
</defs>
</svg>
