<svg width="24" height="25" viewBox="0 0 24 25" fill="none" xmlns="http://www.w3.org/2000/svg">
<path d="M22 12.5C22 13.52 21.85 14.51 21.56 15.44C20.77 13.71 19.03 12.5 17 12.5C14.24 12.5 12 14.74 12 17.5C12 19.53 13.21 21.27 14.94 22.06C14.01 22.35 13.02 22.5 12 22.5C6.48 22.5 2 18.02 2 12.5C2 6.98 6.48 2.5 12 2.5C17.52 2.5 22 6.98 22 12.5Z" fill="#00CFFD" stroke="black" stroke-width="1.2" stroke-miterlimit="10" stroke-linecap="round" stroke-linejoin="round"/>
<path d="M14.9299 22.05C13.1999 21.26 11.9999 19.52 11.9999 17.5C11.9999 16.4 12.3499 15.39 12.9599 14.56C12.6399 14.52 12.3199 14.5 11.9999 14.5C8.71992 14.5 5.90992 16.47 4.66992 19.29C6.49992 21.26 9.09992 22.5 11.9999 22.5C13.0199 22.5 13.9999 22.35 14.9299 22.05Z" fill="white" stroke="black" stroke-width="1.2" stroke-miterlimit="10" stroke-linecap="round"/>
<path d="M13.12 14.34H13.13C13.68 13.66 14.42 13.12 15.26 12.81C15.73 12.15 16 11.36 16 10.5C16 8.29 14.21 6.5 12 6.5C9.79 6.5 8 8.29 8 10.5C8 12.71 9.79 14.5 12 14.5C12.39 14.5 12.77 14.44 13.13 14.34" fill="white"/>
<path d="M13.12 14.34H13.13C13.68 13.66 14.42 13.12 15.26 12.81C15.73 12.15 16 11.36 16 10.5C16 8.29 14.21 6.5 12 6.5C9.79 6.5 8 8.29 8 10.5C8 12.71 9.79 14.5 12 14.5C12.39 14.5 12.77 14.44 13.13 14.34" stroke="black" stroke-width="1.2" stroke-miterlimit="10" stroke-linecap="round" stroke-linejoin="round"/>
<path d="M17 22.5C19.7614 22.5 22 20.2614 22 17.5C22 14.7386 19.7614 12.5 17 12.5C14.2386 12.5 12 14.7386 12 17.5C12 20.2614 14.2386 22.5 17 22.5Z" fill="black" stroke="black" stroke-width="1.2" stroke-miterlimit="10" stroke-linecap="round" stroke-linejoin="round"/>
<path d="M14.6001 16.8499L16.4001 18.6499L19.4001 15.6499" stroke="#00CFFD" stroke-width="1.2" stroke-miterlimit="10"/>
</svg>
