<svg width="71" height="259" viewBox="0 0 71 259" fill="none" xmlns="http://www.w3.org/2000/svg">
<path d="M21.2798 120.628C20.3015 122.011 21.8158 169.774 21.8158 174.299C21.8158 178.824 26.2219 216.244 26.2219 216.244L34.0564 214.753C34.0564 214.753 35.8426 187.311 33.9373 180.686L35.4854 141.857H37.6788L40.0208 174.039L38.9887 181.119C38.9887 181.119 40.9338 204.574 41.8864 207.908L49.8003 208.861C49.8003 208.861 52.3441 185.864 52.3441 181.234L51.3484 174.039L51.7288 135.803C51.7288 135.803 52.3789 121.938 50.8445 120.628C49.31 119.318 22.2582 119.244 21.2798 120.628Z" fill="#0E0F25"/>
<path d="M21.4219 205.299L36.0357 204.831C36.0357 204.831 34.3449 236.953 34.6239 239.366C34.9029 241.779 35.9632 240.512 35.6827 243.914C35.4021 247.316 38.4787 256.375 36.2724 257.048C34.0662 257.721 23.6474 259.454 24.1671 256.05C24.6867 252.646 28.5571 248.446 27.9726 245.758C27.3881 243.071 27.2461 238.996 26.928 237.058C26.6099 235.12 21.4219 205.299 21.4219 205.299Z" fill="#FF5252"/>
<path d="M54.6968 205.484L39.3442 205.484C39.3442 205.484 42.3505 237.587 42.3488 240.016C42.3471 242.445 41.1491 241.307 41.8162 244.655C42.4833 248.003 40.461 257.354 42.7297 257.77C44.9983 258.187 55.5468 258.719 54.6419 255.397C53.7371 252.075 49.4125 248.344 49.6864 245.607C49.9602 242.87 49.6361 238.807 49.7309 236.845C49.8258 234.883 54.6968 205.484 54.6968 205.484Z" fill="#FF5252"/>
<path d="M23.1429 179.22C24.1642 178.033 25.4646 177.765 26.0519 178.228C26.6093 178.667 26.5676 179.799 26.118 180.476C25.3402 181.646 23.0817 181.847 21.7545 180.74C20.5483 179.735 20.4124 177.901 21.0272 176.707C21.9976 174.824 24.7886 174.631 26.5808 175.253C28.434 175.896 30.3961 177.817 30.0848 179.947C29.6768 182.738 25.7209 183.451 25.3246 183.517C25.0095 183.569 21.7697 184.05 19.4405 181.6C17.5546 179.616 17.6336 177.15 17.6554 176.707" stroke="#FF5252" stroke-width="0.621877" stroke-miterlimit="10" stroke-linecap="round"/>
<path d="M49.2847 179.221C48.2905 178.066 47.0247 177.805 46.4531 178.256C45.9105 178.683 45.9511 179.785 46.3888 180.444C47.1458 181.583 49.3442 181.778 50.6361 180.701C51.8102 179.722 51.9425 177.937 51.344 176.775C50.3994 174.942 47.6828 174.755 45.9383 175.36C44.1344 175.985 42.2245 177.855 42.5275 179.929C42.9247 182.646 46.7753 183.34 47.161 183.404C47.4677 183.455 50.6213 183.922 52.8885 181.538C54.7242 179.607 54.6473 177.207 54.6261 176.775" stroke="#FF5252" stroke-width="0.621877" stroke-miterlimit="10" stroke-linecap="round"/>
<path d="M57.1758 159.412C57.1758 159.412 65.3527 159.194 64.7916 157.942C63.2804 154.569 59.98 141.987 59.5944 142.567L55.9136 148.989C55.9136 148.989 57.5754 151.821 57.8686 153.793C58.194 155.982 57.1758 159.412 57.1758 159.412Z" fill="#EBB392"/>
<path d="M58.5494 157.292L63.9732 156.002C64.4496 156.33 67.0219 158.925 67.1779 164.076C67.2325 165.881 65.0153 171.143 64.4089 171.542C63.3088 172.266 62.3437 172.688 61.5357 172.9C60.3966 173.2 59.4481 171.993 59.9916 170.945C60.5579 165.453 59.734 164.402 58.7561 165.784C55.4465 170.463 56.3386 155.768 58.5494 157.292Z" fill="#EBB392"/>
<path d="M8.11376 162.481C8.11376 162.481 5.07754 169.751 5.97055 172.121C6.86355 174.492 14.722 179.074 15.4364 178.442C16.1508 177.81 14.5434 173.603 14.3648 170.491C14.3648 170.491 15.4431 169.494 15.6184 170.491C15.7936 171.489 14.6394 173.859 15.6184 173.859C16.5973 173.859 19.0084 170.462 18.5619 167.775C18.1154 165.089 15.0792 163.193 15.0792 163.193C15.0792 163.193 14.1862 161.573 14.0076 160.783C13.829 159.993 12.8467 160.98 12.8467 160.98L8.11376 162.481Z" fill="#EBB392"/>
<path d="M18.5552 74.1477C18.5552 74.1477 5.69592 75.3605 5.69592 86.5373C4.62431 93.5109 2.8383 141.692 7.30333 153.103L7.12473 164.514H15.519L14.626 152.046C14.626 152.046 18.0194 149.299 18.5552 144.439C19.091 139.579 15.9729 120.51 15.519 106.315C15.0651 92.1199 18.5552 74.1477 18.5552 74.1477Z" fill="#FF5252"/>
<path d="M48.388 73.7064C52.7302 76.0763 57.0553 78.8072 57.6577 85.2802C58.2601 91.7533 58.9961 116.473 59.7993 117.904C60.6025 119.336 65.2564 150.234 63.1804 150.465L64.7186 155.089C64.7186 155.089 59.0713 156.129 57.0633 157.747L55.0351 149.425C55.0351 149.425 50.6959 142.959 50.0105 130.461C49.325 117.964 45.2225 114.599 48.8369 104.889C52.4512 95.1797 44.0458 71.3365 48.388 73.7064Z" fill="#FF5252"/>
<path d="M19.1647 33.0053C18.7516 32.3397 17.7975 31.0263 16.1237 30.413C13.8722 29.5882 11.776 30.5639 10.2961 31.253C9.45749 31.6435 5.99713 33.364 4.24593 36.7391C0.911313 43.1665 5.21373 52.8198 8.73254 57.829C11.1464 61.2653 12.1137 63.3777 14.0484 67.6024C14.8552 69.3641 15.5282 71.0119 14.7704 72.2978C13.738 74.0498 10.7551 73.9324 10.2699 73.9073C10.6702 74.2341 14.3127 77.1209 18.0677 75.8628C20.9595 74.894 22.2085 72.0397 23.2651 69.6251C23.7992 68.4048 24.8181 65.6954 24.7685 62.545C24.6106 52.5141 13.7878 48.7175 14.3733 40.9515C14.524 38.9536 15.4688 36.1731 19.1647 33.0053Z" fill="#121430"/>
<path d="M22.6001 31.7788C22.565 33.5906 19.6529 36.1409 17.4994 36.9254C15.3459 37.7099 14.9705 39.773 14.186 37.6194C13.4015 35.4659 16.4412 31.5716 18.5947 30.7871C20.7482 30.0025 22.6444 29.4872 22.6001 31.7788Z" fill="#FF5252"/>
<path d="M43.3253 42.6835C43.3253 42.6835 48.367 41.5085 46.3518 38.9441C44.3365 36.3797 30.9723 20.3598 19.8007 34.5387C19.8007 34.5387 11.6778 35.1322 13.2667 41.1789C14.8556 47.2256 11.534 60.4544 23.7188 58.8831L43.3253 42.6835Z" fill="#121430"/>
<path d="M36.0142 63.0307L37.2054 76.8966L31.8605 74.1478L30.0361 66.1441L28.7981 60.9774L36.0142 63.0307Z" fill="#121430"/>
<path d="M30.6612 62.9115C30.6612 62.9115 35.5708 64.3034 38.5879 63.2536C42.7072 61.8204 44.6479 43.5263 43.3255 42.6845C42.0031 41.8428 32.8124 36.8312 27.8023 43.3895C22.7922 49.9478 24.0201 52.7341 24.0201 52.7341C24.0201 52.7341 18.165 48.9552 17.809 51.5621C17.453 54.1689 21.1887 58.457 22.7468 57.9436C22.7468 57.9436 25.5592 61.9336 25.8974 63.4925C26.3507 65.5818 24.0199 70.3104 24.0199 70.3104C19.8502 78.8658 31.7854 86.1077 35.3726 78.4242C36.4445 76.128 30.6612 62.9115 30.6612 62.9115Z" fill="#EBB392"/>
<path d="M40.0958 47.8962C40.3502 50.7298 41.876 53.9576 41.5314 54.3015C40.9381 54.8934 39.2967 54.8605 39.1594 54.7994" stroke="#121430" stroke-width="0.429603" stroke-miterlimit="10" stroke-linecap="round"/>
<path d="M33.1478 49.1904C35.5737 47.3352 36.8555 48.071 36.8555 48.071" stroke="#121430" stroke-width="0.678653" stroke-miterlimit="10" stroke-linecap="round"/>
<path d="M45.6204 48.146C43.8027 47.6086 43.0396 47.8295 43.0396 47.8295" stroke="#121430" stroke-width="0.678653" stroke-miterlimit="10" stroke-linecap="round"/>
<path d="M36.2893 50.735C36.308 51.0633 36.0558 51.3459 35.7241 51.3648C35.6226 51.3706 35.5298 51.3521 35.4425 51.3095C35.2474 51.2221 35.1073 51.0298 35.0944 50.803C35.0796 50.5424 35.233 50.3129 35.4585 50.2185C35.5181 50.1914 35.585 50.174 35.6561 50.17C35.9879 50.1511 36.2705 50.4033 36.2893 50.735Z" fill="#121430"/>
<path d="M44.0414 50.2706C44.0601 50.5989 43.8079 50.8815 43.4795 50.9002C43.1478 50.9191 42.8652 50.6669 42.8465 50.3386C42.8276 50.0069 43.0798 49.7243 43.4115 49.7054C43.7399 49.6867 44.0225 49.9389 44.0414 50.2706Z" fill="#121430"/>
<path d="M37.7211 59.9763C37.145 59.9615 36.4556 57.6014 36.4131 57.5227L39.5641 57.8315C39.0004 59.1164 38.1425 59.9872 37.7211 59.9763Z" fill="white"/>
<path d="M24.1576 69.3514C24.1576 69.3514 18.9191 73.8308 14.2633 74.9171C14.2633 74.9171 11.0475 76.2621 11.4399 85.1088C12.0508 98.8819 15.7427 119.619 18.6323 121.783C23.3781 125.336 47.495 121.783 47.495 121.783C49.2647 121.755 50.691 114.135 50.4233 112.385C49.7836 108.204 49.0537 104.056 50.4233 100.369C52.4408 94.937 51.678 82.9776 50.7468 81.2705C49.8157 79.5634 51.0574 76.2458 49.0357 74.3589C45.0403 70.6299 38.5875 72.8096 36.57 69.085C36.57 69.085 30.0549 76.2103 24.1576 69.3514Z" fill="#FF5252"/>
<path d="M24.02 52.7331C24.02 52.7331 25.8775 53.4697 27.033 52.4457C28.1885 51.4217 28.9247 42.3604 32.4792 43.1898C36.0338 44.0192 43.4543 43.9249 46.1598 41.3581C48.8654 38.7913 41.4611 35.2475 41.4611 35.2475C41.4611 35.2475 31.9203 35.012 30.3518 35.201C28.7834 35.39 18.1413 41.2552 18.1413 41.2552L24.02 52.7331Z" fill="#121430"/>
</svg>
