<svg width="240" height="264" viewBox="0 0 240 264" fill="none" xmlns="http://www.w3.org/2000/svg">
<path d="M73.2676 256.233H79.0803L83.5903 244.719L74.6486 245.811L73.2676 256.233Z" fill="#FFB68F"/>
<path d="M80.5311 252.406C80.0859 252.843 78.3874 250.51 77.7196 250.279C77.3856 250.164 74.9369 249.916 73.6754 250.667C72.6613 251.269 72.0388 252.782 71.8574 252.839C71.2596 253.025 70.1754 253.754 69.2272 254.451C68.5223 254.764 67.9039 255.247 67.4257 255.84L67.4175 255.849V255.853C66.762 256.677 66.3662 257.716 66.3662 258.85V262.185H78.4534V262.14C80.1848 262.136 81.4875 262.131 81.6401 262.136C82.4604 259.39 83.6518 256.22 80.5311 252.406Z" fill="#CCD0FC"/>
<path d="M111.475 144.48L99.9813 207.344L85.6639 246.273L73.2676 246.417L86.7976 202.203L92.6144 140.914L111.475 144.48Z" fill="#FF4C00"/>
<path d="M147.2 256.232H141.383L138.906 246.623L145.815 245.811L147.2 256.232Z" fill="#FFB68F"/>
<path d="M154.695 255.845C154.695 255.841 154.687 255.837 154.687 255.837C154.209 255.239 153.594 254.761 152.885 254.447C151.937 253.751 150.853 253.021 150.255 252.835C150.074 252.778 149.447 251.265 148.437 250.663C147.176 249.913 144.727 250.16 144.393 250.275C143.725 250.506 142.027 252.84 141.581 252.403C138.461 256.216 139.652 259.386 140.468 262.127C140.621 262.123 141.924 262.127 143.655 262.132V262.177H155.742V258.842C155.746 257.708 155.351 256.669 154.695 255.845Z" fill="#CCD0FC"/>
<path d="M149.864 247.229L137.203 246.425L130.814 199.288L108.993 144.48L127.854 140.914L141.767 195.347L149.864 247.229Z" fill="#FF4C00"/>
<path d="M133.39 162.573L93.785 159.469C90.5653 159.469 91.3981 141.779 91.3981 141.779C91.3981 138.56 95.7022 125.627 95.7022 125.627H125.284C128.503 125.627 130.059 137.69 130.059 140.905C130.059 140.91 129.119 147.778 133.39 162.573Z" fill="#FF4C00"/>
<path d="M92.0289 203.53C93.4141 201.923 95.1785 201.556 95.9742 202.186C96.7286 202.784 96.675 204.318 96.0649 205.237C95.0095 206.824 91.9465 207.096 90.145 205.596C88.5083 204.231 88.3228 201.745 89.1597 200.125C90.4748 197.569 94.2633 197.309 96.6915 198.15C99.2062 199.02 101.865 201.63 101.445 204.516C100.892 208.3 95.5248 209.269 94.9889 209.36C94.5602 209.43 90.1656 210.081 87.0077 206.758C84.4477 204.066 84.5549 200.723 84.5878 200.121" stroke="#CCD0FC" stroke-width="0.752143" stroke-miterlimit="10"/>
<path d="M135.641 193.36C137.026 191.753 138.79 191.386 139.586 192.016C140.34 192.614 140.287 194.148 139.677 195.067C138.621 196.654 135.558 196.926 133.757 195.426C132.12 194.061 131.935 191.575 132.772 189.955C134.087 187.399 137.875 187.14 140.303 187.981C142.818 188.85 145.477 191.46 145.057 194.346C144.504 198.13 139.137 199.099 138.601 199.19C138.172 199.26 133.777 199.911 130.62 196.588C128.059 193.896 128.167 190.553 128.2 189.951" stroke="#CCD0FC" stroke-width="0.752143" stroke-miterlimit="10"/>
<path opacity="0.2" d="M61.2741 185.86C81.3679 179.141 103.723 167.147 126.168 149.436" stroke="#0014F2" stroke-width="16.7869" stroke-miterlimit="10"/>
<path d="M80.32 31.7437C80.3281 31.7437 80.3362 31.7437 80.3443 31.7437C83.3692 31.7477 86.2722 32.239 89.1834 32.982C91.7291 33.6398 94.2911 34.4965 96.9627 35.5034C101.632 37.2614 106.65 39.4702 112.322 41.9509C120.824 45.666 130.792 49.9982 142.891 54.3183C154.987 58.6383 169.205 62.9461 186.128 66.5556C194.098 68.2569 201.642 69.5683 208.638 70.8148C213.884 71.7527 218.821 72.65 223.425 73.665C226.88 74.4283 230.149 75.2607 233.239 76.2595C235.557 77.0106 237.782 77.8551 239.909 78.858C241.505 79.6132 243.048 80.4618 244.522 81.4403C246.731 82.906 248.801 84.6844 250.547 86.8525C252.297 89.0084 253.69 91.5542 254.563 94.2989V94.2948C254.993 95.6347 255.269 96.9705 255.444 98.29C255.618 99.6096 255.691 100.921 255.691 102.224C255.687 105.667 255.188 109.09 254.392 112.501C253.19 117.608 251.306 122.663 248.996 127.259C247.839 129.557 246.568 131.738 245.18 133.756C243.783 135.774 242.281 137.633 240.519 139.302C239.004 140.731 237.425 141.969 235.801 143.017C233.364 144.588 230.819 145.713 228.301 146.419C225.788 147.13 223.32 147.422 221.009 147.422C221.005 147.422 221.001 147.422 220.997 147.422C218.833 147.422 216.803 147.171 214.952 146.781C212.174 146.196 209.783 145.311 207.822 144.434C206.843 143.995 205.966 143.557 205.215 143.159C204.464 142.761 203.827 142.396 203.352 142.124L212.264 126.642C212.808 126.959 213.401 127.288 214.066 127.629C215.065 128.136 216.222 128.636 217.42 128.993C218.614 129.35 219.832 129.562 220.985 129.562C220.989 129.562 220.989 129.562 220.993 129.562C221.545 129.562 222.085 129.517 222.629 129.419C223.445 129.269 224.27 129.009 225.183 128.546C226.097 128.076 227.112 127.393 228.245 126.326C228.614 125.976 229.105 125.44 229.637 124.758C230.571 123.561 231.623 121.92 232.613 120.049C234.103 117.243 235.464 113.91 236.393 110.698C236.86 109.094 237.226 107.523 237.465 106.073C237.705 104.628 237.818 103.308 237.818 102.237C237.818 101.619 237.782 101.083 237.725 100.665C237.668 100.243 237.595 99.9385 237.538 99.7639V99.7598C237.425 99.4066 237.295 99.1142 237.14 98.8341C236.848 98.3144 236.466 97.819 235.805 97.2344C235.228 96.7269 234.436 96.1706 233.385 95.5981C231.55 94.5912 228.927 93.5762 225.65 92.6464C223.194 91.944 220.376 91.2822 217.262 90.6366C212.589 89.6662 207.245 88.7324 201.386 87.6889C195.528 86.6454 189.153 85.4842 182.389 84.0428C166.924 80.746 153.533 76.8685 141.925 72.922C133.216 69.9581 125.51 66.9576 118.693 64.1317C113.581 62.0164 108.965 59.9985 104.811 58.1836C98.5908 55.4592 93.3897 53.1977 89.2361 51.7157C87.1654 50.9727 85.3587 50.4286 83.8645 50.0916C82.3785 49.7546 81.2051 49.6247 80.3565 49.6247C80.3484 49.6247 80.3443 49.6247 80.3362 49.6247C79.5364 49.6288 79.037 49.7221 78.6431 49.848C78.2493 49.982 77.9285 50.1363 77.4575 50.4976C77.3154 50.6113 77.1977 50.7291 77.0231 50.9889C76.8932 51.1838 76.743 51.468 76.5887 51.8619C76.3572 52.4546 76.1258 53.3032 75.9675 54.3913C75.8091 55.4754 75.7198 56.7869 75.7198 58.2648C75.7157 61.2937 76.0974 65.0047 76.7227 68.9999C77.1896 72.0004 77.7905 75.1673 78.4361 78.387C79.4024 83.2186 80.4661 88.1558 81.3147 92.9306C81.737 95.318 82.1105 97.6688 82.3785 99.975C82.6465 102.281 82.8211 104.535 82.8211 106.772C82.8211 108.254 82.7439 109.728 82.549 111.222C82.3988 112.342 82.1795 113.471 81.8547 114.62C81.3634 116.338 80.6245 118.112 79.4511 119.817C78.8664 120.666 78.1762 121.49 77.3764 122.241C76.5806 122.992 75.6832 123.67 74.7169 124.231C73.5598 124.909 72.2971 125.428 71.0181 125.757C69.7432 126.086 68.4642 126.232 67.2462 126.232C67.2421 126.232 67.2421 126.232 67.2381 126.232C65.5206 126.232 63.9371 125.956 62.4877 125.554C61.1275 125.172 59.881 124.677 58.6955 124.117C56.4745 123.061 54.4607 121.782 52.4712 120.373C50.7375 119.139 49.0363 117.803 47.331 116.407C44.3508 113.962 41.3585 111.331 38.3499 108.777C36.0965 106.861 33.839 104.989 31.6222 103.288C29.9575 102.009 28.3131 100.828 26.7175 99.7923C24.3301 98.2372 22.0482 97.0192 20.0385 96.2437C19.0315 95.8539 18.0977 95.5778 17.245 95.3992C16.3924 95.2205 15.621 95.1393 14.9226 95.1393C14.1512 95.1393 13.461 95.2327 12.7667 95.4195C11.845 95.6712 10.7812 96.1503 9.59161 96.9664C8.55221 97.6729 7.42753 98.6351 6.28255 99.8491C4.27276 101.964 2.21427 104.847 0.334403 108.282C-2.49554 113.43 -4.91947 119.801 -6.59227 126.569C-8.26912 133.338 -9.19486 140.516 -9.19486 147.28C-9.19892 153.285 -8.45997 158.957 -7.01454 163.724C-6.29589 166.107 -5.40264 168.267 -4.37136 170.151C-3.33601 172.039 -2.16668 173.651 -0.86742 175.003C0.342514 176.262 1.76763 177.407 3.44043 178.434C5.94962 179.969 9.03942 181.235 12.7098 182.112C16.3762 182.989 20.6191 183.473 25.341 183.473C25.3573 183.473 25.3735 183.473 25.3857 183.473C34.7769 183.473 46.052 181.544 58.4275 177.403L64.0914 194.346C50.1975 198.987 37.1399 201.329 25.341 201.337C17.4399 201.333 10.087 200.282 3.45262 198.016C0.139511 196.883 -2.99089 195.446 -5.8858 193.676C-8.77665 191.906 -11.432 189.807 -13.7626 187.379C-16.2636 184.776 -18.3384 181.853 -20.0436 178.738C-22.6016 174.065 -24.3353 168.966 -25.4518 163.671C-26.5643 158.369 -27.0637 152.859 -27.0637 147.284C-27.0637 139.996 -26.2111 132.599 -24.6723 125.453C-23.5151 120.093 -21.9682 114.876 -20.068 109.947C-18.6429 106.252 -17.0148 102.724 -15.1836 99.4188C-13.8113 96.942 -12.3252 94.5912 -10.7093 92.3946C-8.28537 89.1059 -5.58129 86.1501 -2.49149 83.6937C-0.944563 82.4675 0.699811 81.3631 2.45787 80.4293C4.21187 79.4954 6.08362 78.7321 8.04875 78.1921C10.3306 77.5669 12.6489 77.2786 14.9023 77.2786C14.9105 77.2786 14.9145 77.2786 14.9226 77.2786C18.5484 77.2786 21.9874 78.0013 25.1787 79.1057C27.9761 80.0761 30.6071 81.3428 33.1204 82.7761C37.5094 85.2853 41.5574 88.306 45.3618 91.3755C48.2121 93.6777 50.9161 96.0163 53.4578 98.1966C55.362 99.8329 57.1688 101.38 58.8497 102.748C60.1084 103.775 61.294 104.705 62.378 105.493C63.1901 106.086 63.9453 106.597 64.6152 107.015C64.7289 107.088 64.8426 107.153 64.9522 107.222C64.9563 107.08 64.9563 106.93 64.9563 106.78C64.9563 105.631 64.871 104.23 64.7045 102.659C64.4081 99.906 63.86 96.6375 63.1779 93.1092C62.1588 87.8107 60.8595 81.9356 59.7917 76.0077C59.2558 73.0398 58.7807 70.0555 58.4315 67.0916C58.0824 64.1277 57.8591 61.184 57.8591 58.2688C57.8591 56.3402 57.9565 54.4198 58.2001 52.5074C58.3828 51.0742 58.6467 49.6409 59.0284 48.2158C59.5968 46.0802 60.4251 43.9445 61.6472 41.9063C62.8612 39.8721 64.4934 37.9517 66.5032 36.3966C68.4927 34.8416 70.7664 33.6235 73.1497 32.8561C75.5168 32.0685 77.961 31.7437 80.32 31.7437Z" fill="#CCD0FC"/>
<path d="M195.735 123.747C196.433 122.464 203.88 125.728 204.33 124.137C204.554 123.349 199.381 117.271 195.743 114.973C192.048 112.634 184.586 113.491 184.586 113.491C184.586 113.491 181.695 115.874 182.576 116.967C184.594 119.468 191.898 122.176 195.735 123.747Z" fill="#FFB68F"/>
<path d="M202.804 127.933L204.185 124.875C204.347 124.518 204.189 124.1 203.831 123.937L190.246 117.806C189.889 117.644 189.471 117.802 189.308 118.16L187.928 121.217C187.765 121.574 187.924 121.993 188.281 122.155L201.866 128.286C202.224 128.444 202.642 128.286 202.804 127.933Z" fill="black"/>
<path d="M196.405 136.39C198.391 137.288 200.725 136.402 201.623 134.417L206.324 123.999C207.222 122.013 206.336 119.679 204.351 118.781C202.366 117.884 200.031 118.769 199.134 120.754L194.432 131.173C193.539 133.158 194.42 135.493 196.405 136.39Z" fill="#FF4C00"/>
<path d="M198.748 131.201C199.195 131.404 199.722 131.205 199.925 130.755L201.793 126.613C201.996 126.167 201.797 125.639 201.346 125.436C200.9 125.233 200.372 125.432 200.169 125.882L198.301 130.024C198.102 130.47 198.301 130.998 198.748 131.201Z" fill="#EDEDED"/>
<path d="M177.456 119.168C177.456 119.168 182.401 126.208 188.894 126.752C193.705 127.154 194.225 125.871 192.856 124.584C188.662 120.646 190.355 120.3 190.355 120.3C191.785 118.835 193.823 118.912 196.515 120.637L193.522 116.553C193.526 116.557 176.685 114.827 177.456 119.168Z" fill="#FFB68F"/>
<path d="M152.202 103.901L180.964 120.596C183.831 120.068 189.84 114.299 186.973 114.827L153.018 93.0153L126.176 80.5993C123.419 79.6533 121.775 84.7529 120.825 87.5057C119.875 90.2625 121.34 93.2671 124.097 94.2131L152.202 103.901Z" fill="#FFB68F"/>
<path d="M123.333 41.8822C123.333 41.8822 129.773 87.4212 127.114 88.3144C124.454 89.2077 109.829 84.7861 109.829 84.7861L99.4231 59.5318L110.272 40.2053L123.333 41.8822Z" fill="black"/>
<path d="M92.6795 80.048C97.9578 75.391 104.702 73.4665 111.304 74.5181C111.397 74.5343 111.45 74.5424 111.45 74.5424C112.534 74.579 115.376 75.9716 116.379 76.4629C125.193 80.7829 127.418 84.1488 127.418 84.1488C127.418 84.1488 128.699 122.629 123.462 126.993C118.224 131.357 92.6795 126.993 92.6795 126.993C92.6795 126.993 87.6855 99.9226 87.6855 95.3955C87.6814 90.3853 86.1548 85.8054 92.6795 80.048Z" fill="#EDEDED"/>
<path d="M88.4402 87.1086L95.0096 124.945C107.117 131.316 129.208 136.74 129.208 136.74" stroke="#FFB68F" stroke-width="9.91954" stroke-miterlimit="10" stroke-linecap="round"/>
<path d="M152.856 129.54L153.522 132.825C153.599 133.206 153.351 133.58 152.969 133.661L138.361 136.621C137.979 136.698 137.606 136.451 137.524 136.069L136.859 132.784C136.781 132.403 137.029 132.029 137.411 131.948L152.019 128.988C152.405 128.911 152.779 129.158 152.856 129.54Z" fill="black"/>
<path d="M148.499 119.874C150.634 119.439 152.713 120.82 153.148 122.956L155.417 134.158C155.852 136.293 154.471 138.372 152.335 138.806C150.2 139.241 148.121 137.86 147.687 135.725L145.417 124.523C144.982 122.387 146.363 120.308 148.499 119.874Z" fill="#FF4C00"/>
<path d="M149.631 125.451C150.115 125.354 150.582 125.667 150.679 126.146L151.58 130.6C151.678 131.083 151.365 131.55 150.886 131.647C150.403 131.745 149.936 131.432 149.839 130.953L148.937 126.499C148.836 126.02 149.148 125.553 149.631 125.451Z" fill="#EDEDED"/>
<path d="M126.87 141.503C126.935 141.771 136.469 149.932 140.135 148.186C141.146 147.703 142.807 142.883 143.525 141.531C144.418 139.846 153.789 142.94 153.44 140.804C152.884 137.365 138.726 134.625 138.726 134.625C138.726 134.625 139.481 132.526 138.775 131.742C137.301 130.114 132.538 130.946 130.285 131.641C128.028 132.339 126.87 141.503 126.87 141.503Z" fill="#FFB68F"/>
<path d="M111.303 74.5134C111.303 74.5134 124.162 77.7941 128.945 80.5996C133.728 83.4052 141.077 85.8007 141.077 85.8007L134.556 101.619L120.824 94.2175L111.303 74.5134Z" fill="#EDEDED"/>
<path d="M97.7466 101.623L84.2384 102.638C84.2384 102.638 80.6938 83.8151 83.1299 82.191C85.566 80.5669 96.1875 77.4812 96.1875 77.4812L97.7466 101.623Z" fill="#EDEDED"/>
<path d="M124.389 46.7459C124.389 46.7459 124.828 36.6441 122.733 33.0631C120.637 29.482 106.11 28.7105 102.326 32.6976C102.326 32.6976 96.6743 32.7017 93.2434 40.55C90.0602 47.8299 89.1751 66.3119 104.791 66.4459L124.389 46.7459Z" fill="black"/>
<path d="M109.115 67.7334C109.115 67.7334 112.619 70.1249 116.135 68.2978C117.933 67.364 120.698 62.7922 121.937 57.4287C123.618 50.1366 122.237 44.4036 121.129 43.9042C119.354 43.1084 108.055 38.5529 103.073 47.4975C98.0913 56.4421 99.7073 57.1526 99.7073 57.1526C99.7073 57.1526 98.4486 65.6587 100.272 64.7492C100.272 64.7492 100.759 69.321 101.453 71.1765C101.9 72.3661 101.814 79.8896 105.785 80.4012C108.023 80.6895 110.057 81.0183 110.731 78.5985C111.543 75.6955 110.942 71.8302 110.942 71.8302L109.115 67.7334Z" fill="#FFB68F"/>
<path d="M115.851 50.6323C115.98 54.1606 117.657 58.2573 117.211 58.6634C116.435 59.3577 114.405 59.2074 114.239 59.1262" stroke="black" stroke-width="0.524972" stroke-miterlimit="10" stroke-linecap="round"/>
<path d="M107.784 51.1272C110.025 49.6331 111.28 50.2624 111.28 50.2624" stroke="black" stroke-width="0.829311" stroke-miterlimit="10" stroke-linecap="round"/>
<path d="M122.148 50.5299C119.858 50.0021 118.929 50.335 118.929 50.335" stroke="black" stroke-width="0.829311" stroke-miterlimit="10" stroke-linecap="round"/>
<path d="M120.358 53.2786C120.406 53.6846 118.287 53.9363 118.238 53.5303C118.189 53.1202 118.624 52.7345 119.213 52.6655C119.793 52.5965 120.309 52.8685 120.358 53.2786Z" fill="black"/>
<path d="M111.215 53.4773C111.263 53.8833 109.144 54.135 109.095 53.729C109.046 53.319 109.481 52.9332 110.07 52.8642C110.654 52.7952 111.166 53.0672 111.215 53.4773Z" fill="black"/>
<path d="M115.254 65.4155C114.418 65.4885 112.818 62.687 112.737 62.5936L117.37 62.4678C116.882 64.1487 115.867 65.3627 115.254 65.4155Z" fill="white"/>
<path d="M92.6625 73.5558C92.7761 74.6927 92.0169 88.7815 93.1578 88.8343C95.9106 88.9642 101.725 86.5565 104.449 84.701C106.731 83.15 105.809 59.6741 105.549 56.3406C105.294 53.0194 107.685 45.8938 112.192 46.3567C116.699 46.8195 127.844 48.7278 129.338 44.3509C132.115 36.2143 120.592 32.9053 120.592 32.9053C120.592 32.9053 108.814 34.1193 106.914 34.5984C105.59 34.9313 99.3009 39.3407 95.5939 41.992C94.0592 43.0882 93.6004 47.3595 91.4322 51.3913L92.6625 73.5558Z" fill="black"/>
<g opacity="0.42">
<path opacity="0.42" d="M120.633 142.425L131.697 156.448C120.114 165.588 108.518 173.282 97.1695 179.579C85.8213 185.877 74.7207 190.781 64.1034 194.33L58.4394 177.387C67.9159 174.22 78.0379 169.766 88.501 163.956C98.9682 158.154 109.772 150.996 120.633 142.425Z" fill="#CCD0FC"/>
</g>
</svg>
