<svg width="32" height="32" viewBox="0 0 32 32" fill="none" xmlns="http://www.w3.org/2000/svg">
<path fill-rule="evenodd" clip-rule="evenodd" d="M16 32C24.8366 32 32 24.8366 32 16C32 7.16344 24.8366 0 16 0C7.16344 0 0 7.16344 0 16C0 24.8366 7.16344 32 16 32Z" fill="#2E001F"/>
<path d="M13.1509 15.4918L16.589 22.1317C16.6504 22.2304 16.6136 22.3292 16.5153 22.3292H14.3788C14.2437 22.3292 14.1823 22.2921 14.1209 22.1687C13.3351 20.5396 12.537 18.9105 11.7143 17.1579H11.6897C10.953 18.8117 10.1426 20.5519 9.35675 22.1811C9.29536 22.2798 9.23397 22.3168 9.13574 22.3168H7.10973C6.98694 22.3168 6.97466 22.2181 7.03605 22.144L10.4005 15.7016L7.14656 9.18513C7.07289 9.08639 7.14656 9.01234 7.22024 9.01234H9.3322C9.45499 9.01234 9.5041 9.03703 9.55322 9.1481C10.3268 10.7772 11.1126 12.4557 11.8494 14.0972H11.8739C12.5861 12.468 13.3719 10.7772 14.1332 9.16044C14.1946 9.06171 14.2315 9 14.3542 9H16.3311C16.4294 9 16.4662 9.07405 16.4048 9.17279L13.1509 15.4918ZM17.1907 17.5035C17.1907 14.6279 19.0939 12.3817 22.1145 12.3817C22.3723 12.3817 22.5074 12.3817 22.753 12.4063V9.13576C22.753 9.06171 22.8144 9.01234 22.8758 9.01234H24.8158C24.914 9.01234 24.9386 9.04937 24.9386 9.11108V20.4409C24.9386 20.7741 24.9386 21.1937 25 21.6504C25 21.7244 24.9754 21.7491 24.9018 21.7861C23.8703 22.2798 22.7898 22.5019 21.7584 22.5019C19.0939 22.5143 17.1907 20.8605 17.1907 17.5035ZM22.753 14.344C22.5811 14.27 22.3355 14.2206 22.0408 14.2206C20.4937 14.2206 19.4131 15.4177 19.4131 17.4048C19.4131 19.6757 20.5182 20.589 21.9057 20.589C22.2004 20.589 22.5197 20.5519 22.753 20.4532V14.344Z" fill="#FF26BE"/>
</svg>
